solid Created by Gmsh
facet normal 0 0 -1
  outer loop
    vertex 0 0 0
    vertex 0.125 0.125 0
    vertex 0.25 0 0
  endloop
endfacet
facet normal 0 0 -1
  outer loop
    vertex 0.125 0.125 0
    vertex 0.375 0.125 0
    vertex 0.25 0 0
  endloop
endfacet
facet normal 0 0 -1
  outer loop
    vertex 0.125 0.125 0
    vertex 0.25 0.25 0
    vertex 0.375 0.125 0
  endloop
endfacet
facet normal 0 0 -1
  outer loop
    vertex 0.25 0 0
    vertex 0.375 0.125 0
    vertex 0.5 0 0
  endloop
endfacet
facet normal 0 0 -1
  outer loop
    vertex 0.25 0.25 0
    vertex 0.5 0.25 0
    vertex 0.375 0.125 0
  endloop
endfacet
facet normal 0 -0 -1
  outer loop
    vertex 0.5 0.25 0
    vertex 0.625 0.125 0
    vertex 0.375 0.125 0
  endloop
endfacet
facet normal 0 0 -1
  outer loop
    vertex 0.5 0.25 0
    vertex 0.75 0.25 0
    vertex 0.625 0.125 0
  endloop
endfacet
facet normal 0 0 -1
  outer loop
    vertex 0.375 0.125 0
    vertex 0.625 0.125 0
    vertex 0.5 0 0
  endloop
endfacet
facet normal 0 0 -1
  outer loop
    vertex 0.25 0.25 0
    vertex 0.375 0.375 0
    vertex 0.5 0.25 0
  endloop
endfacet
facet normal 0 0 -1
  outer loop
    vertex 0.375 0.375 0
    vertex 0.625 0.375 0
    vertex 0.5 0.25 0
  endloop
endfacet
facet normal 0 0 -1
  outer loop
    vertex 0.375 0.375 0
    vertex 0.5 0.5 0
    vertex 0.625 0.375 0
  endloop
endfacet
facet normal 0 0 -1
  outer loop
    vertex 0.5 0.25 0
    vertex 0.625 0.375 0
    vertex 0.75 0.25 0
  endloop
endfacet
facet normal 0 0 -1
  outer loop
    vertex 0.5 0 0
    vertex 0.625 0.125 0
    vertex 0.75 0 0
  endloop
endfacet
facet normal 0 0 -1
  outer loop
    vertex 0.625 0.125 0
    vertex 0.875 0.125 0
    vertex 0.75 0 0
  endloop
endfacet
facet normal 0 0 -1
  outer loop
    vertex 0.625 0.125 0
    vertex 0.75 0.25 0
    vertex 0.875 0.125 0
  endloop
endfacet
facet normal 0 0 -1
  outer loop
    vertex 0.75 0 0
    vertex 0.875 0.125 0
    vertex 1 0 0
  endloop
endfacet
facet normal 0 0 -1
  outer loop
    vertex 0 1 0
    vertex 0.125 0.875 0
    vertex 0 0.75 0
  endloop
endfacet
facet normal 0 -0 -1
  outer loop
    vertex 0.125 0.875 0
    vertex 0.125 0.625 0
    vertex 0 0.75 0
  endloop
endfacet
facet normal 0 0 -1
  outer loop
    vertex 0.125 0.875 0
    vertex 0.25 0.75 0
    vertex 0.125 0.625 0
  endloop
endfacet
facet normal 0 0 -1
  outer loop
    vertex 0 0.75 0
    vertex 0.125 0.625 0
    vertex 0 0.5 0
  endloop
endfacet
facet normal 0 -0 -1
  outer loop
    vertex 0.25 0.75 0
    vertex 0.25 0.5 0
    vertex 0.125 0.625 0
  endloop
endfacet
facet normal -0 0 -1
  outer loop
    vertex 0.25 0.5 0
    vertex 0.125 0.375 0
    vertex 0.125 0.625 0
  endloop
endfacet
facet normal 0 -0 -1
  outer loop
    vertex 0.25 0.5 0
    vertex 0.25 0.25 0
    vertex 0.125 0.375 0
  endloop
endfacet
facet normal 0 -0 -1
  outer loop
    vertex 0.125 0.625 0
    vertex 0.125 0.375 0
    vertex 0 0.5 0
  endloop
endfacet
facet normal 0 0 -1
  outer loop
    vertex 0.25 0.75 0
    vertex 0.375 0.625 0
    vertex 0.25 0.5 0
  endloop
endfacet
facet normal 0 -0 -1
  outer loop
    vertex 0.375 0.625 0
    vertex 0.375 0.375 0
    vertex 0.25 0.5 0
  endloop
endfacet
facet normal 0 0 -1
  outer loop
    vertex 0.375 0.625 0
    vertex 0.5 0.5 0
    vertex 0.375 0.375 0
  endloop
endfacet
facet normal 0 0 -1
  outer loop
    vertex 0.25 0.5 0
    vertex 0.375 0.375 0
    vertex 0.25 0.25 0
  endloop
endfacet
facet normal 0 0 -1
  outer loop
    vertex 0 0.5 0
    vertex 0.125 0.375 0
    vertex 0 0.25 0
  endloop
endfacet
facet normal 0 -0 -1
  outer loop
    vertex 0.125 0.375 0
    vertex 0.125 0.125 0
    vertex 0 0.25 0
  endloop
endfacet
facet normal 0 0 -1
  outer loop
    vertex 0.125 0.375 0
    vertex 0.25 0.25 0
    vertex 0.125 0.125 0
  endloop
endfacet
facet normal 0 0 -1
  outer loop
    vertex 0 0.25 0
    vertex 0.125 0.125 0
    vertex 0 0 0
  endloop
endfacet
facet normal 0 0 -1
  outer loop
    vertex 1 0 0
    vertex 0.875 0.125 0
    vertex 1 0.25 0
  endloop
endfacet
facet normal 0 0 -1
  outer loop
    vertex 0.875 0.125 0
    vertex 0.875 0.375 0
    vertex 1 0.25 0
  endloop
endfacet
facet normal 0 0 -1
  outer loop
    vertex 0.875 0.125 0
    vertex 0.75 0.25 0
    vertex 0.875 0.375 0
  endloop
endfacet
facet normal 0 0 -1
  outer loop
    vertex 1 0.25 0
    vertex 0.875 0.375 0
    vertex 1 0.5 0
  endloop
endfacet
facet normal 0 0 -1
  outer loop
    vertex 0.75 0.25 0
    vertex 0.75 0.5 0
    vertex 0.875 0.375 0
  endloop
endfacet
facet normal 0 0 -1
  outer loop
    vertex 0.75 0.5 0
    vertex 0.875 0.625 0
    vertex 0.875 0.375 0
  endloop
endfacet
facet normal 0 0 -1
  outer loop
    vertex 0.75 0.5 0
    vertex 0.75 0.75 0
    vertex 0.875 0.625 0
  endloop
endfacet
facet normal 0 0 -1
  outer loop
    vertex 0.875 0.375 0
    vertex 0.875 0.625 0
    vertex 1 0.5 0
  endloop
endfacet
facet normal 0 0 -1
  outer loop
    vertex 0.75 0.25 0
    vertex 0.625 0.375 0
    vertex 0.75 0.5 0
  endloop
endfacet
facet normal 0 0 -1
  outer loop
    vertex 0.625 0.375 0
    vertex 0.625 0.625 0
    vertex 0.75 0.5 0
  endloop
endfacet
facet normal 0 0 -1
  outer loop
    vertex 0.625 0.375 0
    vertex 0.5 0.5 0
    vertex 0.625 0.625 0
  endloop
endfacet
facet normal 0 0 -1
  outer loop
    vertex 0.75 0.5 0
    vertex 0.625 0.625 0
    vertex 0.75 0.75 0
  endloop
endfacet
facet normal 0 0 -1
  outer loop
    vertex 1 0.5 0
    vertex 0.875 0.625 0
    vertex 1 0.75 0
  endloop
endfacet
facet normal 0 0 -1
  outer loop
    vertex 0.875 0.625 0
    vertex 0.875 0.875 0
    vertex 1 0.75 0
  endloop
endfacet
facet normal 0 0 -1
  outer loop
    vertex 0.875 0.625 0
    vertex 0.75 0.75 0
    vertex 0.875 0.875 0
  endloop
endfacet
facet normal 0 0 -1
  outer loop
    vertex 1 0.75 0
    vertex 0.875 0.875 0
    vertex 1 1 0
  endloop
endfacet
facet normal -0 0 -1
  outer loop
    vertex 1 1 0
    vertex 0.875 0.875 0
    vertex 0.75 1 0
  endloop
endfacet
facet normal 0 0 -1
  outer loop
    vertex 0.875 0.875 0
    vertex 0.625 0.875 0
    vertex 0.75 1 0
  endloop
endfacet
facet normal -0 0 -1
  outer loop
    vertex 0.875 0.875 0
    vertex 0.75 0.75 0
    vertex 0.625 0.875 0
  endloop
endfacet
facet normal -0 0 -1
  outer loop
    vertex 0.75 1 0
    vertex 0.625 0.875 0
    vertex 0.5 1 0
  endloop
endfacet
facet normal 0 0 -1
  outer loop
    vertex 0.75 0.75 0
    vertex 0.5 0.75 0
    vertex 0.625 0.875 0
  endloop
endfacet
facet normal 0 0 -1
  outer loop
    vertex 0.5 0.75 0
    vertex 0.375 0.875 0
    vertex 0.625 0.875 0
  endloop
endfacet
facet normal 0 0 -1
  outer loop
    vertex 0.5 0.75 0
    vertex 0.25 0.75 0
    vertex 0.375 0.875 0
  endloop
endfacet
facet normal 0 0 -1
  outer loop
    vertex 0.625 0.875 0
    vertex 0.375 0.875 0
    vertex 0.5 1 0
  endloop
endfacet
facet normal -0 0 -1
  outer loop
    vertex 0.75 0.75 0
    vertex 0.625 0.625 0
    vertex 0.5 0.75 0
  endloop
endfacet
facet normal 0 0 -1
  outer loop
    vertex 0.625 0.625 0
    vertex 0.375 0.625 0
    vertex 0.5 0.75 0
  endloop
endfacet
facet normal -0 0 -1
  outer loop
    vertex 0.625 0.625 0
    vertex 0.5 0.5 0
    vertex 0.375 0.625 0
  endloop
endfacet
facet normal -0 0 -1
  outer loop
    vertex 0.5 0.75 0
    vertex 0.375 0.625 0
    vertex 0.25 0.75 0
  endloop
endfacet
facet normal -0 0 -1
  outer loop
    vertex 0.5 1 0
    vertex 0.375 0.875 0
    vertex 0.25 1 0
  endloop
endfacet
facet normal 0 0 -1
  outer loop
    vertex 0.375 0.875 0
    vertex 0.125 0.875 0
    vertex 0.25 1 0
  endloop
endfacet
facet normal -0 0 -1
  outer loop
    vertex 0.375 0.875 0
    vertex 0.25 0.75 0
    vertex 0.125 0.875 0
  endloop
endfacet
facet normal -0 0 -1
  outer loop
    vertex 0.25 1 0
    vertex 0.125 0.875 0
    vertex 0 1 0
  endloop
endfacet
facet normal 1 0 0
  outer loop
    vertex 1 1 0
    vertex 1 0.875 0.125
    vertex 1 0.75 0
  endloop
endfacet
facet normal 1 0 0
  outer loop
    vertex 1 0.875 0.125
    vertex 1 0.625 0.125
    vertex 1 0.75 0
  endloop
endfacet
facet normal 1 0 0
  outer loop
    vertex 1 0.875 0.125
    vertex 1 0.75 0.25
    vertex 1 0.625 0.125
  endloop
endfacet
facet normal 1 0 0
  outer loop
    vertex 1 0.75 0
    vertex 1 0.625 0.125
    vertex 1 0.5 0
  endloop
endfacet
facet normal 1 0 0
  outer loop
    vertex 1 0.75 0.25
    vertex 1 0.5 0.25
    vertex 1 0.625 0.125
  endloop
endfacet
facet normal 1 0 0
  outer loop
    vertex 1 0.5 0.25
    vertex 1 0.375 0.125
    vertex 1 0.625 0.125
  endloop
endfacet
facet normal 1 0 0
  outer loop
    vertex 1 0.5 0.25
    vertex 1 0.25 0.25
    vertex 1 0.375 0.125
  endloop
endfacet
facet normal 1 0 0
  outer loop
    vertex 1 0.625 0.125
    vertex 1 0.375 0.125
    vertex 1 0.5 0
  endloop
endfacet
facet normal 1 0 0
  outer loop
    vertex 1 0.75 0.25
    vertex 1 0.625 0.375
    vertex 1 0.5 0.25
  endloop
endfacet
facet normal 1 0 0
  outer loop
    vertex 1 0.625 0.375
    vertex 1 0.375 0.375
    vertex 1 0.5 0.25
  endloop
endfacet
facet normal 1 0 0
  outer loop
    vertex 1 0.625 0.375
    vertex 1 0.5 0.5
    vertex 1 0.375 0.375
  endloop
endfacet
facet normal 1 0 0
  outer loop
    vertex 1 0.5 0.25
    vertex 1 0.375 0.375
    vertex 1 0.25 0.25
  endloop
endfacet
facet normal 1 0 0
  outer loop
    vertex 1 0.5 0
    vertex 1 0.375 0.125
    vertex 1 0.25 0
  endloop
endfacet
facet normal 1 0 0
  outer loop
    vertex 1 0.375 0.125
    vertex 1 0.125 0.125
    vertex 1 0.25 0
  endloop
endfacet
facet normal 1 0 0
  outer loop
    vertex 1 0.375 0.125
    vertex 1 0.25 0.25
    vertex 1 0.125 0.125
  endloop
endfacet
facet normal 1 0 0
  outer loop
    vertex 1 0.25 0
    vertex 1 0.125 0.125
    vertex 1 0 0
  endloop
endfacet
facet normal 1 0 0
  outer loop
    vertex 1 0 0
    vertex 1 0.125 0.125
    vertex 1 0 0.25
  endloop
endfacet
facet normal 1 0 -0
  outer loop
    vertex 1 0.125 0.125
    vertex 1 0.125 0.375
    vertex 1 0 0.25
  endloop
endfacet
facet normal 1 0 0
  outer loop
    vertex 1 0.125 0.125
    vertex 1 0.25 0.25
    vertex 1 0.125 0.375
  endloop
endfacet
facet normal 1 0 0
  outer loop
    vertex 1 0 0.25
    vertex 1 0.125 0.375
    vertex 1 0 0.5
  endloop
endfacet
facet normal 1 0 -0
  outer loop
    vertex 1 0.25 0.25
    vertex 1 0.25 0.5
    vertex 1 0.125 0.375
  endloop
endfacet
facet normal 1 0 0
  outer loop
    vertex 1 0.25 0.5
    vertex 1 0.125 0.625
    vertex 1 0.125 0.375
  endloop
endfacet
facet normal 1 0 -0
  outer loop
    vertex 1 0.25 0.5
    vertex 1 0.25 0.75
    vertex 1 0.125 0.625
  endloop
endfacet
facet normal 1 0 -0
  outer loop
    vertex 1 0.125 0.375
    vertex 1 0.125 0.625
    vertex 1 0 0.5
  endloop
endfacet
facet normal 1 0 0
  outer loop
    vertex 1 0.25 0.25
    vertex 1 0.375 0.375
    vertex 1 0.25 0.5
  endloop
endfacet
facet normal 1 0 -0
  outer loop
    vertex 1 0.375 0.375
    vertex 1 0.375 0.625
    vertex 1 0.25 0.5
  endloop
endfacet
facet normal 1 0 0
  outer loop
    vertex 1 0.375 0.375
    vertex 1 0.5 0.5
    vertex 1 0.375 0.625
  endloop
endfacet
facet normal 1 0 0
  outer loop
    vertex 1 0.25 0.5
    vertex 1 0.375 0.625
    vertex 1 0.25 0.75
  endloop
endfacet
facet normal 1 0 0
  outer loop
    vertex 1 0 0.5
    vertex 1 0.125 0.625
    vertex 1 0 0.75
  endloop
endfacet
facet normal 1 0 -0
  outer loop
    vertex 1 0.125 0.625
    vertex 1 0.125 0.875
    vertex 1 0 0.75
  endloop
endfacet
facet normal 1 0 0
  outer loop
    vertex 1 0.125 0.625
    vertex 1 0.25 0.75
    vertex 1 0.125 0.875
  endloop
endfacet
facet normal 1 0 0
  outer loop
    vertex 1 0 0.75
    vertex 1 0.125 0.875
    vertex 1 0 1
  endloop
endfacet
facet normal 1 0 0
  outer loop
    vertex 1 1 1
    vertex 1 0.875 0.875
    vertex 1 1 0.75
  endloop
endfacet
facet normal 1 0 0
  outer loop
    vertex 1 0.875 0.875
    vertex 1 0.875 0.625
    vertex 1 1 0.75
  endloop
endfacet
facet normal 1 0 0
  outer loop
    vertex 1 0.875 0.875
    vertex 1 0.75 0.75
    vertex 1 0.875 0.625
  endloop
endfacet
facet normal 1 0 0
  outer loop
    vertex 1 1 0.75
    vertex 1 0.875 0.625
    vertex 1 1 0.5
  endloop
endfacet
facet normal 1 0 0
  outer loop
    vertex 1 0.75 0.75
    vertex 1 0.75 0.5
    vertex 1 0.875 0.625
  endloop
endfacet
facet normal 1 -0 0
  outer loop
    vertex 1 0.75 0.5
    vertex 1 0.875 0.375
    vertex 1 0.875 0.625
  endloop
endfacet
facet normal 1 0 0
  outer loop
    vertex 1 0.75 0.5
    vertex 1 0.75 0.25
    vertex 1 0.875 0.375
  endloop
endfacet
facet normal 1 0 0
  outer loop
    vertex 1 0.875 0.625
    vertex 1 0.875 0.375
    vertex 1 1 0.5
  endloop
endfacet
facet normal 1 0 0
  outer loop
    vertex 1 0.75 0.75
    vertex 1 0.625 0.625
    vertex 1 0.75 0.5
  endloop
endfacet
facet normal 1 0 0
  outer loop
    vertex 1 0.625 0.625
    vertex 1 0.625 0.375
    vertex 1 0.75 0.5
  endloop
endfacet
facet normal 1 0 0
  outer loop
    vertex 1 0.625 0.625
    vertex 1 0.5 0.5
    vertex 1 0.625 0.375
  endloop
endfacet
facet normal 1 0 0
  outer loop
    vertex 1 0.75 0.5
    vertex 1 0.625 0.375
    vertex 1 0.75 0.25
  endloop
endfacet
facet normal 1 0 0
  outer loop
    vertex 1 1 0.5
    vertex 1 0.875 0.375
    vertex 1 1 0.25
  endloop
endfacet
facet normal 1 0 0
  outer loop
    vertex 1 0.875 0.375
    vertex 1 0.875 0.125
    vertex 1 1 0.25
  endloop
endfacet
facet normal 1 0 0
  outer loop
    vertex 1 0.875 0.375
    vertex 1 0.75 0.25
    vertex 1 0.875 0.125
  endloop
endfacet
facet normal 1 0 0
  outer loop
    vertex 1 1 0.25
    vertex 1 0.875 0.125
    vertex 1 1 0
  endloop
endfacet
facet normal 1 -0 0
  outer loop
    vertex 1 0 1
    vertex 1 0.125 0.875
    vertex 1 0.25 1
  endloop
endfacet
facet normal 1 0 0
  outer loop
    vertex 1 0.125 0.875
    vertex 1 0.375 0.875
    vertex 1 0.25 1
  endloop
endfacet
facet normal 1 -0 0
  outer loop
    vertex 1 0.125 0.875
    vertex 1 0.25 0.75
    vertex 1 0.375 0.875
  endloop
endfacet
facet normal 1 -0 0
  outer loop
    vertex 1 0.25 1
    vertex 1 0.375 0.875
    vertex 1 0.5 1
  endloop
endfacet
facet normal 1 0 0
  outer loop
    vertex 1 0.25 0.75
    vertex 1 0.5 0.75
    vertex 1 0.375 0.875
  endloop
endfacet
facet normal 1 0 -0
  outer loop
    vertex 1 0.5 0.75
    vertex 1 0.625 0.875
    vertex 1 0.375 0.875
  endloop
endfacet
facet normal 1 0 0
  outer loop
    vertex 1 0.5 0.75
    vertex 1 0.75 0.75
    vertex 1 0.625 0.875
  endloop
endfacet
facet normal 1 0 0
  outer loop
    vertex 1 0.375 0.875
    vertex 1 0.625 0.875
    vertex 1 0.5 1
  endloop
endfacet
facet normal 1 -0 0
  outer loop
    vertex 1 0.25 0.75
    vertex 1 0.375 0.625
    vertex 1 0.5 0.75
  endloop
endfacet
facet normal 1 0 0
  outer loop
    vertex 1 0.375 0.625
    vertex 1 0.625 0.625
    vertex 1 0.5 0.75
  endloop
endfacet
facet normal 1 -0 0
  outer loop
    vertex 1 0.375 0.625
    vertex 1 0.5 0.5
    vertex 1 0.625 0.625
  endloop
endfacet
facet normal 1 -0 0
  outer loop
    vertex 1 0.5 0.75
    vertex 1 0.625 0.625
    vertex 1 0.75 0.75
  endloop
endfacet
facet normal 1 -0 0
  outer loop
    vertex 1 0.5 1
    vertex 1 0.625 0.875
    vertex 1 0.75 1
  endloop
endfacet
facet normal 1 0 0
  outer loop
    vertex 1 0.625 0.875
    vertex 1 0.875 0.875
    vertex 1 0.75 1
  endloop
endfacet
facet normal 1 -0 0
  outer loop
    vertex 1 0.625 0.875
    vertex 1 0.75 0.75
    vertex 1 0.875 0.875
  endloop
endfacet
facet normal 1 -0 0
  outer loop
    vertex 1 0.75 1
    vertex 1 0.875 0.875
    vertex 1 1 1
  endloop
endfacet
facet normal 0 -1 0
  outer loop
    vertex 1 0 0
    vertex 0.875 0 0.125
    vertex 0.75 0 0
  endloop
endfacet
facet normal -0 -1 0
  outer loop
    vertex 0.875 0 0.125
    vertex 0.625 0 0.125
    vertex 0.75 0 0
  endloop
endfacet
facet normal 0 -1 0
  outer loop
    vertex 0.875 0 0.125
    vertex 0.75 0 0.25
    vertex 0.625 0 0.125
  endloop
endfacet
facet normal 0 -1 0
  outer loop
    vertex 0.75 0 0
    vertex 0.625 0 0.125
    vertex 0.5 0 0
  endloop
endfacet
facet normal -0 -1 0
  outer loop
    vertex 0.75 0 0.25
    vertex 0.5 0 0.25
    vertex 0.625 0 0.125
  endloop
endfacet
facet normal 0 -1 -0
  outer loop
    vertex 0.5 0 0.25
    vertex 0.375 0 0.125
    vertex 0.625 0 0.125
  endloop
endfacet
facet normal -0 -1 0
  outer loop
    vertex 0.5 0 0.25
    vertex 0.25 0 0.25
    vertex 0.375 0 0.125
  endloop
endfacet
facet normal -0 -1 0
  outer loop
    vertex 0.625 0 0.125
    vertex 0.375 0 0.125
    vertex 0.5 0 0
  endloop
endfacet
facet normal 0 -1 0
  outer loop
    vertex 0.75 0 0.25
    vertex 0.625 0 0.375
    vertex 0.5 0 0.25
  endloop
endfacet
facet normal -0 -1 0
  outer loop
    vertex 0.625 0 0.375
    vertex 0.375 0 0.375
    vertex 0.5 0 0.25
  endloop
endfacet
facet normal 0 -1 0
  outer loop
    vertex 0.625 0 0.375
    vertex 0.5 0 0.5
    vertex 0.375 0 0.375
  endloop
endfacet
facet normal 0 -1 0
  outer loop
    vertex 0.5 0 0.25
    vertex 0.375 0 0.375
    vertex 0.25 0 0.25
  endloop
endfacet
facet normal 0 -1 0
  outer loop
    vertex 0.5 0 0
    vertex 0.375 0 0.125
    vertex 0.25 0 0
  endloop
endfacet
facet normal -0 -1 0
  outer loop
    vertex 0.375 0 0.125
    vertex 0.125 0 0.125
    vertex 0.25 0 0
  endloop
endfacet
facet normal 0 -1 0
  outer loop
    vertex 0.375 0 0.125
    vertex 0.25 0 0.25
    vertex 0.125 0 0.125
  endloop
endfacet
facet normal 0 -1 0
  outer loop
    vertex 0.25 0 0
    vertex 0.125 0 0.125
    vertex 0 0 0
  endloop
endfacet
facet normal 0 -1 0
  outer loop
    vertex 0 0 0
    vertex 0.125 0 0.125
    vertex 0 0 0.25
  endloop
endfacet
facet normal 0 -1 0
  outer loop
    vertex 0.125 0 0.125
    vertex 0.125 0 0.375
    vertex 0 0 0.25
  endloop
endfacet
facet normal 0 -1 0
  outer loop
    vertex 0.125 0 0.125
    vertex 0.25 0 0.25
    vertex 0.125 0 0.375
  endloop
endfacet
facet normal 0 -1 0
  outer loop
    vertex 0 0 0.25
    vertex 0.125 0 0.375
    vertex 0 0 0.5
  endloop
endfacet
facet normal 0 -1 0
  outer loop
    vertex 0.25 0 0.25
    vertex 0.25 0 0.5
    vertex 0.125 0 0.375
  endloop
endfacet
facet normal -0 -1 0
  outer loop
    vertex 0.25 0 0.5
    vertex 0.125 0 0.625
    vertex 0.125 0 0.375
  endloop
endfacet
facet normal 0 -1 0
  outer loop
    vertex 0.25 0 0.5
    vertex 0.25 0 0.75
    vertex 0.125 0 0.625
  endloop
endfacet
facet normal 0 -1 0
  outer loop
    vertex 0.125 0 0.375
    vertex 0.125 0 0.625
    vertex 0 0 0.5
  endloop
endfacet
facet normal 0 -1 0
  outer loop
    vertex 0.25 0 0.25
    vertex 0.375 0 0.375
    vertex 0.25 0 0.5
  endloop
endfacet
facet normal 0 -1 0
  outer loop
    vertex 0.375 0 0.375
    vertex 0.375 0 0.625
    vertex 0.25 0 0.5
  endloop
endfacet
facet normal 0 -1 0
  outer loop
    vertex 0.375 0 0.375
    vertex 0.5 0 0.5
    vertex 0.375 0 0.625
  endloop
endfacet
facet normal 0 -1 0
  outer loop
    vertex 0.25 0 0.5
    vertex 0.375 0 0.625
    vertex 0.25 0 0.75
  endloop
endfacet
facet normal 0 -1 0
  outer loop
    vertex 0 0 0.5
    vertex 0.125 0 0.625
    vertex 0 0 0.75
  endloop
endfacet
facet normal 0 -1 0
  outer loop
    vertex 0.125 0 0.625
    vertex 0.125 0 0.875
    vertex 0 0 0.75
  endloop
endfacet
facet normal 0 -1 0
  outer loop
    vertex 0.125 0 0.625
    vertex 0.25 0 0.75
    vertex 0.125 0 0.875
  endloop
endfacet
facet normal 0 -1 0
  outer loop
    vertex 0 0 0.75
    vertex 0.125 0 0.875
    vertex 0 0 1
  endloop
endfacet
facet normal 0 -1 -0
  outer loop
    vertex 1 0 1
    vertex 0.875 0 0.875
    vertex 1 0 0.75
  endloop
endfacet
facet normal 0 -1 0
  outer loop
    vertex 0.875 0 0.875
    vertex 0.875 0 0.625
    vertex 1 0 0.75
  endloop
endfacet
facet normal 0 -1 -0
  outer loop
    vertex 0.875 0 0.875
    vertex 0.75 0 0.75
    vertex 0.875 0 0.625
  endloop
endfacet
facet normal 0 -1 -0
  outer loop
    vertex 1 0 0.75
    vertex 0.875 0 0.625
    vertex 1 0 0.5
  endloop
endfacet
facet normal 0 -1 0
  outer loop
    vertex 0.75 0 0.75
    vertex 0.75 0 0.5
    vertex 0.875 0 0.625
  endloop
endfacet
facet normal 0 -1 0
  outer loop
    vertex 0.75 0 0.5
    vertex 0.875 0 0.375
    vertex 0.875 0 0.625
  endloop
endfacet
facet normal 0 -1 0
  outer loop
    vertex 0.75 0 0.5
    vertex 0.75 0 0.25
    vertex 0.875 0 0.375
  endloop
endfacet
facet normal 0 -1 0
  outer loop
    vertex 0.875 0 0.625
    vertex 0.875 0 0.375
    vertex 1 0 0.5
  endloop
endfacet
facet normal 0 -1 -0
  outer loop
    vertex 0.75 0 0.75
    vertex 0.625 0 0.625
    vertex 0.75 0 0.5
  endloop
endfacet
facet normal 0 -1 0
  outer loop
    vertex 0.625 0 0.625
    vertex 0.625 0 0.375
    vertex 0.75 0 0.5
  endloop
endfacet
facet normal 0 -1 -0
  outer loop
    vertex 0.625 0 0.625
    vertex 0.5 0 0.5
    vertex 0.625 0 0.375
  endloop
endfacet
facet normal 0 -1 -0
  outer loop
    vertex 0.75 0 0.5
    vertex 0.625 0 0.375
    vertex 0.75 0 0.25
  endloop
endfacet
facet normal 0 -1 -0
  outer loop
    vertex 1 0 0.5
    vertex 0.875 0 0.375
    vertex 1 0 0.25
  endloop
endfacet
facet normal 0 -1 0
  outer loop
    vertex 0.875 0 0.375
    vertex 0.875 0 0.125
    vertex 1 0 0.25
  endloop
endfacet
facet normal 0 -1 -0
  outer loop
    vertex 0.875 0 0.375
    vertex 0.75 0 0.25
    vertex 0.875 0 0.125
  endloop
endfacet
facet normal 0 -1 -0
  outer loop
    vertex 1 0 0.25
    vertex 0.875 0 0.125
    vertex 1 0 0
  endloop
endfacet
facet normal 0 -1 0
  outer loop
    vertex 0 0 1
    vertex 0.125 0 0.875
    vertex 0.25 0 1
  endloop
endfacet
facet normal 0 -1 0
  outer loop
    vertex 0.125 0 0.875
    vertex 0.375 0 0.875
    vertex 0.25 0 1
  endloop
endfacet
facet normal 0 -1 0
  outer loop
    vertex 0.125 0 0.875
    vertex 0.25 0 0.75
    vertex 0.375 0 0.875
  endloop
endfacet
facet normal 0 -1 0
  outer loop
    vertex 0.25 0 1
    vertex 0.375 0 0.875
    vertex 0.5 0 1
  endloop
endfacet
facet normal 0 -1 0
  outer loop
    vertex 0.25 0 0.75
    vertex 0.5 0 0.75
    vertex 0.375 0 0.875
  endloop
endfacet
facet normal 0 -1 0
  outer loop
    vertex 0.5 0 0.75
    vertex 0.625 0 0.875
    vertex 0.375 0 0.875
  endloop
endfacet
facet normal 0 -1 0
  outer loop
    vertex 0.5 0 0.75
    vertex 0.75 0 0.75
    vertex 0.625 0 0.875
  endloop
endfacet
facet normal 0 -1 0
  outer loop
    vertex 0.375 0 0.875
    vertex 0.625 0 0.875
    vertex 0.5 0 1
  endloop
endfacet
facet normal 0 -1 0
  outer loop
    vertex 0.25 0 0.75
    vertex 0.375 0 0.625
    vertex 0.5 0 0.75
  endloop
endfacet
facet normal 0 -1 0
  outer loop
    vertex 0.375 0 0.625
    vertex 0.625 0 0.625
    vertex 0.5 0 0.75
  endloop
endfacet
facet normal 0 -1 0
  outer loop
    vertex 0.375 0 0.625
    vertex 0.5 0 0.5
    vertex 0.625 0 0.625
  endloop
endfacet
facet normal 0 -1 0
  outer loop
    vertex 0.5 0 0.75
    vertex 0.625 0 0.625
    vertex 0.75 0 0.75
  endloop
endfacet
facet normal 0 -1 0
  outer loop
    vertex 0.5 0 1
    vertex 0.625 0 0.875
    vertex 0.75 0 1
  endloop
endfacet
facet normal 0 -1 0
  outer loop
    vertex 0.625 0 0.875
    vertex 0.875 0 0.875
    vertex 0.75 0 1
  endloop
endfacet
facet normal 0 -1 0
  outer loop
    vertex 0.625 0 0.875
    vertex 0.75 0 0.75
    vertex 0.875 0 0.875
  endloop
endfacet
facet normal 0 -1 0
  outer loop
    vertex 0.75 0 1
    vertex 0.875 0 0.875
    vertex 1 0 1
  endloop
endfacet
facet normal -1 0 0
  outer loop
    vertex 0 0 0
    vertex 0 0.125 0.125
    vertex 0 0.25 0
  endloop
endfacet
facet normal -1 0 0
  outer loop
    vertex 0 0.125 0.125
    vertex 0 0.375 0.125
    vertex 0 0.25 0
  endloop
endfacet
facet normal -1 0 0
  outer loop
    vertex 0 0.125 0.125
    vertex 0 0.25 0.25
    vertex 0 0.375 0.125
  endloop
endfacet
facet normal -1 0 0
  outer loop
    vertex 0 0.25 0
    vertex 0 0.375 0.125
    vertex 0 0.5 0
  endloop
endfacet
facet normal -1 0 0
  outer loop
    vertex 0 0.25 0.25
    vertex 0 0.5 0.25
    vertex 0 0.375 0.125
  endloop
endfacet
facet normal -1 0 -0
  outer loop
    vertex 0 0.5 0.25
    vertex 0 0.625 0.125
    vertex 0 0.375 0.125
  endloop
endfacet
facet normal -1 0 0
  outer loop
    vertex 0 0.5 0.25
    vertex 0 0.75 0.25
    vertex 0 0.625 0.125
  endloop
endfacet
facet normal -1 0 0
  outer loop
    vertex 0 0.375 0.125
    vertex 0 0.625 0.125
    vertex 0 0.5 0
  endloop
endfacet
facet normal -1 0 0
  outer loop
    vertex 0 0.25 0.25
    vertex 0 0.375 0.375
    vertex 0 0.5 0.25
  endloop
endfacet
facet normal -1 0 0
  outer loop
    vertex 0 0.375 0.375
    vertex 0 0.625 0.375
    vertex 0 0.5 0.25
  endloop
endfacet
facet normal -1 0 0
  outer loop
    vertex 0 0.375 0.375
    vertex 0 0.5 0.5
    vertex 0 0.625 0.375
  endloop
endfacet
facet normal -1 0 0
  outer loop
    vertex 0 0.5 0.25
    vertex 0 0.625 0.375
    vertex 0 0.75 0.25
  endloop
endfacet
facet normal -1 0 0
  outer loop
    vertex 0 0.5 0
    vertex 0 0.625 0.125
    vertex 0 0.75 0
  endloop
endfacet
facet normal -1 0 0
  outer loop
    vertex 0 0.625 0.125
    vertex 0 0.875 0.125
    vertex 0 0.75 0
  endloop
endfacet
facet normal -1 0 0
  outer loop
    vertex 0 0.625 0.125
    vertex 0 0.75 0.25
    vertex 0 0.875 0.125
  endloop
endfacet
facet normal -1 0 0
  outer loop
    vertex 0 0.75 0
    vertex 0 0.875 0.125
    vertex 0 1 0
  endloop
endfacet
facet normal -1 0 0
  outer loop
    vertex 0 0 1
    vertex 0 0.125 0.875
    vertex 0 0 0.75
  endloop
endfacet
facet normal -1 0 -0
  outer loop
    vertex 0 0.125 0.875
    vertex 0 0.125 0.625
    vertex 0 0 0.75
  endloop
endfacet
facet normal -1 0 0
  outer loop
    vertex 0 0.125 0.875
    vertex 0 0.25 0.75
    vertex 0 0.125 0.625
  endloop
endfacet
facet normal -1 0 0
  outer loop
    vertex 0 0 0.75
    vertex 0 0.125 0.625
    vertex 0 0 0.5
  endloop
endfacet
facet normal -1 0 -0
  outer loop
    vertex 0 0.25 0.75
    vertex 0 0.25 0.5
    vertex 0 0.125 0.625
  endloop
endfacet
facet normal -1 -0 0
  outer loop
    vertex 0 0.25 0.5
    vertex 0 0.125 0.375
    vertex 0 0.125 0.625
  endloop
endfacet
facet normal -1 0 -0
  outer loop
    vertex 0 0.25 0.5
    vertex 0 0.25 0.25
    vertex 0 0.125 0.375
  endloop
endfacet
facet normal -1 0 -0
  outer loop
    vertex 0 0.125 0.625
    vertex 0 0.125 0.375
    vertex 0 0 0.5
  endloop
endfacet
facet normal -1 0 0
  outer loop
    vertex 0 0.25 0.75
    vertex 0 0.375 0.625
    vertex 0 0.25 0.5
  endloop
endfacet
facet normal -1 0 -0
  outer loop
    vertex 0 0.375 0.625
    vertex 0 0.375 0.375
    vertex 0 0.25 0.5
  endloop
endfacet
facet normal -1 0 0
  outer loop
    vertex 0 0.375 0.625
    vertex 0 0.5 0.5
    vertex 0 0.375 0.375
  endloop
endfacet
facet normal -1 0 0
  outer loop
    vertex 0 0.25 0.5
    vertex 0 0.375 0.375
    vertex 0 0.25 0.25
  endloop
endfacet
facet normal -1 0 0
  outer loop
    vertex 0 0 0.5
    vertex 0 0.125 0.375
    vertex 0 0 0.25
  endloop
endfacet
facet normal -1 0 -0
  outer loop
    vertex 0 0.125 0.375
    vertex 0 0.125 0.125
    vertex 0 0 0.25
  endloop
endfacet
facet normal -1 0 0
  outer loop
    vertex 0 0.125 0.375
    vertex 0 0.25 0.25
    vertex 0 0.125 0.125
  endloop
endfacet
facet normal -1 0 0
  outer loop
    vertex 0 0 0.25
    vertex 0 0.125 0.125
    vertex 0 0 0
  endloop
endfacet
facet normal -1 0 0
  outer loop
    vertex 0 1 0
    vertex 0 0.875 0.125
    vertex 0 1 0.25
  endloop
endfacet
facet normal -1 0 0
  outer loop
    vertex 0 0.875 0.125
    vertex 0 0.875 0.375
    vertex 0 1 0.25
  endloop
endfacet
facet normal -1 0 0
  outer loop
    vertex 0 0.875 0.125
    vertex 0 0.75 0.25
    vertex 0 0.875 0.375
  endloop
endfacet
facet normal -1 0 0
  outer loop
    vertex 0 1 0.25
    vertex 0 0.875 0.375
    vertex 0 1 0.5
  endloop
endfacet
facet normal -1 0 0
  outer loop
    vertex 0 0.75 0.25
    vertex 0 0.75 0.5
    vertex 0 0.875 0.375
  endloop
endfacet
facet normal -1 0 0
  outer loop
    vertex 0 0.75 0.5
    vertex 0 0.875 0.625
    vertex 0 0.875 0.375
  endloop
endfacet
facet normal -1 0 0
  outer loop
    vertex 0 0.75 0.5
    vertex 0 0.75 0.75
    vertex 0 0.875 0.625
  endloop
endfacet
facet normal -1 0 0
  outer loop
    vertex 0 0.875 0.375
    vertex 0 0.875 0.625
    vertex 0 1 0.5
  endloop
endfacet
facet normal -1 0 0
  outer loop
    vertex 0 0.75 0.25
    vertex 0 0.625 0.375
    vertex 0 0.75 0.5
  endloop
endfacet
facet normal -1 0 0
  outer loop
    vertex 0 0.625 0.375
    vertex 0 0.625 0.625
    vertex 0 0.75 0.5
  endloop
endfacet
facet normal -1 0 0
  outer loop
    vertex 0 0.625 0.375
    vertex 0 0.5 0.5
    vertex 0 0.625 0.625
  endloop
endfacet
facet normal -1 0 0
  outer loop
    vertex 0 0.75 0.5
    vertex 0 0.625 0.625
    vertex 0 0.75 0.75
  endloop
endfacet
facet normal -1 0 0
  outer loop
    vertex 0 1 0.5
    vertex 0 0.875 0.625
    vertex 0 1 0.75
  endloop
endfacet
facet normal -1 0 0
  outer loop
    vertex 0 0.875 0.625
    vertex 0 0.875 0.875
    vertex 0 1 0.75
  endloop
endfacet
facet normal -1 0 0
  outer loop
    vertex 0 0.875 0.625
    vertex 0 0.75 0.75
    vertex 0 0.875 0.875
  endloop
endfacet
facet normal -1 0 0
  outer loop
    vertex 0 1 0.75
    vertex 0 0.875 0.875
    vertex 0 1 1
  endloop
endfacet
facet normal -1 -0 0
  outer loop
    vertex 0 1 1
    vertex 0 0.875 0.875
    vertex 0 0.75 1
  endloop
endfacet
facet normal -1 0 0
  outer loop
    vertex 0 0.875 0.875
    vertex 0 0.625 0.875
    vertex 0 0.75 1
  endloop
endfacet
facet normal -1 -0 0
  outer loop
    vertex 0 0.875 0.875
    vertex 0 0.75 0.75
    vertex 0 0.625 0.875
  endloop
endfacet
facet normal -1 -0 0
  outer loop
    vertex 0 0.75 1
    vertex 0 0.625 0.875
    vertex 0 0.5 1
  endloop
endfacet
facet normal -1 0 0
  outer loop
    vertex 0 0.75 0.75
    vertex 0 0.5 0.75
    vertex 0 0.625 0.875
  endloop
endfacet
facet normal -1 0 0
  outer loop
    vertex 0 0.5 0.75
    vertex 0 0.375 0.875
    vertex 0 0.625 0.875
  endloop
endfacet
facet normal -1 0 0
  outer loop
    vertex 0 0.5 0.75
    vertex 0 0.25 0.75
    vertex 0 0.375 0.875
  endloop
endfacet
facet normal -1 0 0
  outer loop
    vertex 0 0.625 0.875
    vertex 0 0.375 0.875
    vertex 0 0.5 1
  endloop
endfacet
facet normal -1 -0 0
  outer loop
    vertex 0 0.75 0.75
    vertex 0 0.625 0.625
    vertex 0 0.5 0.75
  endloop
endfacet
facet normal -1 0 0
  outer loop
    vertex 0 0.625 0.625
    vertex 0 0.375 0.625
    vertex 0 0.5 0.75
  endloop
endfacet
facet normal -1 -0 0
  outer loop
    vertex 0 0.625 0.625
    vertex 0 0.5 0.5
    vertex 0 0.375 0.625
  endloop
endfacet
facet normal -1 -0 0
  outer loop
    vertex 0 0.5 0.75
    vertex 0 0.375 0.625
    vertex 0 0.25 0.75
  endloop
endfacet
facet normal -1 -0 0
  outer loop
    vertex 0 0.5 1
    vertex 0 0.375 0.875
    vertex 0 0.25 1
  endloop
endfacet
facet normal -1 0 0
  outer loop
    vertex 0 0.375 0.875
    vertex 0 0.125 0.875
    vertex 0 0.25 1
  endloop
endfacet
facet normal -1 -0 0
  outer loop
    vertex 0 0.375 0.875
    vertex 0 0.25 0.75
    vertex 0 0.125 0.875
  endloop
endfacet
facet normal -1 -0 0
  outer loop
    vertex 0 0.25 1
    vertex 0 0.125 0.875
    vertex 0 0 1
  endloop
endfacet
facet normal 0 1 0
  outer loop
    vertex 0 1 0
    vertex 0.125 1 0.125
    vertex 0.25 1 0
  endloop
endfacet
facet normal -0 1 0
  outer loop
    vertex 0.125 1 0.125
    vertex 0.375 1 0.125
    vertex 0.25 1 0
  endloop
endfacet
facet normal 0 1 0
  outer loop
    vertex 0.125 1 0.125
    vertex 0.25 1 0.25
    vertex 0.375 1 0.125
  endloop
endfacet
facet normal 0 1 0
  outer loop
    vertex 0.25 1 0
    vertex 0.375 1 0.125
    vertex 0.5 1 0
  endloop
endfacet
facet normal -0 1 0
  outer loop
    vertex 0.25 1 0.25
    vertex 0.5 1 0.25
    vertex 0.375 1 0.125
  endloop
endfacet
facet normal 0 1 0
  outer loop
    vertex 0.5 1 0.25
    vertex 0.625 1 0.125
    vertex 0.375 1 0.125
  endloop
endfacet
facet normal -0 1 0
  outer loop
    vertex 0.5 1 0.25
    vertex 0.75 1 0.25
    vertex 0.625 1 0.125
  endloop
endfacet
facet normal -0 1 0
  outer loop
    vertex 0.375 1 0.125
    vertex 0.625 1 0.125
    vertex 0.5 1 0
  endloop
endfacet
facet normal 0 1 0
  outer loop
    vertex 0.25 1 0.25
    vertex 0.375 1 0.375
    vertex 0.5 1 0.25
  endloop
endfacet
facet normal -0 1 0
  outer loop
    vertex 0.375 1 0.375
    vertex 0.625 1 0.375
    vertex 0.5 1 0.25
  endloop
endfacet
facet normal 0 1 0
  outer loop
    vertex 0.375 1 0.375
    vertex 0.5 1 0.5
    vertex 0.625 1 0.375
  endloop
endfacet
facet normal 0 1 0
  outer loop
    vertex 0.5 1 0.25
    vertex 0.625 1 0.375
    vertex 0.75 1 0.25
  endloop
endfacet
facet normal 0 1 0
  outer loop
    vertex 0.5 1 0
    vertex 0.625 1 0.125
    vertex 0.75 1 0
  endloop
endfacet
facet normal -0 1 0
  outer loop
    vertex 0.625 1 0.125
    vertex 0.875 1 0.125
    vertex 0.75 1 0
  endloop
endfacet
facet normal 0 1 0
  outer loop
    vertex 0.625 1 0.125
    vertex 0.75 1 0.25
    vertex 0.875 1 0.125
  endloop
endfacet
facet normal 0 1 0
  outer loop
    vertex 0.75 1 0
    vertex 0.875 1 0.125
    vertex 1 1 0
  endloop
endfacet
facet normal 0 1 -0
  outer loop
    vertex 1 1 0
    vertex 0.875 1 0.125
    vertex 1 1 0.25
  endloop
endfacet
facet normal 0 1 0
  outer loop
    vertex 0.875 1 0.125
    vertex 0.875 1 0.375
    vertex 1 1 0.25
  endloop
endfacet
facet normal 0 1 -0
  outer loop
    vertex 0.875 1 0.125
    vertex 0.75 1 0.25
    vertex 0.875 1 0.375
  endloop
endfacet
facet normal 0 1 -0
  outer loop
    vertex 1 1 0.25
    vertex 0.875 1 0.375
    vertex 1 1 0.5
  endloop
endfacet
facet normal 0 1 0
  outer loop
    vertex 0.75 1 0.25
    vertex 0.75 1 0.5
    vertex 0.875 1 0.375
  endloop
endfacet
facet normal -0 1 0
  outer loop
    vertex 0.75 1 0.5
    vertex 0.875 1 0.625
    vertex 0.875 1 0.375
  endloop
endfacet
facet normal 0 1 0
  outer loop
    vertex 0.75 1 0.5
    vertex 0.75 1 0.75
    vertex 0.875 1 0.625
  endloop
endfacet
facet normal 0 1 0
  outer loop
    vertex 0.875 1 0.375
    vertex 0.875 1 0.625
    vertex 1 1 0.5
  endloop
endfacet
facet normal 0 1 -0
  outer loop
    vertex 0.75 1 0.25
    vertex 0.625 1 0.375
    vertex 0.75 1 0.5
  endloop
endfacet
facet normal 0 1 0
  outer loop
    vertex 0.625 1 0.375
    vertex 0.625 1 0.625
    vertex 0.75 1 0.5
  endloop
endfacet
facet normal 0 1 -0
  outer loop
    vertex 0.625 1 0.375
    vertex 0.5 1 0.5
    vertex 0.625 1 0.625
  endloop
endfacet
facet normal 0 1 -0
  outer loop
    vertex 0.75 1 0.5
    vertex 0.625 1 0.625
    vertex 0.75 1 0.75
  endloop
endfacet
facet normal 0 1 -0
  outer loop
    vertex 1 1 0.5
    vertex 0.875 1 0.625
    vertex 1 1 0.75
  endloop
endfacet
facet normal 0 1 0
  outer loop
    vertex 0.875 1 0.625
    vertex 0.875 1 0.875
    vertex 1 1 0.75
  endloop
endfacet
facet normal 0 1 -0
  outer loop
    vertex 0.875 1 0.625
    vertex 0.75 1 0.75
    vertex 0.875 1 0.875
  endloop
endfacet
facet normal 0 1 -0
  outer loop
    vertex 1 1 0.75
    vertex 0.875 1 0.875
    vertex 1 1 1
  endloop
endfacet
facet normal 0 1 0
  outer loop
    vertex 0 1 1
    vertex 0.125 1 0.875
    vertex 0 1 0.75
  endloop
endfacet
facet normal 0 1 0
  outer loop
    vertex 0.125 1 0.875
    vertex 0.125 1 0.625
    vertex 0 1 0.75
  endloop
endfacet
facet normal 0 1 0
  outer loop
    vertex 0.125 1 0.875
    vertex 0.25 1 0.75
    vertex 0.125 1 0.625
  endloop
endfacet
facet normal 0 1 0
  outer loop
    vertex 0 1 0.75
    vertex 0.125 1 0.625
    vertex 0 1 0.5
  endloop
endfacet
facet normal 0 1 0
  outer loop
    vertex 0.25 1 0.75
    vertex 0.25 1 0.5
    vertex 0.125 1 0.625
  endloop
endfacet
facet normal 0 1 0
  outer loop
    vertex 0.25 1 0.5
    vertex 0.125 1 0.375
    vertex 0.125 1 0.625
  endloop
endfacet
facet normal 0 1 0
  outer loop
    vertex 0.25 1 0.5
    vertex 0.25 1 0.25
    vertex 0.125 1 0.375
  endloop
endfacet
facet normal 0 1 0
  outer loop
    vertex 0.125 1 0.625
    vertex 0.125 1 0.375
    vertex 0 1 0.5
  endloop
endfacet
facet normal 0 1 0
  outer loop
    vertex 0.25 1 0.75
    vertex 0.375 1 0.625
    vertex 0.25 1 0.5
  endloop
endfacet
facet normal 0 1 0
  outer loop
    vertex 0.375 1 0.625
    vertex 0.375 1 0.375
    vertex 0.25 1 0.5
  endloop
endfacet
facet normal 0 1 0
  outer loop
    vertex 0.375 1 0.625
    vertex 0.5 1 0.5
    vertex 0.375 1 0.375
  endloop
endfacet
facet normal 0 1 0
  outer loop
    vertex 0.25 1 0.5
    vertex 0.375 1 0.375
    vertex 0.25 1 0.25
  endloop
endfacet
facet normal 0 1 0
  outer loop
    vertex 0 1 0.5
    vertex 0.125 1 0.375
    vertex 0 1 0.25
  endloop
endfacet
facet normal 0 1 0
  outer loop
    vertex 0.125 1 0.375
    vertex 0.125 1 0.125
    vertex 0 1 0.25
  endloop
endfacet
facet normal 0 1 0
  outer loop
    vertex 0.125 1 0.375
    vertex 0.25 1 0.25
    vertex 0.125 1 0.125
  endloop
endfacet
facet normal 0 1 0
  outer loop
    vertex 0 1 0.25
    vertex 0.125 1 0.125
    vertex 0 1 0
  endloop
endfacet
facet normal 0 1 0
  outer loop
    vertex 1 1 1
    vertex 0.875 1 0.875
    vertex 0.75 1 1
  endloop
endfacet
facet normal 0 1 0
  outer loop
    vertex 0.875 1 0.875
    vertex 0.625 1 0.875
    vertex 0.75 1 1
  endloop
endfacet
facet normal 0 1 0
  outer loop
    vertex 0.875 1 0.875
    vertex 0.75 1 0.75
    vertex 0.625 1 0.875
  endloop
endfacet
facet normal 0 1 0
  outer loop
    vertex 0.75 1 1
    vertex 0.625 1 0.875
    vertex 0.5 1 1
  endloop
endfacet
facet normal 0 1 0
  outer loop
    vertex 0.75 1 0.75
    vertex 0.5 1 0.75
    vertex 0.625 1 0.875
  endloop
endfacet
facet normal 0 1 -0
  outer loop
    vertex 0.5 1 0.75
    vertex 0.375 1 0.875
    vertex 0.625 1 0.875
  endloop
endfacet
facet normal 0 1 0
  outer loop
    vertex 0.5 1 0.75
    vertex 0.25 1 0.75
    vertex 0.375 1 0.875
  endloop
endfacet
facet normal 0 1 0
  outer loop
    vertex 0.625 1 0.875
    vertex 0.375 1 0.875
    vertex 0.5 1 1
  endloop
endfacet
facet normal 0 1 0
  outer loop
    vertex 0.75 1 0.75
    vertex 0.625 1 0.625
    vertex 0.5 1 0.75
  endloop
endfacet
facet normal 0 1 0
  outer loop
    vertex 0.625 1 0.625
    vertex 0.375 1 0.625
    vertex 0.5 1 0.75
  endloop
endfacet
facet normal 0 1 0
  outer loop
    vertex 0.625 1 0.625
    vertex 0.5 1 0.5
    vertex 0.375 1 0.625
  endloop
endfacet
facet normal 0 1 0
  outer loop
    vertex 0.5 1 0.75
    vertex 0.375 1 0.625
    vertex 0.25 1 0.75
  endloop
endfacet
facet normal 0 1 0
  outer loop
    vertex 0.5 1 1
    vertex 0.375 1 0.875
    vertex 0.25 1 1
  endloop
endfacet
facet normal 0 1 0
  outer loop
    vertex 0.375 1 0.875
    vertex 0.125 1 0.875
    vertex 0.25 1 1
  endloop
endfacet
facet normal 0 1 0
  outer loop
    vertex 0.375 1 0.875
    vertex 0.25 1 0.75
    vertex 0.125 1 0.875
  endloop
endfacet
facet normal 0 1 0
  outer loop
    vertex 0.25 1 1
    vertex 0.125 1 0.875
    vertex 0 1 1
  endloop
endfacet
facet normal 0 -0 1
  outer loop
    vertex 1 0 1
    vertex 1 0.25 1
    vertex 0.875 0.125 1
  endloop
endfacet
facet normal 0 0 1
  outer loop
    vertex 1 0.25 1
    vertex 0.875 0.375 1
    vertex 0.875 0.125 1
  endloop
endfacet
facet normal 0 -0 1
  outer loop
    vertex 1 0.25 1
    vertex 1 0.5 1
    vertex 0.875 0.375 1
  endloop
endfacet
facet normal 0 -0 1
  outer loop
    vertex 0.875 0.125 1
    vertex 0.875 0.375 1
    vertex 0.75 0.25 1
  endloop
endfacet
facet normal 0 0 1
  outer loop
    vertex 1 0.5 1
    vertex 0.875 0.625 1
    vertex 0.875 0.375 1
  endloop
endfacet
facet normal 0 0 1
  outer loop
    vertex 0.875 0.625 1
    vertex 0.75 0.5 1
    vertex 0.875 0.375 1
  endloop
endfacet
facet normal 0 0 1
  outer loop
    vertex 0.875 0.625 1
    vertex 0.75 0.75 1
    vertex 0.75 0.5 1
  endloop
endfacet
facet normal 0 0 1
  outer loop
    vertex 0.875 0.375 1
    vertex 0.75 0.5 1
    vertex 0.75 0.25 1
  endloop
endfacet
facet normal 0 -0 1
  outer loop
    vertex 1 0.5 1
    vertex 1 0.75 1
    vertex 0.875 0.625 1
  endloop
endfacet
facet normal 0 0 1
  outer loop
    vertex 1 0.75 1
    vertex 0.875 0.875 1
    vertex 0.875 0.625 1
  endloop
endfacet
facet normal 0 -0 1
  outer loop
    vertex 1 0.75 1
    vertex 1 1 1
    vertex 0.875 0.875 1
  endloop
endfacet
facet normal 0 -0 1
  outer loop
    vertex 0.875 0.625 1
    vertex 0.875 0.875 1
    vertex 0.75 0.75 1
  endloop
endfacet
facet normal 0 -0 1
  outer loop
    vertex 0.75 0.25 1
    vertex 0.75 0.5 1
    vertex 0.625 0.375 1
  endloop
endfacet
facet normal 0 0 1
  outer loop
    vertex 0.75 0.5 1
    vertex 0.625 0.625 1
    vertex 0.625 0.375 1
  endloop
endfacet
facet normal 0 -0 1
  outer loop
    vertex 0.75 0.5 1
    vertex 0.75 0.75 1
    vertex 0.625 0.625 1
  endloop
endfacet
facet normal 0 -0 1
  outer loop
    vertex 0.625 0.375 1
    vertex 0.625 0.625 1
    vertex 0.5 0.5 1
  endloop
endfacet
facet normal 0 0 1
  outer loop
    vertex 1 1 1
    vertex 0.75 1 1
    vertex 0.875 0.875 1
  endloop
endfacet
facet normal 0 0 1
  outer loop
    vertex 0.75 1 1
    vertex 0.625 0.875 1
    vertex 0.875 0.875 1
  endloop
endfacet
facet normal 0 0 1
  outer loop
    vertex 0.75 1 1
    vertex 0.5 1 1
    vertex 0.625 0.875 1
  endloop
endfacet
facet normal 0 0 1
  outer loop
    vertex 0.875 0.875 1
    vertex 0.625 0.875 1
    vertex 0.75 0.75 1
  endloop
endfacet
facet normal 0 0 1
  outer loop
    vertex 0.5 1 1
    vertex 0.375 0.875 1
    vertex 0.625 0.875 1
  endloop
endfacet
facet normal -0 0 1
  outer loop
    vertex 0.375 0.875 1
    vertex 0.5 0.75 1
    vertex 0.625 0.875 1
  endloop
endfacet
facet normal 0 0 1
  outer loop
    vertex 0.375 0.875 1
    vertex 0.25 0.75 1
    vertex 0.5 0.75 1
  endloop
endfacet
facet normal 0 0 1
  outer loop
    vertex 0.625 0.875 1
    vertex 0.5 0.75 1
    vertex 0.75 0.75 1
  endloop
endfacet
facet normal 0 0 1
  outer loop
    vertex 0.5 1 1
    vertex 0.25 1 1
    vertex 0.375 0.875 1
  endloop
endfacet
facet normal 0 0 1
  outer loop
    vertex 0.25 1 1
    vertex 0.125 0.875 1
    vertex 0.375 0.875 1
  endloop
endfacet
facet normal 0 0 1
  outer loop
    vertex 0.25 1 1
    vertex 0 1 1
    vertex 0.125 0.875 1
  endloop
endfacet
facet normal 0 0 1
  outer loop
    vertex 0.375 0.875 1
    vertex 0.125 0.875 1
    vertex 0.25 0.75 1
  endloop
endfacet
facet normal 0 0 1
  outer loop
    vertex 0.75 0.75 1
    vertex 0.5 0.75 1
    vertex 0.625 0.625 1
  endloop
endfacet
facet normal 0 0 1
  outer loop
    vertex 0.5 0.75 1
    vertex 0.375 0.625 1
    vertex 0.625 0.625 1
  endloop
endfacet
facet normal 0 0 1
  outer loop
    vertex 0.5 0.75 1
    vertex 0.25 0.75 1
    vertex 0.375 0.625 1
  endloop
endfacet
facet normal 0 0 1
  outer loop
    vertex 0.625 0.625 1
    vertex 0.375 0.625 1
    vertex 0.5 0.5 1
  endloop
endfacet
facet normal 0 0 1
  outer loop
    vertex 0 0 1
    vertex 0.25 0 1
    vertex 0.125 0.125 1
  endloop
endfacet
facet normal 0 -0 1
  outer loop
    vertex 0.25 0 1
    vertex 0.375 0.125 1
    vertex 0.125 0.125 1
  endloop
endfacet
facet normal 0 0 1
  outer loop
    vertex 0.25 0 1
    vertex 0.5 0 1
    vertex 0.375 0.125 1
  endloop
endfacet
facet normal 0 0 1
  outer loop
    vertex 0.125 0.125 1
    vertex 0.375 0.125 1
    vertex 0.25 0.25 1
  endloop
endfacet
facet normal 0 -0 1
  outer loop
    vertex 0.5 0 1
    vertex 0.625 0.125 1
    vertex 0.375 0.125 1
  endloop
endfacet
facet normal 0 0 1
  outer loop
    vertex 0.625 0.125 1
    vertex 0.5 0.25 1
    vertex 0.375 0.125 1
  endloop
endfacet
facet normal 0 -0 1
  outer loop
    vertex 0.625 0.125 1
    vertex 0.75 0.25 1
    vertex 0.5 0.25 1
  endloop
endfacet
facet normal 0 -0 1
  outer loop
    vertex 0.375 0.125 1
    vertex 0.5 0.25 1
    vertex 0.25 0.25 1
  endloop
endfacet
facet normal 0 0 1
  outer loop
    vertex 0.5 0 1
    vertex 0.75 0 1
    vertex 0.625 0.125 1
  endloop
endfacet
facet normal 0 -0 1
  outer loop
    vertex 0.75 0 1
    vertex 0.875 0.125 1
    vertex 0.625 0.125 1
  endloop
endfacet
facet normal 0 0 1
  outer loop
    vertex 0.75 0 1
    vertex 1 0 1
    vertex 0.875 0.125 1
  endloop
endfacet
facet normal 0 0 1
  outer loop
    vertex 0.625 0.125 1
    vertex 0.875 0.125 1
    vertex 0.75 0.25 1
  endloop
endfacet
facet normal 0 0 1
  outer loop
    vertex 0.25 0.25 1
    vertex 0.5 0.25 1
    vertex 0.375 0.375 1
  endloop
endfacet
facet normal 0 -0 1
  outer loop
    vertex 0.5 0.25 1
    vertex 0.625 0.375 1
    vertex 0.375 0.375 1
  endloop
endfacet
facet normal 0 0 1
  outer loop
    vertex 0.5 0.25 1
    vertex 0.75 0.25 1
    vertex 0.625 0.375 1
  endloop
endfacet
facet normal 0 0 1
  outer loop
    vertex 0.375 0.375 1
    vertex 0.625 0.375 1
    vertex 0.5 0.5 1
  endloop
endfacet
facet normal 0 0 1
  outer loop
    vertex 0 1 1
    vertex 0 0.75 1
    vertex 0.125 0.875 1
  endloop
endfacet
facet normal -0 0 1
  outer loop
    vertex 0 0.75 1
    vertex 0.125 0.625 1
    vertex 0.125 0.875 1
  endloop
endfacet
facet normal 0 0 1
  outer loop
    vertex 0 0.75 1
    vertex 0 0.5 1
    vertex 0.125 0.625 1
  endloop
endfacet
facet normal 0 0 1
  outer loop
    vertex 0.125 0.875 1
    vertex 0.125 0.625 1
    vertex 0.25 0.75 1
  endloop
endfacet
facet normal -0 0 1
  outer loop
    vertex 0 0.5 1
    vertex 0.125 0.375 1
    vertex 0.125 0.625 1
  endloop
endfacet
facet normal 0 0 1
  outer loop
    vertex 0.125 0.375 1
    vertex 0.25 0.5 1
    vertex 0.125 0.625 1
  endloop
endfacet
facet normal -0 0 1
  outer loop
    vertex 0.125 0.375 1
    vertex 0.25 0.25 1
    vertex 0.25 0.5 1
  endloop
endfacet
facet normal -0 0 1
  outer loop
    vertex 0.125 0.625 1
    vertex 0.25 0.5 1
    vertex 0.25 0.75 1
  endloop
endfacet
facet normal 0 0 1
  outer loop
    vertex 0 0.5 1
    vertex 0 0.25 1
    vertex 0.125 0.375 1
  endloop
endfacet
facet normal -0 0 1
  outer loop
    vertex 0 0.25 1
    vertex 0.125 0.125 1
    vertex 0.125 0.375 1
  endloop
endfacet
facet normal 0 0 1
  outer loop
    vertex 0 0.25 1
    vertex 0 0 1
    vertex 0.125 0.125 1
  endloop
endfacet
facet normal 0 0 1
  outer loop
    vertex 0.125 0.375 1
    vertex 0.125 0.125 1
    vertex 0.25 0.25 1
  endloop
endfacet
facet normal 0 0 1
  outer loop
    vertex 0.25 0.75 1
    vertex 0.25 0.5 1
    vertex 0.375 0.625 1
  endloop
endfacet
facet normal -0 0 1
  outer loop
    vertex 0.25 0.5 1
    vertex 0.375 0.375 1
    vertex 0.375 0.625 1
  endloop
endfacet
facet normal 0 0 1
  outer loop
    vertex 0.25 0.5 1
    vertex 0.25 0.25 1
    vertex 0.375 0.375 1
  endloop
endfacet
facet normal 0 0 1
  outer loop
    vertex 0.375 0.625 1
    vertex 0.375 0.375 1
    vertex 0.5 0.5 1
  endloop
endfacet
endsolid Created by Gmsh
