solid Created by Gmsh
facet normal -0.240853 0.113811 0.963866
  outer loop
    vertex 6.123031769111886e-17 -1.499660721822137e-32 1
    vertex -0.0153026165363577 0.2600757343358739 0.9654669555902973
    vertex -0.2112783172059116 -0.153382003670688 0.965316235038344
  endloop
endfacet
facet normal -0.959279 -0.155681 -0.235685
  outer loop
    vertex -0.9257844663994027 -0.3379317127308226 -0.1694853365468115
    vertex -0.9956992512912769 -0.03220668185989557 -0.08686616499861259
    vertex -0.8978238240410188 -0.1297440388867525 -0.4208073969855028
  endloop
endfacet
facet normal -0.380774 -0.0886829 0.920406
  outer loop
    vertex -0.4776027689615587 0.06493793723528796 0.8761727337619436
    vertex -0.4565087744430903 -0.2464928860789171 0.8548923885314184
    vertex -0.2112783172059116 -0.153382003670688 0.965316235038344
  endloop
endfacet
facet normal -0.956048 -0.0925473 0.278221
  outer loop
    vertex -0.960841036489871 0.1133726784406377 0.2528460764581213
    vertex -0.9586456133982626 -0.2476101706143896 0.1403131901161881
    vertex -0.8761586809986353 -0.190734597646838 0.4426807867653966
  endloop
endfacet
facet normal 0.243048 -0.44297 0.862963
  outer loop
    vertex 0.1108658735362036 -0.5979796858092796 0.7938066851850579
    vertex 0.4059825621538242 -0.5243751564267813 0.7484710111616913
    vertex 0.1506325540503649 -0.2698172279019947 0.9510565162951921
  endloop
endfacet
facet normal -0.976377 -0.211998 -0.041759
  outer loop
    vertex -0.9586456133982626 -0.2476101706143896 0.1403131901161881
    vertex -0.9956992512912769 -0.03220668185989557 -0.08686616499861259
    vertex -0.9257844663994027 -0.3379317127308226 -0.1694853365468115
  endloop
endfacet
facet normal 0.582956 -0.469233 0.663312
  outer loop
    vertex 0.4059825621538242 -0.5243751564267813 0.7484710111616913
    vertex 0.55219172982272 -0.6317953201730713 0.5439843443728861
    vertex 0.685322405277385 -0.2928208029309654 0.6667752081441575
  endloop
endfacet
facet normal -0.960643 -0.01415 -0.277424
  outer loop
    vertex -0.8978238240410188 -0.1297440388867525 -0.4208073969855028
    vertex -0.9956992512912769 -0.03220668185989557 -0.08686616499861259
    vertex -0.9392815164436272 0.1786421740522196 -0.2929798739115991
  endloop
endfacet
facet normal -0.285932 0.0420877 0.957325
  outer loop
    vertex -0.4776027689615587 0.06493793723528796 0.8761727337619436
    vertex -0.2112783172059116 -0.153382003670688 0.965316235038344
    vertex -0.270892585421232 0.2491202243918524 0.9298152079648696
  endloop
endfacet
facet normal -0.0846911 -0.433178 -0.897321
  outer loop
    vertex 0.04996630336553891 -0.2831631207851517 -0.9577692914033089
    vertex -0.05423488905810828 -0.6113366436913381 -0.7895100283651023
    vertex -0.2913090156763929 -0.419613266934894 -0.8596881781191809
  endloop
endfacet
facet normal -0.339986 -0.42102 0.840923
  outer loop
    vertex -0.1381278727266953 -0.4143274816563114 0.8995851425631355
    vertex -0.4565087744430903 -0.2464928860789171 0.8548923885314184
    vertex -0.4517659826706601 -0.5410907014295031 0.7093154091997023
  endloop
endfacet
facet normal 0.550219 -0.195665 -0.811772
  outer loop
    vertex 0.5877852522924729 -1.439611109280903e-16 -0.8090169943749476
    vertex 0.6808812905080636 -0.269817227902308 -0.6808812905075216
    vertex 0.391496540662427 -0.3014462638232502 -0.8694024434497272
  endloop
endfacet
facet normal 0.191361 0.297278 0.935418
  outer loop
    vertex 0.2449429713396806 0.4801747253110348 0.8422797480432263
    vertex -0.0153026165363577 0.2600757343358739 0.9654669555902973
    vertex 0.3889462625001999 0.2341541772868659 0.8910065241883678
  endloop
endfacet
facet normal -0.290248 -0.309465 0.905532
  outer loop
    vertex -0.2112783172059116 -0.153382003670688 0.965316235038344
    vertex -0.4565087744430903 -0.2464928860789171 0.8548923885314184
    vertex -0.1381278727266953 -0.4143274816563114 0.8995851425631355
  endloop
endfacet
facet normal -0.991764 -0.0435779 0.120441
  outer loop
    vertex -0.960841036489871 0.1133726784406377 0.2528460764581213
    vertex -0.9956992512912769 -0.03220668185989557 -0.08686616499861259
    vertex -0.9586456133982626 -0.2476101706143896 0.1403131901161881
  endloop
endfacet
facet normal 0.639518 -0.471207 0.607438
  outer loop
    vertex 0.55219172982272 -0.6317953201730713 0.5439843443728861
    vertex 0.7574774460966084 -0.4690936406863243 0.4540694604601915
    vertex 0.685322405277385 -0.2928208029309654 0.6667752081441575
  endloop
endfacet
facet normal 0.536451 -0.36075 -0.762941
  outer loop
    vertex 0.6808812905080636 -0.269817227902308 -0.6808812905075216
    vertex 0.4739481947789234 -0.5293924234068548 -0.7036453444066955
    vertex 0.391496540662427 -0.3014462638232502 -0.8694024434497272
  endloop
endfacet
facet normal -0.174569 0.0477413 -0.983487
  outer loop
    vertex -0.233024568172449 -0.1115831027047554 -0.966048012170629
    vertex -0.3371362157944511 0.07345716800403559 -0.9385857533910389
    vertex -0.1640912914753796 0.2167049808141465 -0.9623476499437625
  endloop
endfacet
facet normal 0.736228 -0.668974 0.102186
  outer loop
    vertex 0.6078566966193282 -0.7925176125263256 0.0492551541527458
    vertex 0.8408353902112926 -0.541018680437651 0.01716490564279749
    vertex 0.7102310226077332 -0.6439167347748631 0.2845050670945111
  endloop
endfacet
facet normal -0.564361 -0.373007 0.736452
  outer loop
    vertex -0.4565087744430903 -0.2464928860789171 0.8548923885314184
    vertex -0.7037714900177229 -0.3968250268265542 0.5892669920522774
    vertex -0.4517659826706601 -0.5410907014295031 0.7093154091997023
  endloop
endfacet
facet normal -0.152313 -0.296701 -0.942746
  outer loop
    vertex -0.2913090156763929 -0.419613266934894 -0.8596881781191809
    vertex -0.233024568172449 -0.1115831027047554 -0.966048012170629
    vertex 0.04996630336553891 -0.2831631207851517 -0.9577692914033089
  endloop
endfacet
facet normal -0.619723 -0.277701 0.734048
  outer loop
    vertex -0.7057058110743025 -0.09381730085060203 0.702266062313329
    vertex -0.7037714900177229 -0.3968250268265542 0.5892669920522774
    vertex -0.4565087744430903 -0.2464928860789171 0.8548923885314184
  endloop
endfacet
facet normal 0.729883 -0.682016 -0.0460923
  outer loop
    vertex 0.6803497399228282 -0.6961159003600592 -0.2292310726163537
    vertex 0.8408353902112926 -0.541018680437651 0.01716490564279749
    vertex 0.6078566966193282 -0.7925176125263256 0.0492551541527458
  endloop
endfacet
facet normal -0.473172 0.635493 0.610128
  outer loop
    vertex -0.6185266740137045 0.5068728404409335 0.6004204170053552
    vertex -0.3045095401615534 0.6387334073910216 0.7066070861753755
    vertex -0.4936021805890591 0.7440636086046404 0.4502513005733203
  endloop
endfacet
facet normal 0.283214 -0.407011 0.868407
  outer loop
    vertex 0.4059825621538242 -0.5243751564267813 0.7484710111616913
    vertex 0.4373988073909275 -0.2678750643047949 0.8584434944809682
    vertex 0.1506325540503649 -0.2698172279019947 0.9510565162951921
  endloop
endfacet
facet normal 0.0588119 -0.437171 0.897453
  outer loop
    vertex 0.1506325540503649 -0.2698172279019947 0.9510565162951921
    vertex -0.1381278727266953 -0.4143274816563114 0.8995851425631355
    vertex 0.1108658735362036 -0.5979796858092796 0.7938066851850579
  endloop
endfacet
facet normal 0.236046 -0.19337 -0.952308
  outer loop
    vertex 0.391496540662427 -0.3014462638232502 -0.8694024434497272
    vertex 0.04996630336553891 -0.2831631207851517 -0.9577692914033089
    vertex 0.3090169943749472 -7.568483495013084e-17 -0.9510565162951536
  endloop
endfacet
facet normal 0.0456834 -0.728993 -0.682995
  outer loop
    vertex -0.05423488905810828 -0.6113366436913381 -0.7895100283651023
    vertex 0.2244894690317199 -0.7446103233544848 -0.6286174867499201
    vertex -0.07226205580291262 -0.8194255120417735 -0.5686123684077001
  endloop
endfacet
facet normal -0.166877 0.972307 0.163619
  outer loop
    vertex -0.0499981598272819 0.998579120186614 0.0184370480612704
    vertex -0.3313218691886898 0.9403034706117677 0.07781517944962499
    vertex -0.1112712207580752 0.9340633451718917 0.3393293129650063
  endloop
endfacet
facet normal 0.155326 -0.118851 -0.980688
  outer loop
    vertex 0.3090169943749472 -7.568483495013084e-17 -0.9510565162951536
    vertex 0.04996630336553891 -0.2831631207851517 -0.9577692914033089
    vertex 6.123031769111886e-17 -1.499660721822137e-32 -1
  endloop
endfacet
facet normal 0.535665 0.831039 0.149791
  outer loop
    vertex 0.3987629806797778 0.8791155401482501 0.26104396623793
    vertex 0.6389082562301107 0.7250209783930016 0.2571785780562871
    vertex 0.5070244543149978 0.8614698921523507 -0.02821041725313362
  endloop
endfacet
facet normal 0.633058 0.770386 0.0757851
  outer loop
    vertex 0.6389082562301107 0.7250209783930016 0.2571785780562871
    vertex 0.7537113685284267 0.6571062038930877 -0.01142846254848288
    vertex 0.5070244543149978 0.8614698921523507 -0.02821041725313362
  endloop
endfacet
facet normal -0.284132 -0.512897 0.810065
  outer loop
    vertex -0.4517659826706601 -0.5410907014295031 0.7093154091997023
    vertex -0.178993591985866 -0.6597352878365073 0.7298702925940186
    vertex -0.1381278727266953 -0.4143274816563114 0.8995851425631355
  endloop
endfacet
facet normal 0.526679 0.322573 0.786483
  outer loop
    vertex 0.6808812905078324 0.2698172279020885 0.6808812905078397
    vertex 0.4738980672274495 0.4992005973793977 0.7254098051819675
    vertex 0.3889462625001999 0.2341541772868659 0.8910065241883678
  endloop
endfacet
facet normal -0.140634 0.0662991 0.987839
  outer loop
    vertex -0.2112783172059116 -0.153382003670688 0.965316235038344
    vertex -0.0153026165363577 0.2600757343358739 0.9654669555902973
    vertex -0.270892585421232 0.2491202243918524 0.9298152079648696
  endloop
endfacet
facet normal 0.557946 0.191015 0.807595
  outer loop
    vertex 0.5877852522924734 -1.439611109280904e-16 0.8090169943749472
    vertex 0.6808812905078324 0.2698172279020885 0.6808812905078397
    vertex 0.3889462625001999 0.2341541772868659 0.8910065241883678
  endloop
endfacet
facet normal -0.464389 0.541662 0.700675
  outer loop
    vertex -0.4534997053064416 0.3856782126587359 0.803486361780543
    vertex -0.3045095401615534 0.6387334073910216 0.7066070861753755
    vertex -0.6185266740137045 0.5068728404409335 0.6004204170053552
  endloop
endfacet
facet normal 0.0358692 -0.464943 -0.884614
  outer loop
    vertex 0.2021926803898415 -0.5429832497446559 -0.8150382264001511
    vertex -0.05423488905810828 -0.6113366436913381 -0.7895100283651023
    vertex 0.04996630336553891 -0.2831631207851517 -0.9577692914033089
  endloop
endfacet
facet normal 0.450908 -0.116338 -0.884956
  outer loop
    vertex 0.5877852522924729 -1.439611109280903e-16 -0.8090169943749476
    vertex 0.391496540662427 -0.3014462638232502 -0.8694024434497272
    vertex 0.3090169943749472 -7.568483495013084e-17 -0.9510565162951536
  endloop
endfacet
facet normal 0.363764 0.928089 0.0795318
  outer loop
    vertex 0.5070244543149978 0.8614698921523507 -0.02821041725313362
    vertex 0.2310222132868079 0.9716074546594287 -0.05106555608520081
    vertex 0.3987629806797778 0.8791155401482501 0.26104396623793
  endloop
endfacet
facet normal 0.102361 -0.837064 -0.537444
  outer loop
    vertex -0.07226205580291262 -0.8194255120417735 -0.5686123684077001
    vertex 0.2244894690317199 -0.7446103233544848 -0.6286174867499201
    vertex 0.207171921853724 -0.8910977872583709 -0.4037629605829014
  endloop
endfacet
facet normal -0.244918 0.55723 -0.793416
  outer loop
    vertex -0.07405122840043871 0.5054162015137651 -0.8596923163666076
    vertex -0.3840701949162078 0.4294194126878061 -0.8173671472379385
    vertex -0.334297054136236 0.6669189118140504 -0.6659314113785273
  endloop
endfacet
facet normal -0.927582 -0.0256179 0.372741
  outer loop
    vertex -0.8761586809986353 -0.190734597646838 0.4426807867653966
    vertex -0.8567881851877385 0.07970270332646655 0.5094717703711903
    vertex -0.960841036489871 0.1133726784406377 0.2528460764581213
  endloop
endfacet
facet normal -0.0239292 0.341538 -0.939563
  outer loop
    vertex 0.1506325540504112 0.2698172279021036 -0.9510565162951539
    vertex -0.1640912914753796 0.2167049808141465 -0.9623476499437625
    vertex -0.07405122840043871 0.5054162015137651 -0.8596923163666076
  endloop
endfacet
facet normal -0.773504 -0.225787 0.592209
  outer loop
    vertex -0.7057058110743025 -0.09381730085060203 0.702266062313329
    vertex -0.8761586809986353 -0.190734597646838 0.4426807867653966
    vertex -0.7037714900177229 -0.3968250268265542 0.5892669920522774
  endloop
endfacet
facet normal -0.169473 0.633081 -0.755306
  outer loop
    vertex -0.334297054136236 0.6669189118140504 -0.6659314113785273
    vertex -0.03401751743265782 0.7388296699125475 -0.6730330804385734
    vertex -0.07405122840043871 0.5054162015137651 -0.8596923163666076
  endloop
endfacet
facet normal 0.53936 -0.386761 0.748002
  outer loop
    vertex 0.685322405277385 -0.2928208029309654 0.6667752081441575
    vertex 0.4373988073909275 -0.2678750643047949 0.8584434944809682
    vertex 0.4059825621538242 -0.5243751564267813 0.7484710111616913
  endloop
endfacet
facet normal 0.62793 -0.444564 -0.638802
  outer loop
    vertex 0.6808812905080636 -0.269817227902308 -0.6808812905075216
    vertex 0.7041982438596451 -0.5188857457648069 -0.4846260580974696
    vertex 0.4739481947789234 -0.5293924234068548 -0.7036453444066955
  endloop
endfacet
facet normal 0.35607 -0.461902 -0.812318
  outer loop
    vertex 0.4739481947789234 -0.5293924234068548 -0.7036453444066955
    vertex 0.2021926803898415 -0.5429832497446559 -0.8150382264001511
    vertex 0.391496540662427 -0.3014462638232502 -0.8694024434497272
  endloop
endfacet
facet normal -0.92851 -0.37118 0.0097277
  outer loop
    vertex -0.9257844663994027 -0.3379317127308226 -0.1694853365468115
    vertex -0.8457959829933268 -0.5329348769736906 0.02468951310555135
    vertex -0.9586456133982626 -0.2476101706143896 0.1403131901161881
  endloop
endfacet
facet normal 0.0966695 0.438662 -0.893438
  outer loop
    vertex -0.07405122840043871 0.5054162015137651 -0.8596923163666076
    vertex 0.2777458608908702 0.4473740753297032 -0.8501256809912771
    vertex 0.1506325540504112 0.2698172279021036 -0.9510565162951539
  endloop
endfacet
facet normal 0.113621 0.552575 -0.825682
  outer loop
    vertex 0.2357947285165997 0.658824635786727 -0.7143885114447667
    vertex 0.2777458608908702 0.4473740753297032 -0.8501256809912771
    vertex -0.07405122840043871 0.5054162015137651 -0.8596923163666076
  endloop
endfacet
facet normal -0.0442 -0.25566 0.965756
  outer loop
    vertex 0.1506325540503649 -0.2698172279019947 0.9510565162951921
    vertex -0.2112783172059116 -0.153382003670688 0.965316235038344
    vertex -0.1381278727266953 -0.4143274816563114 0.8995851425631355
  endloop
endfacet
facet normal 0.301814 0.946019 0.11814
  outer loop
    vertex 0.2310222132868079 0.9716074546594287 -0.05106555608520081
    vertex 0.1424591782153286 0.967250517727291 0.2100757446696327
    vertex 0.3987629806797778 0.8791155401482501 0.26104396623793
  endloop
endfacet
facet normal -0.526112 0.366247 -0.767508
  outer loop
    vertex -0.3840701949162078 0.4294194126878061 -0.8173671472379385
    vertex -0.6413204769395399 0.2599514480594426 -0.7218956230022731
    vertex -0.5825157842085856 0.4749893994253764 -0.6595911093862444
  endloop
endfacet
facet normal -0.498197 0.624437 -0.601563
  outer loop
    vertex -0.5825157842085856 0.4749893994253764 -0.6595911093862444
    vertex -0.6219385492950052 0.6268576496856361 -0.4692994011624398
    vertex -0.334297054136236 0.6669189118140504 -0.6659314113785273
  endloop
endfacet
facet normal -0.464365 0.705344 -0.535588
  outer loop
    vertex -0.334297054136236 0.6669189118140504 -0.6659314113785273
    vertex -0.6219385492950052 0.6268576496856361 -0.4692994011624398
    vertex -0.458127706046136 0.8052830163813446 -0.3763485996794304
  endloop
endfacet
facet normal -0.464261 -0.0188464 -0.885498
  outer loop
    vertex -0.5820896332424541 0.07019926284965469 -0.8100887126525281
    vertex -0.3371362157944511 0.07345716800403559 -0.9385857533910389
    vertex -0.4912556019442688 -0.1790819517314388 -0.8524069381008303
  endloop
endfacet
facet normal -0.51484 0.33758 -0.788023
  outer loop
    vertex -0.3840701949162078 0.4294194126878061 -0.8173671472379385
    vertex -0.4382998732858046 0.2209182761000506 -0.8712567568533569
    vertex -0.6413204769395399 0.2599514480594426 -0.7218956230022731
  endloop
endfacet
facet normal 0.562237 -0.606702 -0.561963
  outer loop
    vertex 0.7041982438596451 -0.5188857457648069 -0.4846260580974696
    vertex 0.482860198413478 -0.7417399620374475 -0.4654759472892047
    vertex 0.4739481947789234 -0.5293924234068548 -0.7036453444066955
  endloop
endfacet
facet normal 0.213939 -0.371059 -0.903629
  outer loop
    vertex 0.2021926803898415 -0.5429832497446559 -0.8150382264001511
    vertex 0.04996630336553891 -0.2831631207851517 -0.9577692914033089
    vertex 0.391496540662427 -0.3014462638232502 -0.8694024434497272
  endloop
endfacet
facet normal -0.2389 0.944957 0.22357
  outer loop
    vertex -0.3313218691886898 0.9403034706117677 0.07781517944962499
    vertex -0.3656113625927005 0.8748998732552987 0.3176138273453646
    vertex -0.1112712207580752 0.9340633451718917 0.3393293129650063
  endloop
endfacet
facet normal -0.44072 0.546448 -0.712152
  outer loop
    vertex -0.3840701949162078 0.4294194126878061 -0.8173671472379385
    vertex -0.5825157842085856 0.4749893994253764 -0.6595911093862444
    vertex -0.334297054136236 0.6669189118140504 -0.6659314113785273
  endloop
endfacet
facet normal -0.195997 0.756856 -0.623501
  outer loop
    vertex -0.1575369519633498 0.8567850327952 -0.4910208919630867
    vertex -0.03401751743265782 0.7388296699125475 -0.6730330804385734
    vertex -0.334297054136236 0.6669189118140504 -0.6659314113785273
  endloop
endfacet
facet normal 0.632576 -0.662715 -0.400819
  outer loop
    vertex 0.7041982438596451 -0.5188857457648069 -0.4846260580974696
    vertex 0.6803497399228282 -0.6961159003600592 -0.2292310726163537
    vertex 0.482860198413478 -0.7417399620374475 -0.4654759472892047
  endloop
endfacet
facet normal -0.0308406 0.981037 0.19135
  outer loop
    vertex -0.1112712207580752 0.9340633451718917 0.3393293129650063
    vertex 0.1424591782153286 0.967250517727291 0.2100757446696327
    vertex -0.0499981598272819 0.998579120186614 0.0184370480612704
  endloop
endfacet
facet normal 0.983641 -0.0904376 -0.155793
  outer loop
    vertex 1 -2.449212707644755e-16 -2.449212707644755e-16
    vertex 0.9518488792142712 -0.2683431703073597 -0.148241876971155
    vertex 0.9510565162951535 -2.32933970539844e-16 -0.3090169943749476
  endloop
endfacet
facet normal 0.539726 -0.786867 -0.299224
  outer loop
    vertex 0.6803497399228282 -0.6961159003600592 -0.2292310726163537
    vertex 0.4269018964625456 -0.8830861588370303 -0.1947141670940795
    vertex 0.482860198413478 -0.7417399620374475 -0.4654759472892047
  endloop
endfacet
facet normal 0.37879 -0.850226 -0.36556
  outer loop
    vertex 0.4269018964625456 -0.8830861588370303 -0.1947141670940795
    vertex 0.207171921853724 -0.8910977872583709 -0.4037629605829014
    vertex 0.482860198413478 -0.7417399620374475 -0.4654759472892047
  endloop
endfacet
facet normal 0.577279 -0.806318 -0.128846
  outer loop
    vertex 0.6803497399228282 -0.6961159003600592 -0.2292310726163537
    vertex 0.6078566966193282 -0.7925176125263256 0.0492551541527458
    vertex 0.4269018964625456 -0.8830861588370303 -0.1947141670940795
  endloop
endfacet
facet normal 0.105019 -0.668837 -0.735954
  outer loop
    vertex 0.2021926803898415 -0.5429832497446559 -0.8150382264001511
    vertex 0.2244894690317199 -0.7446103233544848 -0.6286174867499201
    vertex -0.05423488905810828 -0.6113366436913381 -0.7895100283651023
  endloop
endfacet
facet normal 0.462047 -0.886752 -0.0135172
  outer loop
    vertex 0.6078566966193282 -0.7925176125263256 0.0492551541527458
    vertex 0.3192869999066135 -0.9434822523650261 0.08886535411987781
    vertex 0.4269018964625456 -0.8830861588370303 -0.1947141670940795
  endloop
endfacet
facet normal 0.47463 -0.866082 0.156935
  outer loop
    vertex 0.6078566966193282 -0.7925176125263256 0.0492551541527458
    vertex 0.4631210832028053 -0.8196729675532841 0.3371277036309135
    vertex 0.3192869999066135 -0.9434822523650261 0.08886535411987781
  endloop
endfacet
facet normal 0.322221 -0.908422 0.26635
  outer loop
    vertex 0.4631210832028053 -0.8196729675532841 0.3371277036309135
    vertex 0.1668291135951629 -0.9185039722168548 0.3584947696674411
    vertex 0.3192869999066135 -0.9434822523650261 0.08886535411987781
  endloop
endfacet
facet normal 0.596106 -0.77013 0.227061
  outer loop
    vertex 0.6078566966193282 -0.7925176125263256 0.0492551541527458
    vertex 0.7102310226077332 -0.6439167347748631 0.2845050670945111
    vertex 0.4631210832028053 -0.8196729675532841 0.3371277036309135
  endloop
endfacet
facet normal 0.312792 -0.84322 0.437197
  outer loop
    vertex 0.4631210832028053 -0.8196729675532841 0.3371277036309135
    vertex 0.2963764685572976 -0.7492175201159263 0.5923124989706418
    vertex 0.1668291135951629 -0.9185039722168548 0.3584947696674411
  endloop
endfacet
facet normal 0.153326 -0.838823 0.522366
  outer loop
    vertex 0.2963764685572976 -0.7492175201159263 0.5923124989706418
    vertex -0.01151621271388377 -0.8047852501306865 0.5934543605171479
    vertex 0.1668291135951629 -0.9185039722168548 0.3584947696674411
  endloop
endfacet
facet normal 0.00457405 -0.898741 0.438456
  outer loop
    vertex -0.01151621271388377 -0.8047852501306865 0.5934543605171479
    vertex -0.1449408526526504 -0.929414586265331 0.33938278693765
    vertex 0.1668291135951629 -0.9185039722168548 0.3584947696674411
  endloop
endfacet
facet normal 0.134115 -0.729325 0.670894
  outer loop
    vertex 0.2963764685572976 -0.7492175201159263 0.5923124989706418
    vertex 0.1108658735362036 -0.5979796858092796 0.7938066851850579
    vertex -0.01151621271388377 -0.8047852501306865 0.5934543605171479
  endloop
endfacet
facet normal 0.269533 -0.634505 0.7244
  outer loop
    vertex 0.2963764685572976 -0.7492175201159263 0.5923124989706418
    vertex 0.4059825621538242 -0.5243751564267813 0.7484710111616913
    vertex 0.1108658735362036 -0.5979796858092796 0.7938066851850579
  endloop
endfacet
facet normal -0.161265 -0.849933 0.501604
  outer loop
    vertex -0.01151621271388377 -0.8047852501306865 0.5934543605171479
    vertex -0.3193806648843877 -0.7736563704147051 0.5472219032666283
    vertex -0.1449408526526504 -0.929414586265331 0.33938278693765
  endloop
endfacet
facet normal -0.306874 -0.867142 0.392291
  outer loop
    vertex -0.3193806648843877 -0.7736563704147051 0.5472219032666283
    vertex -0.4411575060193106 -0.8555630943549807 0.27090929563334
    vertex -0.1449408526526504 -0.929414586265331 0.33938278693765
  endloop
endfacet
facet normal -0.460762 -0.774866 0.43276
  outer loop
    vertex -0.3193806648843877 -0.7736563704147051 0.5472219032666283
    vertex -0.6024872384094987 -0.6616374909795525 0.4463686347448468
    vertex -0.4411575060193106 -0.8555630943549807 0.27090929563334
  endloop
endfacet
facet normal -0.285691 -0.929454 0.233444
  outer loop
    vertex -0.4411575060193106 -0.8555630943549807 0.27090929563334
    vertex -0.2520317821155719 -0.9655776333114671 0.06434139299296189
    vertex -0.1449408526526504 -0.929414586265331 0.33938278693765
  endloop
endfacet
facet normal -0.577637 -0.756966 0.305513
  outer loop
    vertex -0.6024872384094987 -0.6616374909795525 0.4463686347448468
    vertex -0.6818600116196798 -0.7096780766529219 0.1772680232648279
    vertex -0.4411575060193106 -0.8555630943549807 0.27090929563334
  endloop
endfacet
facet normal -0.469868 -0.668922 0.575993
  outer loop
    vertex -0.3193806648843877 -0.7736563704147051 0.5472219032666283
    vertex -0.4517659826706601 -0.5410907014295031 0.7093154091997023
    vertex -0.6024872384094987 -0.6616374909795525 0.4463686347448468
  endloop
endfacet
facet normal -0.332789 0.787583 -0.518617
  outer loop
    vertex -0.1575369519633498 0.8567850327952 -0.4910208919630867
    vertex -0.334297054136236 0.6669189118140504 -0.6659314113785273
    vertex -0.458127706046136 0.8052830163813446 -0.3763485996794304
  endloop
endfacet
facet normal -0.649795 -0.515266 -0.558809
  outer loop
    vertex -0.5593500129107508 -0.4437770273981453 -0.7001353533499138
    vertex -0.585690750006683 -0.6607543575336932 -0.4694358575533462
    vertex -0.7762073664701102 -0.4125200640005379 -0.4767906469662846
  endloop
endfacet
facet normal -0.716759 -0.618604 0.321847
  outer loop
    vertex -0.6024872384094987 -0.6616374909795525 0.4463686347448468
    vertex -0.8210187374962711 -0.4792872111235154 0.3101805956752803
    vertex -0.6818600116196798 -0.7096780766529219 0.1772680232648279
  endloop
endfacet
facet normal -0.724462 0.358436 0.588794
  outer loop
    vertex -0.8314372301144682 0.3362564043040092 0.442316360701387
    vertex -0.684130013477193 0.2164406250204378 0.6965052623637943
    vertex -0.6185266740137045 0.5068728404409335 0.6004204170053552
  endloop
endfacet
facet normal -0.594007 -0.545999 0.590796
  outer loop
    vertex -0.4517659826706601 -0.5410907014295031 0.7093154091997023
    vertex -0.7037714900177229 -0.3968250268265542 0.5892669920522774
    vertex -0.6024872384094987 -0.6616374909795525 0.4463686347448468
  endloop
endfacet
facet normal -0.696124 -0.349772 -0.626954
  outer loop
    vertex -0.7184611738704323 -0.1757583371594746 -0.6729952069366149
    vertex -0.5593500129107508 -0.4437770273981453 -0.7001353533499138
    vertex -0.7762073664701102 -0.4125200640005379 -0.4767906469662846
  endloop
endfacet
facet normal 0.479782 0.788501 -0.384806
  outer loop
    vertex 0.4405911090070682 0.7120882945736526 -0.5466349196631228
    vertex 0.3478494759222635 0.886814762422513 -0.3042372745902586
    vertex 0.620507897993787 0.7316669195114127 -0.2821940244229347
  endloop
endfacet
facet normal -0.503788 -0.599798 -0.621643
  outer loop
    vertex -0.5593500129107508 -0.4437770273981453 -0.7001353533499138
    vertex -0.3380641081994782 -0.662649652323639 -0.6682874359305671
    vertex -0.585690750006683 -0.6607543575336932 -0.4694358575533462
  endloop
endfacet
facet normal 0.592004 0.667137 -0.452173
  outer loop
    vertex 0.6846144597997368 0.5194986425839152 -0.5112965888665638
    vertex 0.4405911090070682 0.7120882945736526 -0.5466349196631228
    vertex 0.620507897993787 0.7316669195114127 -0.2821940244229347
  endloop
endfacet
facet normal -0.624883 0.625177 0.467627
  outer loop
    vertex -0.6185266740137045 0.5068728404409335 0.6004204170053552
    vertex -0.4936021805890591 0.7440636086046404 0.4502513005733203
    vertex -0.7278397711607846 0.6043963774523196 0.3239664896854766
  endloop
endfacet
facet normal 0.496353 0.842622 -0.20886
  outer loop
    vertex 0.3478494759222635 0.886814762422513 -0.3042372745902586
    vertex 0.5070244543149978 0.8614698921523507 -0.02821041725313362
    vertex 0.620507897993787 0.7316669195114127 -0.2821940244229347
  endloop
endfacet
facet normal 0.321642 0.822203 -0.469604
  outer loop
    vertex 0.4405911090070682 0.7120882945736526 -0.5466349196631228
    vertex 0.1536758657290713 0.8327286025426959 -0.5319274412922398
    vertex 0.3478494759222635 0.886814762422513 -0.3042372745902586
  endloop
endfacet
facet normal -0.630576 0.0582216 0.77394
  outer loop
    vertex -0.684130013477193 0.2164406250204378 0.6965052623637943
    vertex -0.7057058110743025 -0.09381730085060203 0.702266062313329
    vertex -0.4776027689615587 0.06493793723528796 0.8761727337619436
  endloop
endfacet
facet normal 0.703022 -0.10733 0.703022
  outer loop
    vertex 0.5877852522924734 -1.439611109280904e-16 0.8090169943749472
    vertex 0.685322405277385 -0.2928208029309654 0.6667752081441575
    vertex 0.8090169943749476 -1.981454703323686e-16 0.5877852522924729
  endloop
endfacet
facet normal -0.402868 -0.517188 -0.755125
  outer loop
    vertex -0.5593500129107508 -0.4437770273981453 -0.7001353533499138
    vertex -0.2913090156763929 -0.419613266934894 -0.8596881781191809
    vertex -0.3380641081994782 -0.662649652323639 -0.6682874359305671
  endloop
endfacet
facet normal 0.287053 0.754622 -0.59004
  outer loop
    vertex 0.4405911090070682 0.7120882945736526 -0.5466349196631228
    vertex 0.2357947285165997 0.658824635786727 -0.7143885114447667
    vertex 0.1536758657290713 0.8327286025426959 -0.5319274412922398
  endloop
endfacet
facet normal -0.23168 -0.573975 -0.785415
  outer loop
    vertex -0.2913090156763929 -0.419613266934894 -0.8596881781191809
    vertex -0.05423488905810828 -0.6113366436913381 -0.7895100283651023
    vertex -0.3380641081994782 -0.662649652323639 -0.6682874359305671
  endloop
endfacet
facet normal -0.454786 -0.353303 -0.817525
  outer loop
    vertex -0.5593500129107508 -0.4437770273981453 -0.7001353533499138
    vertex -0.4912556019442688 -0.1790819517314388 -0.8524069381008303
    vertex -0.2913090156763929 -0.419613266934894 -0.8596881781191809
  endloop
endfacet
facet normal 0.704144 -0.0914433 -0.704144
  outer loop
    vertex 0.8090169943749473 -1.981454703323686e-16 -0.5877852522924734
    vertex 0.6808812905080636 -0.269817227902308 -0.6808812905075216
    vertex 0.5877852522924729 -1.439611109280903e-16 -0.8090169943749476
  endloop
endfacet
facet normal 0.452088 0.0914433 -0.887273
  outer loop
    vertex 0.3090169943749472 -7.568483495013084e-17 -0.9510565162951536
    vertex 0.4371526982420632 0.2698172279021049 -0.8579604780797931
    vertex 0.5877852522924729 -1.439611109280903e-16 -0.8090169943749476
  endloop
endfacet
facet normal 0.155779 0.0914433 -0.98355
  outer loop
    vertex 6.123031769111886e-17 -1.499660721822137e-32 -1
    vertex 0.1506325540504112 0.2698172279021036 -0.9510565162951539
    vertex 0.3090169943749472 -7.568483495013084e-17 -0.9510565162951536
  endloop
endfacet
facet normal 0.984038 -0.0858958 0.155856
  outer loop
    vertex 0.9510565162951536 -2.329339705398441e-16 0.3090169943749472
    vertex 0.9536711670372647 -0.2618038116448057 0.1482230392686391
    vertex 1 -2.449212707644755e-16 -2.449212707644755e-16
  endloop
endfacet
facet normal 0.88713 0.0931788 0.452015
  outer loop
    vertex 0.9510565162951536 -2.329339705398441e-16 0.3090169943749472
    vertex 0.8657568545927664 0.2714089918825375 0.420478570025803
    vertex 0.8090169943749476 -1.981454703323686e-16 0.5877852522924729
  endloop
endfacet
facet normal -0.428898 -0.733624 -0.527107
  outer loop
    vertex -0.3380641081994782 -0.662649652323639 -0.6682874359305671
    vertex -0.3391866535712953 -0.8447747559566197 -0.4138937372533436
    vertex -0.585690750006683 -0.6607543575336932 -0.4694358575533462
  endloop
endfacet
facet normal 0.704144 0.0914433 0.704144
  outer loop
    vertex 0.8090169943749476 -1.981454703323686e-16 0.5877852522924729
    vertex 0.6808812905078324 0.2698172279020885 0.6808812905078397
    vertex 0.5877852522924734 -1.439611109280904e-16 0.8090169943749472
  endloop
endfacet
facet normal -0.81874 -0.0646708 -0.57051
  outer loop
    vertex -0.799532102494897 0.1146814078101863 -0.5895732285159863
    vertex -0.7184611738704323 -0.1757583371594746 -0.6729952069366149
    vertex -0.8978238240410188 -0.1297440388867525 -0.4208073969855028
  endloop
endfacet
facet normal -0.810836 -0.243344 -0.532287
  outer loop
    vertex -0.7184611738704323 -0.1757583371594746 -0.6729952069366149
    vertex -0.7762073664701102 -0.4125200640005379 -0.4767906469662846
    vertex -0.8978238240410188 -0.1297440388867525 -0.4208073969855028
  endloop
endfacet
facet normal -0.737629 0.490018 0.464528
  outer loop
    vertex -0.8314372301144682 0.3362564043040092 0.442316360701387
    vertex -0.6185266740137045 0.5068728404409335 0.6004204170053552
    vertex -0.7278397711607846 0.6043963774523196 0.3239664896854766
  endloop
endfacet
facet normal -0.897927 0.0600248 -0.436032
  outer loop
    vertex -0.799532102494897 0.1146814078101863 -0.5895732285159863
    vertex -0.8978238240410188 -0.1297440388867525 -0.4208073969855028
    vertex -0.9392815164436272 0.1786421740522196 -0.2929798739115991
  endloop
endfacet
facet normal -0.914043 0.28717 0.286458
  outer loop
    vertex -0.900014019784762 0.4090412595849725 0.1505324288916281
    vertex -0.960841036489871 0.1133726784406377 0.2528460764581213
    vertex -0.8314372301144682 0.3362564043040092 0.442316360701387
  endloop
endfacet
facet normal 0.155779 -0.0914433 0.98355
  outer loop
    vertex 6.123031769111886e-17 -1.499660721822137e-32 1
    vertex 0.1506325540503649 -0.2698172279019947 0.9510565162951921
    vertex 0.3090169943749477 -7.568483495013096e-17 0.9510565162951535
  endloop
endfacet
facet normal -0.832761 0.458622 0.310123
  outer loop
    vertex -0.900014019784762 0.4090412595849725 0.1505324288916281
    vertex -0.8314372301144682 0.3362564043040092 0.442316360701387
    vertex -0.7278397711607846 0.6043963774523196 0.3239664896854766
  endloop
endfacet
facet normal -0.859301 0.233251 -0.455188
  outer loop
    vertex -0.7887446790237514 0.4084501663636738 -0.4594021037274497
    vertex -0.799532102494897 0.1146814078101863 -0.5895732285159863
    vertex -0.9392815164436272 0.1786421740522196 -0.2929798739115991
  endloop
endfacet
facet normal 0.796171 0.183887 -0.576453
  outer loop
    vertex 0.8090169943749473 -1.981454703323686e-16 -0.5877852522924734
    vertex 0.6741037745055017 0.2630486925024996 -0.6902097409991843
    vertex 0.8621574109319819 0.2714058744096292 -0.4278124006045246
  endloop
endfacet
facet normal -0.80908 0.562791 0.169279
  outer loop
    vertex -0.900014019784762 0.4090412595849725 0.1505324288916281
    vertex -0.7278397711607846 0.6043963774523196 0.3239664896854766
    vertex -0.7568761073217597 0.6531501442115223 0.02309647769526187
  endloop
endfacet
facet normal 0.887167 0.0927348 -0.452034
  outer loop
    vertex 0.8090169943749473 -1.981454703323686e-16 -0.5877852522924734
    vertex 0.8621574109319819 0.2714058744096292 -0.4278124006045246
    vertex 0.9510565162951535 -2.32933970539844e-16 -0.3090169943749476
  endloop
endfacet
facet normal -0.882014 0.346479 -0.31938
  outer loop
    vertex -0.7887446790237514 0.4084501663636738 -0.4594021037274497
    vertex -0.9392815164436272 0.1786421740522196 -0.2929798739115991
    vertex -0.8878442889631053 0.4309343740108813 -0.1613322157891841
  endloop
endfacet
facet normal 0.721978 0.596589 -0.350471
  outer loop
    vertex 0.6846144597997368 0.5194986425839152 -0.5112965888665638
    vertex 0.620507897993787 0.7316669195114127 -0.2821940244229347
    vertex 0.8297746977887018 0.5064666913657262 -0.2344470973305552
  endloop
endfacet
facet normal -0.497127 -0.780398 -0.379268
  outer loop
    vertex -0.3391866535712953 -0.8447747559566197 -0.4138937372533436
    vertex -0.5605025443645661 -0.7988795189527387 -0.2182393455788585
    vertex -0.585690750006683 -0.6607543575336932 -0.4694358575533462
  endloop
endfacet
facet normal -0.80606 0.506469 -0.306196
  outer loop
    vertex -0.7105486922719504 0.654603915755368 -0.2580974029089796
    vertex -0.7887446790237514 0.4084501663636738 -0.4594021037274497
    vertex -0.8878442889631053 0.4309343740108813 -0.1613322157891841
  endloop
endfacet
facet normal -0.862199 0.506567 0.00191623
  outer loop
    vertex -0.8878442889631053 0.4309343740108813 -0.1613322157891841
    vertex -0.900014019784762 0.4090412595849725 0.1505324288916281
    vertex -0.7568761073217597 0.6531501442115223 0.02309647769526187
  endloop
endfacet
facet normal -0.421025 0.879124 -0.223335
  outer loop
    vertex -0.458127706046136 0.8052830163813446 -0.3763485996794304
    vertex -0.5379039376782627 0.8368487079319649 -0.1017034604269706
    vertex -0.2599496476368965 0.9429074378692498 -0.2082108169723659
  endloop
endfacet
facet normal -0.561307 -0.0942024 0.822229
  outer loop
    vertex -0.7057058110743025 -0.09381730085060203 0.702266062313329
    vertex -0.4565087744430903 -0.2464928860789171 0.8548923885314184
    vertex -0.4776027689615587 0.06493793723528796 0.8761727337619436
  endloop
endfacet
facet normal -0.0904846 0.98333 -0.157717
  outer loop
    vertex -0.2599496476368965 0.9429074378692498 -0.2082108169723659
    vertex -0.0499981598272819 0.998579120186614 0.0184370480612704
    vertex 0.04498669348038302 0.9600821103420575 -0.2760770523075821
  endloop
endfacet
facet normal -0.803565 0.580984 -0.129386
  outer loop
    vertex -0.7105486922719504 0.654603915755368 -0.2580974029089796
    vertex -0.8878442889631053 0.4309343740108813 -0.1613322157891841
    vertex -0.7568761073217597 0.6531501442115223 0.02309647769526187
  endloop
endfacet
facet normal 0.803555 0.440244 -0.400604
  outer loop
    vertex 0.6846144597997368 0.5194986425839152 -0.5112965888665638
    vertex 0.8297746977887018 0.5064666913657262 -0.2344470973305552
    vertex 0.8621574109319819 0.2714058744096292 -0.4278124006045246
  endloop
endfacet
facet normal -0.252258 -0.786282 -0.564027
  outer loop
    vertex -0.3380641081994782 -0.662649652323639 -0.6682874359305671
    vertex -0.07226205580291262 -0.8194255120417735 -0.5686123684077001
    vertex -0.3391866535712953 -0.8447747559566197 -0.4138937372533436
  endloop
endfacet
facet normal -0.581375 0.771789 -0.257576
  outer loop
    vertex -0.458127706046136 0.8052830163813446 -0.3763485996794304
    vertex -0.7105486922719504 0.654603915755368 -0.2580974029089796
    vertex -0.5379039376782627 0.8368487079319649 -0.1017034604269706
  endloop
endfacet
facet normal 0.754712 0.354289 -0.552167
  outer loop
    vertex 0.6741037745055017 0.2630486925024996 -0.6902097409991843
    vertex 0.6846144597997368 0.5194986425839152 -0.5112965888665638
    vertex 0.8621574109319819 0.2714058744096292 -0.4278124006045246
  endloop
endfacet
facet normal -0.674175 0.730737 -0.107294
  outer loop
    vertex -0.7105486922719504 0.654603915755368 -0.2580974029089796
    vertex -0.7568761073217597 0.6531501442115223 0.02309647769526187
    vertex -0.5379039376782627 0.8368487079319649 -0.1017034604269706
  endloop
endfacet
facet normal -0.882431 -0.309348 -0.354428
  outer loop
    vertex -0.7762073664701102 -0.4125200640005379 -0.4767906469662846
    vertex -0.9257844663994027 -0.3379317127308226 -0.1694853365468115
    vertex -0.8978238240410188 -0.1297440388867525 -0.4208073969855028
  endloop
endfacet
facet normal -0.293464 0.879705 -0.374162
  outer loop
    vertex -0.1575369519633498 0.8567850327952 -0.4910208919630867
    vertex -0.458127706046136 0.8052830163813446 -0.3763485996794304
    vertex -0.2599496476368965 0.9429074378692498 -0.2082108169723659
  endloop
endfacet
facet normal -0.4314 0.230105 0.872322
  outer loop
    vertex -0.4776027689615587 0.06493793723528796 0.8761727337619436
    vertex -0.270892585421232 0.2491202243918524 0.9298152079648696
    vertex -0.4534997053064416 0.3856782126587359 0.803486361780543
  endloop
endfacet
facet normal -0.54071 0.224363 0.810737
  outer loop
    vertex -0.684130013477193 0.2164406250204378 0.6965052623637943
    vertex -0.4776027689615587 0.06493793723528796 0.8761727337619436
    vertex -0.4534997053064416 0.3856782126587359 0.803486361780543
  endloop
endfacet
facet normal -0.126243 0.935311 -0.33054
  outer loop
    vertex -0.1575369519633498 0.8567850327952 -0.4910208919630867
    vertex -0.2599496476368965 0.9429074378692498 -0.2082108169723659
    vertex 0.04498669348038302 0.9600821103420575 -0.2760770523075821
  endloop
endfacet
facet normal -0.711736 0.00309163 -0.702441
  outer loop
    vertex -0.799532102494897 0.1146814078101863 -0.5895732285159863
    vertex -0.5820896332424541 0.07019926284965469 -0.8100887126525281
    vertex -0.7184611738704323 -0.1757583371594746 -0.6729952069366149
  endloop
endfacet
facet normal -0.600426 0.370141 0.708861
  outer loop
    vertex -0.684130013477193 0.2164406250204378 0.6965052623637943
    vertex -0.4534997053064416 0.3856782126587359 0.803486361780543
    vertex -0.6185266740137045 0.5068728404409335 0.6004204170053552
  endloop
endfacet
facet normal 0.0112794 0.897072 -0.44174
  outer loop
    vertex 0.1536758657290713 0.8327286025426959 -0.5319274412922398
    vertex -0.1575369519633498 0.8567850327952 -0.4910208919630867
    vertex 0.04498669348038302 0.9600821103420575 -0.2760770523075821
  endloop
endfacet
facet normal 0.185116 0.908864 -0.373761
  outer loop
    vertex 0.1536758657290713 0.8327286025426959 -0.5319274412922398
    vertex 0.04498669348038302 0.9600821103420575 -0.2760770523075821
    vertex 0.3478494759222635 0.886814762422513 -0.3042372745902586
  endloop
endfacet
facet normal 0.0597225 0.432824 0.899498
  outer loop
    vertex -0.02239484433456346 0.589635271470399 0.8073591007632599
    vertex -0.0153026165363577 0.2600757343358739 0.9654669555902973
    vertex 0.2449429713396806 0.4801747253110348 0.8422797480432263
  endloop
endfacet
facet normal 0.133326 0.581628 0.802454
  outer loop
    vertex -0.02239484433456346 0.589635271470399 0.8073591007632599
    vertex 0.2449429713396806 0.4801747253110348 0.8422797480432263
    vertex 0.2150620409557343 0.6738945711241912 0.7068340862955722
  endloop
endfacet
facet normal -0.00316953 0.879178 0.476483
  outer loop
    vertex 0.1790835476114245 0.8676345252994707 0.4638312338375551
    vertex -0.1112712207580752 0.9340633451718917 0.3393293129650063
    vertex -0.06464537820434293 0.7825162865518169 0.6192650776186012
  endloop
endfacet
facet normal 0.0508867 0.702953 0.709413
  outer loop
    vertex -0.06464537820434293 0.7825162865518169 0.6192650776186012
    vertex -0.02239484433456346 0.589635271470399 0.8073591007632599
    vertex 0.2150620409557343 0.6738945711241912 0.7068340862955722
  endloop
endfacet
facet normal 0.114195 0.784965 0.608925
  outer loop
    vertex 0.1790835476114245 0.8676345252994707 0.4638312338375551
    vertex -0.06464537820434293 0.7825162865518169 0.6192650776186012
    vertex 0.2150620409557343 0.6738945711241912 0.7068340862955722
  endloop
endfacet
facet normal 0.289542 0.768852 0.570117
  outer loop
    vertex 0.4566416017550372 0.730278646609698 0.5081058411910867
    vertex 0.1790835476114245 0.8676345252994707 0.4638312338375551
    vertex 0.2150620409557343 0.6738945711241912 0.7068340862955722
  endloop
endfacet
facet normal 0.389112 0.646326 0.656395
  outer loop
    vertex 0.4566416017550372 0.730278646609698 0.5081058411910867
    vertex 0.2150620409557343 0.6738945711241912 0.7068340862955722
    vertex 0.4738980672274495 0.4992005973793977 0.7254098051819675
  endloop
endfacet
facet normal -0.334369 -0.250447 -0.908556
  outer loop
    vertex -0.2913090156763929 -0.419613266934894 -0.8596881781191809
    vertex -0.4912556019442688 -0.1790819517314388 -0.8524069381008303
    vertex -0.233024568172449 -0.1115831027047554 -0.966048012170629
  endloop
endfacet
facet normal 0.547489 0.594603 0.588815
  outer loop
    vertex 0.6898941823453502 0.5223093169313345 0.5012374632973512
    vertex 0.4566416017550372 0.730278646609698 0.5081058411910867
    vertex 0.4738980672274495 0.4992005973793977 0.7254098051819675
  endloop
endfacet
facet normal 0.0353804 -0.89318 -0.448305
  outer loop
    vertex 0.207171921853724 -0.8910977872583709 -0.4037629605829014
    vertex -0.08503983511184694 -0.9411648915609133 -0.3270731926301575
    vertex -0.07226205580291262 -0.8194255120417735 -0.5686123684077001
  endloop
endfacet
facet normal 0.984486 -0.17545 -0.00218133
  outer loop
    vertex 1 -2.449212707644755e-16 -2.449212707644755e-16
    vertex 0.9536711670372647 -0.2618038116448057 0.1482230392686391
    vertex 0.9518488792142712 -0.2683431703073597 -0.148241876971155
  endloop
endfacet
facet normal 0.452144 -0.0901021 0.887382
  outer loop
    vertex 0.3090169943749477 -7.568483495013096e-17 0.9510565162951535
    vertex 0.4373988073909275 -0.2678750643047949 0.8584434944809682
    vertex 0.5877852522924734 -1.439611109280904e-16 0.8090169943749472
  endloop
endfacet
facet normal 0.940334 -0.172827 -0.293093
  outer loop
    vertex 0.9518488792142712 -0.2683431703073597 -0.148241876971155
    vertex 0.8676742306612654 -0.2716511003824183 -0.416349743734042
    vertex 0.9510565162951535 -2.32933970539844e-16 -0.3090169943749476
  endloop
endfacet
facet normal 0.807521 0.439332 0.393569
  outer loop
    vertex 0.8657568545927664 0.2714089918825375 0.420478570025803
    vertex 0.8354836676815345 0.500499265942842 0.2268645539260983
    vertex 0.6898941823453502 0.5223093169313345 0.5012374632973512
  endloop
endfacet
facet normal 0.624427 0.437893 0.646793
  outer loop
    vertex 0.6898941823453502 0.5223093169313345 0.5012374632973512
    vertex 0.4738980672274495 0.4992005973793977 0.7254098051819675
    vertex 0.6808812905078324 0.2698172279020885 0.6808812905078397
  endloop
endfacet
facet normal 0.638675 0.762381 -0.10426
  outer loop
    vertex 0.5070244543149978 0.8614698921523507 -0.02821041725313362
    vertex 0.7537113685284267 0.6571062038930877 -0.01142846254848288
    vertex 0.620507897993787 0.7316669195114127 -0.2821940244229347
  endloop
endfacet
facet normal 0.739142 0.647558 -0.185304
  outer loop
    vertex 0.620507897993787 0.7316669195114127 -0.2821940244229347
    vertex 0.7537113685284267 0.6571062038930877 -0.01142846254848288
    vertex 0.8297746977887018 0.5064666913657262 -0.2344470973305552
  endloop
endfacet
facet normal -0.900169 -0.3117 0.3042
  outer loop
    vertex -0.8761586809986353 -0.190734597646838 0.4426807867653966
    vertex -0.9586456133982626 -0.2476101706143896 0.1403131901161881
    vertex -0.8210187374962711 -0.4792872111235154 0.3101805956752803
  endloop
endfacet
facet normal 0.926728 -0.375724 0.00259129
  outer loop
    vertex 0.9536711670372647 -0.2618038116448057 0.1482230392686391
    vertex 0.8408353902112926 -0.541018680437651 0.01716490564279749
    vertex 0.9518488792142712 -0.2683431703073597 -0.148241876971155
  endloop
endfacet
facet normal -0.818844 -0.0816735 0.568175
  outer loop
    vertex -0.7057058110743025 -0.09381730085060203 0.702266062313329
    vertex -0.8567881851877385 0.07970270332646655 0.5094717703711903
    vertex -0.8761586809986353 -0.190734597646838 0.4426807867653966
  endloop
endfacet
facet normal -0.756069 0.288154 -0.587646
  outer loop
    vertex -0.7887446790237514 0.4084501663636738 -0.4594021037274497
    vertex -0.6413204769395399 0.2599514480594426 -0.7218956230022731
    vertex -0.799532102494897 0.1146814078101863 -0.5895732285159863
  endloop
endfacet
facet normal 0.304055 0.178482 -0.935786
  outer loop
    vertex 0.3090169943749472 -7.568483495013084e-17 -0.9510565162951536
    vertex 0.1506325540504112 0.2698172279021036 -0.9510565162951539
    vertex 0.4371526982420632 0.2698172279021049 -0.8579604780797931
  endloop
endfacet
facet normal 0.800978 0.183788 0.569786
  outer loop
    vertex 0.8657568545927664 0.2714089918825375 0.420478570025803
    vertex 0.6808812905078324 0.2698172279020885 0.6808812905078397
    vertex 0.8090169943749476 -1.981454703323686e-16 0.5877852522924729
  endloop
endfacet
facet normal 0.704425 0.0870025 -0.704425
  outer loop
    vertex 0.5877852522924729 -1.439611109280903e-16 -0.8090169943749476
    vertex 0.6741037745055017 0.2630486925024996 -0.6902097409991843
    vertex 0.8090169943749473 -1.981454703323686e-16 -0.5877852522924734
  endloop
endfacet
facet normal 0.93744 -0.175357 0.300759
  outer loop
    vertex 0.9510565162951536 -2.329339705398441e-16 0.3090169943749472
    vertex 0.8618689795326703 -0.2596495829544095 0.4356190493893888
    vertex 0.9536711670372647 -0.2618038116448057 0.1482230392686391
  endloop
endfacet
facet normal 0.589227 -0.185705 0.786337
  outer loop
    vertex 0.5877852522924734 -1.439611109280904e-16 0.8090169943749472
    vertex 0.4373988073909275 -0.2678750643047949 0.8584434944809682
    vertex 0.685322405277385 -0.2928208029309654 0.6667752081441575
  endloop
endfacet
facet normal 0.303502 -0.178158 0.936027
  outer loop
    vertex 0.1506325540503649 -0.2698172279019947 0.9510565162951921
    vertex 0.4373988073909275 -0.2678750643047949 0.8584434944809682
    vertex 0.3090169943749477 -7.568483495013096e-17 0.9510565162951535
  endloop
endfacet
facet normal -0.400862 0.704815 0.585274
  outer loop
    vertex -0.3045095401615534 0.6387334073910216 0.7066070861753755
    vertex -0.2796332244264944 0.8044623969411517 0.5240663237649779
    vertex -0.4936021805890591 0.7440636086046404 0.4502513005733203
  endloop
endfacet
facet normal 0.887828 -0.084391 0.452371
  outer loop
    vertex 0.8090169943749476 -1.981454703323686e-16 0.5877852522924729
    vertex 0.8618689795326703 -0.2596495829544095 0.4356190493893888
    vertex 0.9510565162951536 -2.329339705398441e-16 0.3090169943749472
  endloop
endfacet
facet normal 0.76019 0.358414 0.541895
  outer loop
    vertex 0.8657568545927664 0.2714089918825375 0.420478570025803
    vertex 0.6898941823453502 0.5223093169313345 0.5012374632973512
    vertex 0.6808812905078324 0.2698172279020885 0.6808812905078397
  endloop
endfacet
facet normal 0.887087 -0.0936997 -0.451993
  outer loop
    vertex 0.9510565162951535 -2.32933970539844e-16 -0.3090169943749476
    vertex 0.8676742306612654 -0.2716511003824183 -0.416349743734042
    vertex 0.8090169943749473 -1.981454703323686e-16 -0.5877852522924734
  endloop
endfacet
facet normal -0.70601 0.368325 -0.604886
  outer loop
    vertex -0.5825157842085856 0.4749893994253764 -0.6595911093862444
    vertex -0.6413204769395399 0.2599514480594426 -0.7218956230022731
    vertex -0.7887446790237514 0.4084501663636738 -0.4594021037274497
  endloop
endfacet
facet normal 0.333877 0.57418 0.747558
  outer loop
    vertex 0.2150620409557343 0.6738945711241912 0.7068340862955722
    vertex 0.2449429713396806 0.4801747253110348 0.8422797480432263
    vertex 0.4738980672274495 0.4992005973793977 0.7254098051819675
  endloop
endfacet
facet normal -0.597681 -0.278695 -0.751736
  outer loop
    vertex -0.7184611738704323 -0.1757583371594746 -0.6729952069366149
    vertex -0.4912556019442688 -0.1790819517314388 -0.8524069381008303
    vertex -0.5593500129107508 -0.4437770273981453 -0.7001353533499138
  endloop
endfacet
facet normal -0.163306 -0.711437 -0.683512
  outer loop
    vertex -0.3380641081994782 -0.662649652323639 -0.6682874359305671
    vertex -0.05423488905810828 -0.6113366436913381 -0.7895100283651023
    vertex -0.07226205580291262 -0.8194255120417735 -0.5686123684077001
  endloop
endfacet
facet normal -0.720282 -0.522009 0.456837
  outer loop
    vertex -0.6024872384094987 -0.6616374909795525 0.4463686347448468
    vertex -0.7037714900177229 -0.3968250268265542 0.5892669920522774
    vertex -0.8210187374962711 -0.4792872111235154 0.3101805956752803
  endloop
endfacet
facet normal 0.936411 0.173123 -0.305227
  outer loop
    vertex 0.8621574109319819 0.2714058744096292 -0.4278124006045246
    vertex 0.9559172227198368 0.2515940624230972 -0.1514024143170667
    vertex 0.9510565162951535 -2.32933970539844e-16 -0.3090169943749476
  endloop
endfacet
facet normal 0.893843 0.351811 -0.277981
  outer loop
    vertex 0.8297746977887018 0.5064666913657262 -0.2344470973305552
    vertex 0.9559172227198368 0.2515940624230972 -0.1514024143170667
    vertex 0.8621574109319819 0.2714058744096292 -0.4278124006045246
  endloop
endfacet
facet normal 0.794127 -0.178767 0.580865
  outer loop
    vertex 0.685322405277385 -0.2928208029309654 0.6667752081441575
    vertex 0.8618689795326703 -0.2596495829544095 0.4356190493893888
    vertex 0.8090169943749476 -1.981454703323686e-16 0.5877852522924729
  endloop
endfacet
facet normal 0.346781 0.837115 0.423062
  outer loop
    vertex 0.4566416017550372 0.730278646609698 0.5081058411910867
    vertex 0.3987629806797778 0.8791155401482501 0.26104396623793
    vertex 0.1790835476114245 0.8676345252994707 0.4638312338375551
  endloop
endfacet
facet normal 0.00572181 0.175386 -0.984483
  outer loop
    vertex 6.123031769111886e-17 -1.499660721822137e-32 -1
    vertex -0.1640912914753796 0.2167049808141465 -0.9623476499437625
    vertex 0.1506325540504112 0.2698172279021036 -0.9510565162951539
  endloop
endfacet
facet normal 0.940241 0.175723 0.291665
  outer loop
    vertex 0.9510565162951536 -2.329339705398441e-16 0.3090169943749472
    vertex 0.957608126766411 0.254812762028322 0.1343768278328633
    vertex 0.8657568545927664 0.2714089918825375 0.420478570025803
  endloop
endfacet
facet normal -0.895238 -0.417344 0.156121
  outer loop
    vertex -0.9586456133982626 -0.2476101706143896 0.1403131901161881
    vertex -0.8457959829933268 -0.5329348769736906 0.02468951310555135
    vertex -0.8210187374962711 -0.4792872111235154 0.3101805956752803
  endloop
endfacet
facet normal -0.79339 -0.582037 0.17823
  outer loop
    vertex -0.8210187374962711 -0.4792872111235154 0.3101805956752803
    vertex -0.8457959829933268 -0.5329348769736906 0.02468951310555135
    vertex -0.6818600116196798 -0.7096780766529219 0.1772680232648279
  endloop
endfacet
facet normal 0.984627 0.0786741 -0.15595
  outer loop
    vertex 0.9510565162951535 -2.32933970539844e-16 -0.3090169943749476
    vertex 0.9559172227198368 0.2515940624230972 -0.1514024143170667
    vertex 1 -2.449212707644755e-16 -2.449212707644755e-16
  endloop
endfacet
facet normal 0.899052 0.345791 0.268577
  outer loop
    vertex 0.8657568545927664 0.2714089918825375 0.420478570025803
    vertex 0.957608126766411 0.254812762028322 0.1343768278328633
    vertex 0.8354836676815345 0.500499265942842 0.2268645539260983
  endloop
endfacet
facet normal 0.762558 -0.354836 -0.540923
  outer loop
    vertex 0.6808812905080636 -0.269817227902308 -0.6808812905075216
    vertex 0.8676742306612654 -0.2716511003824183 -0.416349743734042
    vertex 0.7041982438596451 -0.5188857457648069 -0.4846260580974696
  endloop
endfacet
facet normal 0.587318 -0.708743 0.390822
  outer loop
    vertex 0.7102310226077332 -0.6439167347748631 0.2845050670945111
    vertex 0.55219172982272 -0.6317953201730713 0.5439843443728861
    vertex 0.4631210832028053 -0.8196729675532841 0.3371277036309135
  endloop
endfacet
facet normal 0.572292 0.174137 -0.801348
  outer loop
    vertex 0.4371526982420632 0.2698172279021049 -0.8579604780797931
    vertex 0.6741037745055017 0.2630486925024996 -0.6902097409991843
    vertex 0.5877852522924729 -1.439611109280903e-16 -0.8090169943749476
  endloop
endfacet
facet normal 0.179509 -0.965056 0.190903
  outer loop
    vertex 0.1668291135951629 -0.9185039722168548 0.3584947696674411
    vertex 0.02707204122480901 -0.9934429436076875 0.1110775511974197
    vertex 0.3192869999066135 -0.9434822523650261 0.08886535411987781
  endloop
endfacet
facet normal 0.804183 -0.568302 0.174133
  outer loop
    vertex 0.8408353902112926 -0.541018680437651 0.01716490564279749
    vertex 0.8505430846253779 -0.4482814786129036 0.2749912310030559
    vertex 0.7102310226077332 -0.6439167347748631 0.2845050670945111
  endloop
endfacet
facet normal -0.816113 -0.362583 0.449991
  outer loop
    vertex -0.7037714900177229 -0.3968250268265542 0.5892669920522774
    vertex -0.8761586809986353 -0.190734597646838 0.4426807867653966
    vertex -0.8210187374962711 -0.4792872111235154 0.3101805956752803
  endloop
endfacet
facet normal 0.548072 0.584692 -0.598124
  outer loop
    vertex 0.6846144597997368 0.5194986425839152 -0.5112965888665638
    vertex 0.4872241408381432 0.4839639116483292 -0.7269054744645836
    vertex 0.4405911090070682 0.7120882945736526 -0.5466349196631228
  endloop
endfacet
facet normal -0.645933 -0.694431 -0.317076
  outer loop
    vertex -0.5605025443645661 -0.7988795189527387 -0.2182393455788585
    vertex -0.7634837596048065 -0.5942881401915707 -0.2528124902914292
    vertex -0.585690750006683 -0.6607543575336932 -0.4694358575533462
  endloop
endfacet
facet normal 0.60846 0.668298 0.427966
  outer loop
    vertex 0.6898941823453502 0.5223093169313345 0.5012374632973512
    vertex 0.6389082562301107 0.7250209783930016 0.2571785780562871
    vertex 0.4566416017550372 0.730278646609698 0.5081058411910867
  endloop
endfacet
facet normal 0.0828835 -0.949117 -0.303821
  outer loop
    vertex 0.207171921853724 -0.8910977872583709 -0.4037629605829014
    vertex 0.1580682296303348 -0.9753529709663573 -0.1539513455888966
    vertex -0.08503983511184694 -0.9411648915609133 -0.3270731926301575
  endloop
endfacet
facet normal -0.632077 0.774297 0.0306892
  outer loop
    vertex -0.7568761073217597 0.6531501442115223 0.02309647769526187
    vertex -0.5558599848134664 0.8109116505017548 0.1828714640497322
    vertex -0.5379039376782627 0.8368487079319649 -0.1017034604269706
  endloop
endfacet
facet normal 0.395846 0.617815 -0.679419
  outer loop
    vertex 0.4405911090070682 0.7120882945736526 -0.5466349196631228
    vertex 0.4872241408381432 0.4839639116483292 -0.7269054744645836
    vertex 0.2357947285165997 0.658824635786727 -0.7143885114447667
  endloop
endfacet
facet normal 0.631136 0.426252 -0.648057
  outer loop
    vertex 0.6741037745055017 0.2630486925024996 -0.6902097409991843
    vertex 0.4872241408381432 0.4839639116483292 -0.7269054744645836
    vertex 0.6846144597997368 0.5194986425839152 -0.5112965888665638
  endloop
endfacet
facet normal 0.753254 0.637802 0.16068
  outer loop
    vertex 0.8354836676815345 0.500499265942842 0.2268645539260983
    vertex 0.7537113685284267 0.6571062038930877 -0.01142846254848288
    vertex 0.6389082562301107 0.7250209783930016 0.2571785780562871
  endloop
endfacet
facet normal -0.691875 0.699202 0.180072
  outer loop
    vertex -0.7278397711607846 0.6043963774523196 0.3239664896854766
    vertex -0.5558599848134664 0.8109116505017548 0.1828714640497322
    vertex -0.7568761073217597 0.6531501442115223 0.02309647769526187
  endloop
endfacet
facet normal 0.0686014 0.991833 -0.107521
  outer loop
    vertex -0.0499981598272819 0.998579120186614 0.0184370480612704
    vertex 0.2310222132868079 0.9716074546594287 -0.05106555608520081
    vertex 0.04498669348038302 0.9600821103420575 -0.2760770523075821
  endloop
endfacet
facet normal 0.209696 0.952197 -0.222146
  outer loop
    vertex 0.04498669348038302 0.9600821103420575 -0.2760770523075821
    vertex 0.2310222132868079 0.9716074546594287 -0.05106555608520081
    vertex 0.3478494759222635 0.886814762422513 -0.3042372745902586
  endloop
endfacet
facet normal 0.984399 0.0815475 0.155913
  outer loop
    vertex 1 -2.449212707644755e-16 -2.449212707644755e-16
    vertex 0.957608126766411 0.254812762028322 0.1343768278328633
    vertex 0.9510565162951536 -2.329339705398441e-16 0.3090169943749472
  endloop
endfacet
facet normal -0.211521 0.976387 -0.0438919
  outer loop
    vertex -0.2599496476368965 0.9429074378692498 -0.2082108169723659
    vertex -0.3313218691886898 0.9403034706117677 0.07781517944962499
    vertex -0.0499981598272819 0.998579120186614 0.0184370480612704
  endloop
endfacet
facet normal 0.376818 0.916671 -0.133129
  outer loop
    vertex 0.3478494759222635 0.886814762422513 -0.3042372745902586
    vertex 0.2310222132868079 0.9716074546594287 -0.05106555608520081
    vertex 0.5070244543149978 0.8614698921523507 -0.02821041725313362
  endloop
endfacet
facet normal -0.607036 0.726122 0.322884
  outer loop
    vertex -0.4936021805890591 0.7440636086046404 0.4502513005733203
    vertex -0.5558599848134664 0.8109116505017548 0.1828714640497322
    vertex -0.7278397711607846 0.6043963774523196 0.3239664896854766
  endloop
endfacet
facet normal 0.509218 0.784714 0.35344
  outer loop
    vertex 0.4566416017550372 0.730278646609698 0.5081058411910867
    vertex 0.6389082562301107 0.7250209783930016 0.2571785780562871
    vertex 0.3987629806797778 0.8791155401482501 0.26104396623793
  endloop
endfacet
facet normal -0.0674712 -0.158808 -0.985001
  outer loop
    vertex 0.04996630336553891 -0.2831631207851517 -0.9577692914033089
    vertex -0.233024568172449 -0.1115831027047554 -0.966048012170629
    vertex 6.123031769111886e-17 -1.499660721822137e-32 -1
  endloop
endfacet
facet normal -0.715731 -0.561613 -0.415115
  outer loop
    vertex -0.585690750006683 -0.6607543575336932 -0.4694358575533462
    vertex -0.7634837596048065 -0.5942881401915707 -0.2528124902914292
    vertex -0.7762073664701102 -0.4125200640005379 -0.4767906469662846
  endloop
endfacet
facet normal -0.384225 0.919083 -0.0875087
  outer loop
    vertex -0.5379039376782627 0.8368487079319649 -0.1017034604269706
    vertex -0.3313218691886898 0.9403034706117677 0.07781517944962499
    vertex -0.2599496476368965 0.9429074378692498 -0.2082108169723659
  endloop
endfacet
facet normal 0.802158 -0.185065 -0.567709
  outer loop
    vertex 0.8090169943749473 -1.981454703323686e-16 -0.5877852522924734
    vertex 0.8676742306612654 -0.2716511003824183 -0.416349743734042
    vertex 0.6808812905080636 -0.269817227902308 -0.6808812905075216
  endloop
endfacet
facet normal -0.0626975 -0.560593 0.825715
  outer loop
    vertex -0.1381278727266953 -0.4143274816563114 0.8995851425631355
    vertex -0.178993591985866 -0.6597352878365073 0.7298702925940186
    vertex 0.1108658735362036 -0.5979796858092796 0.7938066851850579
  endloop
endfacet
facet normal 0.452768 0.0733339 0.888607
  outer loop
    vertex 0.5877852522924734 -1.439611109280904e-16 0.8090169943749472
    vertex 0.3889462625001999 0.2341541772868659 0.8910065241883678
    vertex 0.3090169943749477 -7.568483495013096e-17 0.9510565162951535
  endloop
endfacet
facet normal -0.337635 -0.659971 0.671149
  outer loop
    vertex -0.3193806648843877 -0.7736563704147051 0.5472219032666283
    vertex -0.178993591985866 -0.6597352878365073 0.7298702925940186
    vertex -0.4517659826706601 -0.5410907014295031 0.7093154091997023
  endloop
endfacet
facet normal -0.0117022 -0.692184 0.721627
  outer loop
    vertex 0.1108658735362036 -0.5979796858092796 0.7938066851850579
    vertex -0.178993591985866 -0.6597352878365073 0.7298702925940186
    vertex -0.01151621271388377 -0.8047852501306865 0.5934543605171479
  endloop
endfacet
facet normal 0.729807 0.593047 0.340113
  outer loop
    vertex 0.8354836676815345 0.500499265942842 0.2268645539260983
    vertex 0.6389082562301107 0.7250209783930016 0.2571785780562871
    vertex 0.6898941823453502 0.5223093169313345 0.5012374632973512
  endloop
endfacet
facet normal 0.31221 -0.946374 -0.0830768
  outer loop
    vertex 0.3192869999066135 -0.9434822523650261 0.08886535411987781
    vertex 0.1580682296303348 -0.9753529709663573 -0.1539513455888966
    vertex 0.4269018964625456 -0.8830861588370303 -0.1947141670940795
  endloop
endfacet
facet normal 0.0163277 -0.959457 0.281382
  outer loop
    vertex -0.1449408526526504 -0.929414586265331 0.33938278693765
    vertex 0.02707204122480901 -0.9934429436076875 0.1110775511974197
    vertex 0.1668291135951629 -0.9185039722168548 0.3584947696674411
  endloop
endfacet
facet normal 0.169732 -0.98535 0.0166372
  outer loop
    vertex 0.3192869999066135 -0.9434822523650261 0.08886535411987781
    vertex 0.02707204122480901 -0.9934429436076875 0.1110775511974197
    vertex 0.1580682296303348 -0.9753529709663573 -0.1539513455888966
  endloop
endfacet
facet normal 0.790405 -0.596531 -0.139322
  outer loop
    vertex 0.6803497399228282 -0.6961159003600592 -0.2292310726163537
    vertex 0.8362988550846341 -0.4819860354861209 -0.2613306078141286
    vertex 0.8408353902112926 -0.541018680437651 0.01716490564279749
  endloop
endfacet
facet normal 0.438092 -0.751239 0.493675
  outer loop
    vertex 0.4631210832028053 -0.8196729675532841 0.3371277036309135
    vertex 0.55219172982272 -0.6317953201730713 0.5439843443728861
    vertex 0.2963764685572976 -0.7492175201159263 0.5923124989706418
  endloop
endfacet
facet normal -0.856595 -0.495323 -0.14457
  outer loop
    vertex -0.7634837596048065 -0.5942881401915707 -0.2528124902914292
    vertex -0.8457959829933268 -0.5329348769736906 0.02468951310555135
    vertex -0.9257844663994027 -0.3379317127308226 -0.1694853365468115
  endloop
endfacet
facet normal -0.846192 -0.436271 -0.305983
  outer loop
    vertex -0.7762073664701102 -0.4125200640005379 -0.4767906469662846
    vertex -0.7634837596048065 -0.5942881401915707 -0.2528124902914292
    vertex -0.9257844663994027 -0.3379317127308226 -0.1694853365468115
  endloop
endfacet
facet normal -0.982067 0.123677 -0.142294
  outer loop
    vertex -0.9956992512912769 -0.03220668185989557 -0.08686616499861259
    vertex -0.9709216997116042 0.2383143358203355 -0.02274489770567898
    vertex -0.9392815164436272 0.1786421740522196 -0.2929798739115991
  endloop
endfacet
facet normal -0.165494 0.0458543 -0.985144
  outer loop
    vertex 6.123031769111886e-17 -1.499660721822137e-32 -1
    vertex -0.233024568172449 -0.1115831027047554 -0.966048012170629
    vertex -0.1640912914753796 0.2167049808141465 -0.9623476499437625
  endloop
endfacet
facet normal -0.21711 0.386437 -0.896398
  outer loop
    vertex -0.1640912914753796 0.2167049808141465 -0.9623476499437625
    vertex -0.3840701949162078 0.4294194126878061 -0.8173671472379385
    vertex -0.07405122840043871 0.5054162015137651 -0.8596923163666076
  endloop
endfacet
facet normal 0.985745 0.168067 -0.0077254
  outer loop
    vertex 0.9559172227198368 0.2515940624230972 -0.1514024143170667
    vertex 0.957608126766411 0.254812762028322 0.1343768278328633
    vertex 1 -2.449212707644755e-16 -2.449212707644755e-16
  endloop
endfacet
facet normal 0.398191 -0.677233 -0.618708
  outer loop
    vertex 0.482860198413478 -0.7417399620374475 -0.4654759472892047
    vertex 0.2244894690317199 -0.7446103233544848 -0.6286174867499201
    vertex 0.4739481947789234 -0.5293924234068548 -0.7036453444066955
  endloop
endfacet
facet normal 0.0626107 0.616752 -0.784664
  outer loop
    vertex -0.07405122840043871 0.5054162015137651 -0.8596923163666076
    vertex -0.03401751743265782 0.7388296699125475 -0.6730330804385734
    vertex 0.2357947285165997 0.658824635786727 -0.7143885114447667
  endloop
endfacet
facet normal -0.17002 -0.772143 0.612281
  outer loop
    vertex -0.01151621271388377 -0.8047852501306865 0.5934543605171479
    vertex -0.178993591985866 -0.6597352878365073 0.7298702925940186
    vertex -0.3193806648843877 -0.7736563704147051 0.5472219032666283
  endloop
endfacet
facet normal -0.141075 0.675172 0.724044
  outer loop
    vertex -0.06464537820434293 0.7825162865518169 0.6192650776186012
    vertex -0.3045095401615534 0.6387334073910216 0.7066070861753755
    vertex -0.02239484433456346 0.589635271470399 0.8073591007632599
  endloop
endfacet
facet normal -0.994752 0.0744828 0.0701538
  outer loop
    vertex -0.960841036489871 0.1133726784406377 0.2528460764581213
    vertex -0.9709216997116042 0.2383143358203355 -0.02274489770567898
    vertex -0.9956992512912769 -0.03220668185989557 -0.08686616499861259
  endloop
endfacet
facet normal 0.278557 -0.925304 -0.257328
  outer loop
    vertex 0.4269018964625456 -0.8830861588370303 -0.1947141670940795
    vertex 0.1580682296303348 -0.9753529709663573 -0.1539513455888966
    vertex 0.207171921853724 -0.8910977872583709 -0.4037629605829014
  endloop
endfacet
facet normal -0.1272 -0.975806 0.177828
  outer loop
    vertex -0.2520317821155719 -0.9655776333114671 0.06434139299296189
    vertex 0.02707204122480901 -0.9934429436076875 0.1110775511974197
    vertex -0.1449408526526504 -0.929414586265331 0.33938278693765
  endloop
endfacet
facet normal -0.756367 0.0646854 0.650942
  outer loop
    vertex -0.684130013477193 0.2164406250204378 0.6965052623637943
    vertex -0.8567881851877385 0.07970270332646655 0.5094717703711903
    vertex -0.7057058110743025 -0.09381730085060203 0.702266062313329
  endloop
endfacet
facet normal -0.900644 0.19115 0.390259
  outer loop
    vertex -0.960841036489871 0.1133726784406377 0.2528460764581213
    vertex -0.8567881851877385 0.07970270332646655 0.5094717703711903
    vertex -0.8314372301144682 0.3362564043040092 0.442316360701387
  endloop
endfacet
facet normal 0.417466 -0.646795 0.638262
  outer loop
    vertex 0.2963764685572976 -0.7492175201159263 0.5923124989706418
    vertex 0.55219172982272 -0.6317953201730713 0.5439843443728861
    vertex 0.4059825621538242 -0.5243751564267813 0.7484710111616913
  endloop
endfacet
facet normal -0.17797 -0.874917 -0.450386
  outer loop
    vertex -0.07226205580291262 -0.8194255120417735 -0.5686123684077001
    vertex -0.08503983511184694 -0.9411648915609133 -0.3270731926301575
    vertex -0.3391866535712953 -0.8447747559566197 -0.4138937372533436
  endloop
endfacet
facet normal 0.0600666 0.932081 0.357235
  outer loop
    vertex 0.1790835476114245 0.8676345252994707 0.4638312338375551
    vertex 0.1424591782153286 0.967250517727291 0.2100757446696327
    vertex -0.1112712207580752 0.9340633451718917 0.3393293129650063
  endloop
endfacet
facet normal -0.384027 -0.0795475 -0.919889
  outer loop
    vertex -0.4912556019442688 -0.1790819517314388 -0.8524069381008303
    vertex -0.3371362157944511 0.07345716800403559 -0.9385857533910389
    vertex -0.233024568172449 -0.1115831027047554 -0.966048012170629
  endloop
endfacet
facet normal 0.323167 -0.622935 -0.7124
  outer loop
    vertex 0.4739481947789234 -0.5293924234068548 -0.7036453444066955
    vertex 0.2244894690317199 -0.7446103233544848 -0.6286174867499201
    vertex 0.2021926803898415 -0.5429832497446559 -0.8150382264001511
  endloop
endfacet
facet normal 0.323883 -0.803929 -0.498796
  outer loop
    vertex 0.207171921853724 -0.8910977872583709 -0.4037629605829014
    vertex 0.2244894690317199 -0.7446103233544848 -0.6286174867499201
    vertex 0.482860198413478 -0.7417399620374475 -0.4654759472892047
  endloop
endfacet
facet normal -0.0072444 0.836913 -0.547288
  outer loop
    vertex 0.1536758657290713 0.8327286025426959 -0.5319274412922398
    vertex -0.03401751743265782 0.7388296699125475 -0.6730330804385734
    vertex -0.1575369519633498 0.8567850327952 -0.4910208919630867
  endloop
endfacet
facet normal 0.898789 -0.33896 -0.278
  outer loop
    vertex 0.9518488792142712 -0.2683431703073597 -0.148241876971155
    vertex 0.8362988550846341 -0.4819860354861209 -0.2613306078141286
    vertex 0.8676742306612654 -0.2716511003824183 -0.416349743734042
  endloop
endfacet
facet normal -0.481227 0.875203 0.0494044
  outer loop
    vertex -0.5379039376782627 0.8368487079319649 -0.1017034604269706
    vertex -0.5558599848134664 0.8109116505017548 0.1828714640497322
    vertex -0.3313218691886898 0.9403034706117677 0.07781517944962499
  endloop
endfacet
facet normal -0.957471 0.248004 0.147458
  outer loop
    vertex -0.900014019784762 0.4090412595849725 0.1505324288916281
    vertex -0.9709216997116042 0.2383143358203355 -0.02274489770567898
    vertex -0.960841036489871 0.1133726784406377 0.2528460764581213
  endloop
endfacet
facet normal -0.94354 0.282573 -0.17287
  outer loop
    vertex -0.9392815164436272 0.1786421740522196 -0.2929798739115991
    vertex -0.9709216997116042 0.2383143358203355 -0.02274489770567898
    vertex -0.8878442889631053 0.4309343740108813 -0.1613322157891841
  endloop
endfacet
facet normal -0.617898 -0.0926051 -0.780786
  outer loop
    vertex -0.5820896332424541 0.07019926284965469 -0.8100887126525281
    vertex -0.4912556019442688 -0.1790819517314388 -0.8524069381008303
    vertex -0.7184611738704323 -0.1757583371594746 -0.6729952069366149
  endloop
endfacet
facet normal -0.556947 -0.814437 0.162795
  outer loop
    vertex -0.6818600116196798 -0.7096780766529219 0.1772680232648279
    vertex -0.5168882199263223 -0.8559985806310713 0.009643550123747685
    vertex -0.4411575060193106 -0.8555630943549807 0.27090929563334
  endloop
endfacet
facet normal -0.46376 0.0845185 -0.88192
  outer loop
    vertex -0.5820896332424541 0.07019926284965469 -0.8100887126525281
    vertex -0.4382998732858046 0.2209182761000506 -0.8712567568533569
    vertex -0.3371362157944511 0.07345716800403559 -0.9385857533910389
  endloop
endfacet
facet normal -0.79261 0.226502 0.566097
  outer loop
    vertex -0.8314372301144682 0.3362564043040092 0.442316360701387
    vertex -0.8567881851877385 0.07970270332646655 0.5094717703711903
    vertex -0.684130013477193 0.2164406250204378 0.6965052623637943
  endloop
endfacet
facet normal 0.391696 0.393956 0.831489
  outer loop
    vertex 0.4738980672274495 0.4992005973793977 0.7254098051819675
    vertex 0.2449429713396806 0.4801747253110348 0.8422797480432263
    vertex 0.3889462625001999 0.2341541772868659 0.8910065241883678
  endloop
endfacet
facet normal -0.31798 0.378818 0.869129
  outer loop
    vertex -0.270892585421232 0.2491202243918524 0.9298152079648696
    vertex -0.223201958112047 0.4926358694147856 0.8411247149269164
    vertex -0.4534997053064416 0.3856782126587359 0.803486361780543
  endloop
endfacet
facet normal 0.809103 -0.422068 -0.408915
  outer loop
    vertex 0.8676742306612654 -0.2716511003824183 -0.416349743734042
    vertex 0.8362988550846341 -0.4819860354861209 -0.2613306078141286
    vertex 0.7041982438596451 -0.5188857457648069 -0.4846260580974696
  endloop
endfacet
facet normal 0.900586 -0.41872 0.1167
  outer loop
    vertex 0.9536711670372647 -0.2618038116448057 0.1482230392686391
    vertex 0.8505430846253779 -0.4482814786129036 0.2749912310030559
    vertex 0.8408353902112926 -0.541018680437651 0.01716490564279749
  endloop
endfacet
facet normal 0.249862 0.913043 0.322368
  outer loop
    vertex 0.3987629806797778 0.8791155401482501 0.26104396623793
    vertex 0.1424591782153286 0.967250517727291 0.2100757446696327
    vertex 0.1790835476114245 0.8676345252994707 0.4638312338375551
  endloop
endfacet
facet normal 0.735804 -0.586603 -0.338362
  outer loop
    vertex 0.7041982438596451 -0.5188857457648069 -0.4846260580974696
    vertex 0.8362988550846341 -0.4819860354861209 -0.2613306078141286
    vertex 0.6803497399228282 -0.6961159003600592 -0.2292310726163537
  endloop
endfacet
facet normal 0.896993 -0.429247 -0.105599
  outer loop
    vertex 0.8408353902112926 -0.541018680437651 0.01716490564279749
    vertex 0.8362988550846341 -0.4819860354861209 -0.2613306078141286
    vertex 0.9518488792142712 -0.2683431703073597 -0.148241876971155
  endloop
endfacet
facet normal -0.630813 -0.773998 0.0547977
  outer loop
    vertex -0.6818600116196798 -0.7096780766529219 0.1772680232648279
    vertex -0.703159761651782 -0.7088287043325494 -0.05593047030062012
    vertex -0.5168882199263223 -0.8559985806310713 0.009643550123747685
  endloop
endfacet
facet normal 0.120396 0.745112 -0.655982
  outer loop
    vertex 0.2357947285165997 0.658824635786727 -0.7143885114447667
    vertex -0.03401751743265782 0.7388296699125475 -0.6730330804385734
    vertex 0.1536758657290713 0.8327286025426959 -0.5319274412922398
  endloop
endfacet
facet normal 0.828972 0.553629 0.0793782
  outer loop
    vertex 0.8354836676815345 0.500499265942842 0.2268645539260983
    vertex 0.8971172723943804 0.4417376955079981 -0.006957581400894956
    vertex 0.7537113685284267 0.6571062038930877 -0.01142846254848288
  endloop
endfacet
facet normal -0.0226783 -0.19068 0.98139
  outer loop
    vertex 6.123031769111886e-17 -1.499660721822137e-32 1
    vertex -0.2112783172059116 -0.153382003670688 0.965316235038344
    vertex 0.1506325540503649 -0.2698172279019947 0.9510565162951921
  endloop
endfacet
facet normal 0.108468 0.992667 0.0533475
  outer loop
    vertex -0.0499981598272819 0.998579120186614 0.0184370480612704
    vertex 0.1424591782153286 0.967250517727291 0.2100757446696327
    vertex 0.2310222132868079 0.9716074546594287 -0.05106555608520081
  endloop
endfacet
facet normal 0.550113 0.338555 -0.763385
  outer loop
    vertex 0.4371526982420632 0.2698172279021049 -0.8579604780797931
    vertex 0.4872241408381432 0.4839639116483292 -0.7269054744645836
    vertex 0.6741037745055017 0.2630486925024996 -0.6902097409991843
  endloop
endfacet
facet normal -0.681795 0.496361 -0.537384
  outer loop
    vertex -0.7887446790237514 0.4084501663636738 -0.4594021037274497
    vertex -0.6219385492950052 0.6268576496856361 -0.4692994011624398
    vertex -0.5825157842085856 0.4749893994253764 -0.6595911093862444
  endloop
endfacet
facet normal 0.82991 0.550759 -0.088963
  outer loop
    vertex 0.7537113685284267 0.6571062038930877 -0.01142846254848288
    vertex 0.8971172723943804 0.4417376955079981 -0.006957581400894956
    vertex 0.8297746977887018 0.5064666913657262 -0.2344470973305552
  endloop
endfacet
facet normal -0.243346 -0.919549 -0.308567
  outer loop
    vertex -0.08503983511184694 -0.9411648915609133 -0.3270731926301575
    vertex -0.3156607905268624 -0.9342998640356073 -0.1656563593316052
    vertex -0.3391866535712953 -0.8447747559566197 -0.4138937372533436
  endloop
endfacet
facet normal -0.172665 -0.963257 -0.205724
  outer loop
    vertex -0.08503983511184694 -0.9411648915609133 -0.3270731926301575
    vertex -0.06811456524291518 -0.9926157628894522 -0.1003710778320104
    vertex -0.3156607905268624 -0.9342998640356073 -0.1656563593316052
  endloop
endfacet
facet normal -0.128248 0.863042 0.488581
  outer loop
    vertex -0.1112712207580752 0.9340633451718917 0.3393293129650063
    vertex -0.2796332244264944 0.8044623969411517 0.5240663237649779
    vertex -0.06464537820434293 0.7825162865518169 0.6192650776186012
  endloop
endfacet
facet normal -0.920405 0.390874 -0.00847689
  outer loop
    vertex -0.8878442889631053 0.4309343740108813 -0.1613322157891841
    vertex -0.9709216997116042 0.2383143358203355 -0.02274489770567898
    vertex -0.900014019784762 0.4090412595849725 0.1505324288916281
  endloop
endfacet
facet normal -0.420256 -0.865574 -0.272335
  outer loop
    vertex -0.3391866535712953 -0.8447747559566197 -0.4138937372533436
    vertex -0.3156607905268624 -0.9342998640356073 -0.1656563593316052
    vertex -0.5605025443645661 -0.7988795189527387 -0.2182393455788585
  endloop
endfacet
facet normal 0.771011 -0.336671 0.540551
  outer loop
    vertex 0.685322405277385 -0.2928208029309654 0.6667752081441575
    vertex 0.7574774460966084 -0.4690936406863243 0.4540694604601915
    vertex 0.8618689795326703 -0.2596495829544095 0.4356190493893888
  endloop
endfacet
facet normal -0.400282 -0.908823 0.117541
  outer loop
    vertex -0.4411575060193106 -0.8555630943549807 0.27090929563334
    vertex -0.5168882199263223 -0.8559985806310713 0.009643550123747685
    vertex -0.2520317821155719 -0.9655776333114671 0.06434139299296189
  endloop
endfacet
facet normal -0.365041 0.512482 0.777243
  outer loop
    vertex -0.4534997053064416 0.3856782126587359 0.803486361780543
    vertex -0.223201958112047 0.4926358694147856 0.8411247149269164
    vertex -0.3045095401615534 0.6387334073910216 0.7066070861753755
  endloop
endfacet
facet normal -0.795263 -0.597307 -0.103831
  outer loop
    vertex -0.7634837596048065 -0.5942881401915707 -0.2528124902914292
    vertex -0.703159761651782 -0.7088287043325494 -0.05593047030062012
    vertex -0.8457959829933268 -0.5329348769736906 0.02468951310555135
  endloop
endfacet
facet normal 0.668541 -0.602929 0.435349
  outer loop
    vertex 0.7102310226077332 -0.6439167347748631 0.2845050670945111
    vertex 0.7574774460966084 -0.4690936406863243 0.4540694604601915
    vertex 0.55219172982272 -0.6317953201730713 0.5439843443728861
  endloop
endfacet
facet normal -0.742236 0.549491 -0.383595
  outer loop
    vertex -0.7105486922719504 0.654603915755368 -0.2580974029089796
    vertex -0.6219385492950052 0.6268576496856361 -0.4692994011624398
    vertex -0.7887446790237514 0.4084501663636738 -0.4594021037274497
  endloop
endfacet
facet normal -0.0566866 0.430864 0.900635
  outer loop
    vertex -0.02239484433456346 0.589635271470399 0.8073591007632599
    vertex -0.223201958112047 0.4926358694147856 0.8411247149269164
    vertex -0.0153026165363577 0.2600757343358739 0.9654669555902973
  endloop
endfacet
facet normal 0.953365 0.301685 -0.00903873
  outer loop
    vertex 0.9559172227198368 0.2515940624230972 -0.1514024143170667
    vertex 0.8971172723943804 0.4417376955079981 -0.006957581400894956
    vertex 0.957608126766411 0.254812762028322 0.1343768278328633
  endloop
endfacet
facet normal 0.9071 -0.303136 0.292025
  outer loop
    vertex 0.8618689795326703 -0.2596495829544095 0.4356190493893888
    vertex 0.8505430846253779 -0.4482814786129036 0.2749912310030559
    vertex 0.9536711670372647 -0.2618038116448057 0.1482230392686391
  endloop
endfacet
facet normal -0.426186 0.886382 0.180814
  outer loop
    vertex -0.5558599848134664 0.8109116505017548 0.1828714640497322
    vertex -0.3656113625927005 0.8748998732552987 0.3176138273453646
    vertex -0.3313218691886898 0.9403034706117677 0.07781517944962499
  endloop
endfacet
facet normal -0.696134 0.112269 -0.709079
  outer loop
    vertex -0.799532102494897 0.1146814078101863 -0.5895732285159863
    vertex -0.6413204769395399 0.2599514480594426 -0.7218956230022731
    vertex -0.5820896332424541 0.07019926284965469 -0.8100887126525281
  endloop
endfacet
facet normal -0.594962 0.725951 -0.344987
  outer loop
    vertex -0.458127706046136 0.8052830163813446 -0.3763485996794304
    vertex -0.6219385492950052 0.6268576496856361 -0.4692994011624398
    vertex -0.7105486922719504 0.654603915755368 -0.2580974029089796
  endloop
endfacet
facet normal 0.906642 0.398394 0.138863
  outer loop
    vertex 0.957608126766411 0.254812762028322 0.1343768278328633
    vertex 0.8971172723943804 0.4417376955079981 -0.006957581400894956
    vertex 0.8354836676815345 0.500499265942842 0.2268645539260983
  endloop
endfacet
facet normal -0.599132 -0.796138 -0.0848853
  outer loop
    vertex -0.5168882199263223 -0.8559985806310713 0.009643550123747685
    vertex -0.703159761651782 -0.7088287043325494 -0.05593047030062012
    vertex -0.5605025443645661 -0.7988795189527387 -0.2182393455788585
  endloop
endfacet
facet normal -0.496619 0.807779 0.317589
  outer loop
    vertex -0.4936021805890591 0.7440636086046404 0.4502513005733203
    vertex -0.3656113625927005 0.8748998732552987 0.3176138273453646
    vertex -0.5558599848134664 0.8109116505017548 0.1828714640497322
  endloop
endfacet
facet normal -0.208778 0.738054 0.641629
  outer loop
    vertex -0.06464537820434293 0.7825162865518169 0.6192650776186012
    vertex -0.2796332244264944 0.8044623969411517 0.5240663237649779
    vertex -0.3045095401615534 0.6387334073910216 0.7066070861753755
  endloop
endfacet
facet normal 0.904562 0.397272 -0.154735
  outer loop
    vertex 0.8297746977887018 0.5064666913657262 -0.2344470973305552
    vertex 0.8971172723943804 0.4417376955079981 -0.006957581400894956
    vertex 0.9559172227198368 0.2515940624230972 -0.1514024143170667
  endloop
endfacet
facet normal 0.0679323 -0.997094 -0.0344813
  outer loop
    vertex 0.02707204122480901 -0.9934429436076875 0.1110775511974197
    vertex -0.06811456524291518 -0.9926157628894522 -0.1003710778320104
    vertex 0.1580682296303348 -0.9753529709663573 -0.1539513455888966
  endloop
endfacet
facet normal -0.210012 -0.974858 -0.0744725
  outer loop
    vertex -0.3156607905268624 -0.9342998640356073 -0.1656563593316052
    vertex -0.06811456524291518 -0.9926157628894522 -0.1003710778320104
    vertex -0.2520317821155719 -0.9655776333114671 0.06434139299296189
  endloop
endfacet
facet normal 0.0216048 -0.974623 -0.222807
  outer loop
    vertex 0.1580682296303348 -0.9753529709663573 -0.1539513455888966
    vertex -0.06811456524291518 -0.9926157628894522 -0.1003710778320104
    vertex -0.08503983511184694 -0.9411648915609133 -0.3270731926301575
  endloop
endfacet
facet normal 0.294367 0.304253 -0.905968
  outer loop
    vertex 0.1506325540504112 0.2698172279021036 -0.9510565162951539
    vertex 0.2777458608908702 0.4473740753297032 -0.8501256809912771
    vertex 0.4371526982420632 0.2698172279021049 -0.8579604780797931
  endloop
endfacet
facet normal -0.29539 0.310364 -0.903559
  outer loop
    vertex -0.1640912914753796 0.2167049808141465 -0.9623476499437625
    vertex -0.4382998732858046 0.2209182761000506 -0.8712567568533569
    vertex -0.3840701949162078 0.4294194126878061 -0.8173671472379385
  endloop
endfacet
facet normal 0.347905 0.554368 -0.756067
  outer loop
    vertex 0.4872241408381432 0.4839639116483292 -0.7269054744645836
    vertex 0.2777458608908702 0.4473740753297032 -0.8501256809912771
    vertex 0.2357947285165997 0.658824635786727 -0.7143885114447667
  endloop
endfacet
facet normal -0.759713 -0.646793 0.0670345
  outer loop
    vertex -0.8457959829933268 -0.5329348769736906 0.02468951310555135
    vertex -0.703159761651782 -0.7088287043325494 -0.05593047030062012
    vertex -0.6818600116196798 -0.7096780766529219 0.1772680232648279
  endloop
endfacet
facet normal -0.677629 -0.706685 -0.203507
  outer loop
    vertex -0.5605025443645661 -0.7988795189527387 -0.2182393455788585
    vertex -0.703159761651782 -0.7088287043325494 -0.05593047030062012
    vertex -0.7634837596048065 -0.5942881401915707 -0.2528124902914292
  endloop
endfacet
facet normal -0.143967 0.363424 0.920433
  outer loop
    vertex -0.0153026165363577 0.2600757343358739 0.9654669555902973
    vertex -0.223201958112047 0.4926358694147856 0.8411247149269164
    vertex -0.270892585421232 0.2491202243918524 0.9298152079648696
  endloop
endfacet
facet normal -0.106554 -0.993329 0.0440809
  outer loop
    vertex -0.2520317821155719 -0.9655776333114671 0.06434139299296189
    vertex -0.06811456524291518 -0.9926157628894522 -0.1003710778320104
    vertex 0.02707204122480901 -0.9934429436076875 0.1110775511974197
  endloop
endfacet
facet normal -0.239886 0.883898 0.40147
  outer loop
    vertex -0.3656113625927005 0.8748998732552987 0.3176138273453646
    vertex -0.2796332244264944 0.8044623969411517 0.5240663237649779
    vertex -0.1112712207580752 0.9340633451718917 0.3393293129650063
  endloop
endfacet
facet normal -0.457729 -0.879126 -0.132749
  outer loop
    vertex -0.5605025443645661 -0.7988795189527387 -0.2182393455788585
    vertex -0.3156607905268624 -0.9342998640356073 -0.1656563593316052
    vertex -0.5168882199263223 -0.8559985806310713 0.009643550123747685
  endloop
endfacet
facet normal -0.167866 0.615555 0.770009
  outer loop
    vertex -0.3045095401615534 0.6387334073910216 0.7066070861753755
    vertex -0.223201958112047 0.4926358694147856 0.8411247149269164
    vertex -0.02239484433456346 0.589635271470399 0.8073591007632599
  endloop
endfacet
facet normal -0.378487 -0.925365 -0.0211333
  outer loop
    vertex -0.5168882199263223 -0.8559985806310713 0.009643550123747685
    vertex -0.3156607905268624 -0.9342998640356073 -0.1656563593316052
    vertex -0.2520317821155719 -0.9655776333114671 0.06434139299296189
  endloop
endfacet
facet normal 0.410215 0.404353 -0.817449
  outer loop
    vertex 0.4371526982420632 0.2698172279021049 -0.8579604780797931
    vertex 0.2777458608908702 0.4473740753297032 -0.8501256809912771
    vertex 0.4872241408381432 0.4839639116483292 -0.7269054744645836
  endloop
endfacet
facet normal 0.772252 -0.537389 0.338879
  outer loop
    vertex 0.7102310226077332 -0.6439167347748631 0.2845050670945111
    vertex 0.8505430846253779 -0.4482814786129036 0.2749912310030559
    vertex 0.7574774460966084 -0.4690936406863243 0.4540694604601915
  endloop
endfacet
facet normal 0.837177 -0.38286 0.390579
  outer loop
    vertex 0.7574774460966084 -0.4690936406863243 0.4540694604601915
    vertex 0.8505430846253779 -0.4482814786129036 0.2749912310030559
    vertex 0.8618689795326703 -0.2596495829544095 0.4356190493893888
  endloop
endfacet
facet normal -0.304951 0.214464 -0.927906
  outer loop
    vertex -0.3371362157944511 0.07345716800403559 -0.9385857533910389
    vertex -0.4382998732858046 0.2209182761000506 -0.8712567568533569
    vertex -0.1640912914753796 0.2167049808141465 -0.9623476499437625
  endloop
endfacet
facet normal -0.55492 0.201878 -0.807038
  outer loop
    vertex -0.6413204769395399 0.2599514480594426 -0.7218956230022731
    vertex -0.4382998732858046 0.2209182761000506 -0.8712567568533569
    vertex -0.5820896332424541 0.07019926284965469 -0.8100887126525281
  endloop
endfacet
facet normal -0.380721 0.815101 0.436649
  outer loop
    vertex -0.4936021805890591 0.7440636086046404 0.4502513005733203
    vertex -0.2796332244264944 0.8044623969411517 0.5240663237649779
    vertex -0.3656113625927005 0.8748998732552987 0.3176138273453646
  endloop
endfacet
facet normal 0.1534 0.19602 0.968527
  outer loop
    vertex 0.3090169943749477 -7.568483495013096e-17 0.9510565162951535
    vertex 0.3889462625001999 0.2341541772868659 0.8910065241883678
    vertex 6.123031769111886e-17 -1.499660721822137e-32 1
  endloop
endfacet
facet normal 0.188044 0.140142 0.972111
  outer loop
    vertex 0.3889462625001999 0.2341541772868659 0.8910065241883678
    vertex -0.0153026165363577 0.2600757343358739 0.9654669555902973
    vertex 6.123031769111886e-17 -1.499660721822137e-32 1
  endloop
endfacet
endsolid Created by Gmsh
