solid Created by Gmsh
facet normal 0.82788 0.229088 0.511989
  outer loop
    vertex 2.837451725101904 0.9740984076140518 -2.449293598294706e-16
    vertex 2.281120605611138 1.082157525214548 0.8512303145394491
    vertex 2.623489801858733 -6.425696776884044e-16 0.7818314824680298
  endloop
endfacet
facet normal 0.890956 0.148674 0.429062
  outer loop
    vertex 2.623489801858733 -6.425696776884044e-16 0.7818314824680298
    vertex 3 -7.347880794884119e-16 -2.449293598294706e-16
    vertex 2.837451725101904 0.9740984076140518 -2.449293598294706e-16
  endloop
endfacet
facet normal -0.027548 -0.0895442 -0.995602
  outer loop
    vertex 2.214814369282713 0.7487443997488247 -0.9411632462076678
    vertex 1.435469055793274 0.699927558792181 -0.9152083873082497
    vertex 1.426122910665179 1.566910742486569 -0.9929260402092234
  endloop
endfacet
facet normal -0.0694086 -0.186015 0.980092
  outer loop
    vertex -1.432750587364722 -2.192988029377763 0.7849679600773377
    vertex -0.5357207238219918 -2.575814069702185 0.7758363378116595
    vertex -0.4782121006106891 -1.642098977882177 0.9571219050573901
  endloop
endfacet
facet normal 0.726075 0.474572 0.49759
  outer loop
    vertex 2.367421528189179 1.842638138069006 -2.449293598294706e-16
    vertex 1.774163702991522 1.927255535103415 0.7849679600756481
    vertex 2.281120605611138 1.082157525214548 0.8512303145394491
  endloop
endfacet
facet normal 0.379821 0.311019 -0.871208
  outer loop
    vertex 1.426122910665179 1.566910742486569 -0.9929260402092234
    vertex 2.399832421064017 1.399378856391591 -0.6282257525247836
    vertex 2.214814369282713 0.7487443997488247 -0.9411632462076678
  endloop
endfacet
facet normal -0.0300575 -0.250325 0.967695
  outer loop
    vertex -0.4782121006106891 -1.642098977882177 0.9571219050573901
    vertex -1.269316703831728 -1.403742733720438 0.9942080067045823
    vertex -1.432750587364722 -2.192988029377763 0.7849679600773377
  endloop
endfacet
facet normal -0.106991 -0.183148 0.977246
  outer loop
    vertex -0.5357207238219918 -2.575814069702185 0.7758363378116595
    vertex 0.2644581523777655 -1.876583136668331 0.9944855124975911
    vertex -0.4782121006106891 -1.642098977882177 0.9571219050573901
  endloop
endfacet
facet normal 0.194513 0.0270254 0.980528
  outer loop
    vertex 1.454988386767903 -0.8031728940035268 0.941128162367672
    vertex 1.292138015572996 -1.636163201225915 0.9963926914829634
    vertex 2.303813469160483 -1.24676150162119 0.784967960074044
  endloop
endfacet
facet normal 0.782078 0.42324 0.457408
  outer loop
    vertex 2.367421528189179 1.842638138069006 -2.449293598294706e-16
    vertex 2.281120605611138 1.082157525214548 0.8512303145394491
    vertex 2.837451725101904 0.9740984076140518 -2.449293598294706e-16
  endloop
endfacet
facet normal -0.0103172 0.245781 0.969271
  outer loop
    vertex -0.6455769618998295 1.758298920527493 0.9919114544410489
    vertex 0.2088935441279715 1.819014532955713 0.9856108710917414
    vertex 0.2163195980690994 2.610589315476363 0.7849679600773376
  endloop
endfacet
facet normal 0.222514 0.00787796 0.974898
  outer loop
    vertex 2.623489801858733 -6.425696776884044e-16 0.7818314824680298
    vertex 2.281120605611138 1.082157525214548 0.8512303145394491
    vertex 1.777479066043686 -4.353568097563653e-16 0.9749279121818236
  endloop
endfacet
facet normal -0.0765882 0.307728 0.948387
  outer loop
    vertex -0.7112361774557576 2.608075733207656 0.7108776163607444
    vertex -0.6455769618998295 1.758298920527493 0.9919114544410489
    vertex 0.2163195980690994 2.610589315476363 0.7849679600773376
  endloop
endfacet
facet normal -0.0242982 -0.272926 0.961728
  outer loop
    vertex 0.2163195980691061 -2.610589315476361 0.7849679600773389
    vertex 0.2644581523777655 -1.876583136668331 0.9944855124975911
    vertex -0.5357207238219918 -2.575814069702185 0.7758363378116595
  endloop
endfacet
facet normal -0.034517 0.129342 0.990999
  outer loop
    vertex 1.777479066043686 -4.353568097563653e-16 0.9749279121818236
    vertex 2.281120605611138 1.082157525214548 0.8512303145394491
    vertex 1.310752972907503 0.7231500925249063 0.8642884348259227
  endloop
endfacet
facet normal -0.194435 0.0798277 -0.977662
  outer loop
    vertex -2.477774368945189 0.8996698581439384 -0.771645957702265
    vertex -1.406662899200416 1.062063990503064 -0.971406552187873
    vertex -1.732860814601278 0.2863942998214552 -0.9698677298415973
  endloop
endfacet
facet normal 0.829454 -0.133983 0.542268
  outer loop
    vertex -1.510506641839822 0.32676374257806 0.8907194328365965
    vertex -1.721240896152485 -0.5996615200388348 0.9841582791033557
    vertex -0.9988475380151957 0.06467343095850041 0.04332774054024723
  endloop
endfacet
facet normal -0.188618 0.133517 -0.972932
  outer loop
    vertex -0.8531722144165328 1.682637269515682 -0.9935467360591805
    vertex -1.406662899200416 1.062063990503064 -0.971406552187873
    vertex -1.995200166043669 1.73503435531676 -0.7649567261292205
  endloop
endfacet
facet normal -0.147618 0.125077 0.981104
  outer loop
    vertex 0.7451939134385476 1.382408316362934 0.90305118112984
    vertex 1.426274431886248 1.426973536201814 0.9998459685081765
    vertex 1.07020808505543 2.318876197357247 0.8325666671383443
  endloop
endfacet
facet normal 0.461538 0.518022 0.720164
  outer loop
    vertex -0.9988475380151957 0.06467343095850041 0.04332774054024723
    vertex -1.721240896152485 -0.5996615200388348 0.9841582791033557
    vertex -0.8586975311962869 -0.8531690235815967 0.6137232393390237
  endloop
endfacet
facet normal -0.199973 0.123304 -0.972012
  outer loop
    vertex -1.995200166043669 1.73503435531676 -0.7649567261292205
    vertex -1.406662899200416 1.062063990503064 -0.971406552187873
    vertex -2.477774368945189 0.8996698581439384 -0.771645957702265
  endloop
endfacet
facet normal 0.165468 0.0167901 0.986072
  outer loop
    vertex 1.07020808505543 2.318876197357247 0.8325666671383443
    vertex 0.2088935441279715 1.819014532955713 0.9856108710917414
    vertex 0.7451939134385476 1.382408316362934 0.90305118112984
  endloop
endfacet
facet normal -0.214056 -0.123941 0.968926
  outer loop
    vertex -2.097664882178578 -1.591408123060346 0.7741380097085374
    vertex -1.721240896152485 -0.5996615200388348 0.9841582791033557
    vertex -2.477602654771065 -0.8505620657303598 0.7849679600773372
  endloop
endfacet
facet normal -0.230098 -0.117249 0.966078
  outer loop
    vertex -2.097664882178578 -1.591408123060346 0.7741380097085374
    vertex -1.269316703831728 -1.403742733720438 0.9942080067045823
    vertex -1.721240896152485 -0.5996615200388348 0.9841582791033557
  endloop
endfacet
facet normal -0.16782 -0.11211 0.979422
  outer loop
    vertex -2.477602654771067 0.8505620657303524 0.7849679600773375
    vertex -1.510506641839822 0.32676374257806 0.8907194328365965
    vertex -1.499559387688207 1.256860122569935 0.9990587989571684
  endloop
endfacet
facet normal -0.174026 0.299522 -0.938084
  outer loop
    vertex -1.428139211786669 2.330336612524248 -0.6800785196526066
    vertex -0.8531722144165328 1.682637269515682 -0.9935467360591805
    vertex -1.995200166043669 1.73503435531676 -0.7649567261292205
  endloop
endfacet
facet normal -0.92944 -0.276819 -0.243953
  outer loop
    vertex 0.698016033341735 0.7553166961566485 0.2368750017255858
    vertex 0.8975123751125004 0.8925265859526833 -0.6788830685193397
    vertex 1.099031132097581 -2.691849916173188e-16 -0.433883739117558
  endloop
endfacet
facet normal 0.167751 -0.38351 -0.908174
  outer loop
    vertex -0.8531722144165328 1.682637269515682 -0.9935467360591805
    vertex -0.1132725977358821 2.020873953321929 -0.9997108531004435
    vertex 0.08626917471685459 1.214025261673596 -0.6221306560183778
  endloop
endfacet
facet normal 0.0372858 -0.573739 -0.818189
  outer loop
    vertex -0.6846924055807855 0.8349694996383085 -0.3914591160454551
    vertex -0.8531722144165328 1.682637269515682 -0.9935467360591805
    vertex 0.08626917471685459 1.214025261673596 -0.6221306560183778
  endloop
endfacet
facet normal -0.883235 -0.46893 -2.66431e-32
  outer loop
    vertex 1.099031132097581 -2.691849916173189e-16 0.4338837391175582
    vertex 0.698016033341735 0.7553166961566485 0.2368750017255858
    vertex 1.099031132097581 -2.691849916173188e-16 -0.433883739117558
  endloop
endfacet
facet normal 0.0297979 0.245331 0.968981
  outer loop
    vertex 0.2163195980690994 2.610589315476363 0.7849679600773376
    vertex 0.2088935441279715 1.819014532955713 0.9856108710917414
    vertex 1.07020808505543 2.318876197357247 0.8325666671383443
  endloop
endfacet
facet normal 0.0518731 -0.241839 0.968929
  outer loop
    vertex 2.303813469160483 -1.24676150162119 0.784967960074044
    vertex 2.218258445084347 -0.5788587852608761 0.9562527282218337
    vertex 1.454988386767903 -0.8031728940035268 0.941128162367672
  endloop
endfacet
facet normal -0.439319 0.780131 0.445415
  outer loop
    vertex 0.7475239254468597 -0.6642348838208647 0
    vertex 0.5184674558595809 -1.209871645061909 0.7297461798695335
    vertex 1.454988386767903 -0.8031728940035268 0.941128162367672
  endloop
endfacet
facet normal 0.215822 -0.862694 -0.457361
  outer loop
    vertex 0.7364564614224041 -2.908200797817989 -2.449293598294706e-16
    vertex 0.1371767111599524 -2.66282219716136 -0.7456362274612366
    vertex 1.03349361161008 -2.424659112443954 -0.771910217265941
  endloop
endfacet
facet normal 0.444904 -0.895444 0.0155228
  outer loop
    vertex 0.08626917471685459 1.214025261673596 -0.6221306560183778
    vertex -0.07157959982842083 1.155733054077225 0.5393956558218747
    vertex -0.6846924055807855 0.8349694996383085 -0.3914591160454551
  endloop
endfacet
facet normal 0.355324 -0.930716 0.0866794
  outer loop
    vertex -0.6846924055807855 0.8349694996383085 -0.3914591160454551
    vertex -0.07157959982842083 1.155733054077225 0.5393956558218747
    vertex -0.8532249737733398 0.8647597222558273 0.6192752251462572
  endloop
endfacet
facet normal 0.208412 0.260035 0.942839
  outer loop
    vertex 1.07020808505543 2.318876197357247 0.8325666671383443
    vertex 1.426274431886248 1.426973536201814 0.9998459685081765
    vertex 1.774163702991522 1.927255535103415 0.7849679600756481
  endloop
endfacet
facet normal -0.149289 0.934734 -0.322467
  outer loop
    vertex 0.5717372630802973 -1.150733477148062 -0.6990631761831778
    vertex -0.379085827901239 -1.333923384878821 -0.7898838657070371
    vertex -0.09827890576205575 -0.996810084423371 0.05730346895306637
  endloop
endfacet
facet normal 0.0768222 -0.927106 -0.366841
  outer loop
    vertex -0.2477380364169929 -2.98975347902001 -2.449293598294706e-16
    vertex 0.1371767111599524 -2.66282219716136 -0.7456362274612366
    vertex 0.7364564614224041 -2.908200797817989 -2.449293598294706e-16
  endloop
endfacet
facet normal 0.224604 -0.444889 -0.866964
  outer loop
    vertex 1.841477973654625 -1.404463650846128 -0.9487805238234042
    vertex 1.914939183940921 -2.037973377795622 -0.6046584732992241
    vertex 1.139986943530243 -1.658963935226553 -0.9999169031498127
  endloop
endfacet
facet normal -0.797061 0.0277419 0.603262
  outer loop
    vertex 1.099031132097581 -2.691849916173189e-16 0.4338837391175582
    vertex 0.7475239254468597 -0.6642348838208647 0
    vertex 1.454988386767903 -0.8031728940035268 0.941128162367672
  endloop
endfacet
facet normal 0.254823 0.226572 0.940069
  outer loop
    vertex 1.774163702991522 1.927255535103415 0.7849679600756481
    vertex 1.426274431886248 1.426973536201814 0.9998459685081765
    vertex 2.281120605611138 1.082157525214548 0.8512303145394491
  endloop
endfacet
facet normal -0.825642 0.0713445 -0.559665
  outer loop
    vertex 1.099031132097581 -2.691849916173188e-16 -0.433883739117558
    vertex 1.347049743040389 -0.8042821069321341 -0.9022989039773605
    vertex 0.7475239254468597 -0.6642348838208647 0
  endloop
endfacet
facet normal 0.30695 -0.310578 -0.899624
  outer loop
    vertex 1.139986943530243 -1.658963935226553 -0.9999169031498127
    vertex 1.914939183940921 -2.037973377795622 -0.6046584732992241
    vertex 1.03349361161008 -2.424659112443954 -0.771910217265941
  endloop
endfacet
facet normal 0.0827784 0.292018 -0.952824
  outer loop
    vertex 0.563901832990595 1.778161093927351 -0.9909045654449596
    vertex 0.256800040838804 2.647814884992402 -0.751055831945501
    vertex 1.133530263041039 2.411227869339125 -0.7473966359478532
  endloop
endfacet
facet normal 0.0598752 -0.263575 0.962779
  outer loop
    vertex 1.292138015572996 -1.636163201225915 0.9963926914829634
    vertex 0.2644581523777655 -1.876583136668331 0.9944855124975911
    vertex 1.031539289659498 -2.368724704216427 0.8120494758787175
  endloop
endfacet
facet normal 0.364601 -0.831207 0.419714
  outer loop
    vertex 1.640844474367289 -2.51149943478758 -2.449293598294706e-16
    vertex 1.031539289659498 -2.368724704216427 0.8120494758787175
    vertex 0.7364564614224041 -2.908200797817989 -2.449293598294706e-16
  endloop
endfacet
facet normal -0.349803 0.807897 -0.474278
  outer loop
    vertex 0.7475239254468597 -0.6642348838208647 0
    vertex 0.5717372630802973 -1.150733477148062 -0.6990631761831778
    vertex -0.09827890576205575 -0.996810084423371 0.05730346895306637
  endloop
endfacet
facet normal 0.013047 0.220974 0.975192
  outer loop
    vertex -2.477602654771067 0.8505620657303524 0.7849679600773375
    vertex -2.265668630875898 0.04829448921415104 0.9639224327049348
    vertex -1.510506641839822 0.32676374257806 0.8907194328365965
  endloop
endfacet
facet normal 0.297875 -0.278062 0.91321
  outer loop
    vertex 1.292138015572996 -1.636163201225915 0.9963926914829634
    vertex 1.754792030539233 -2.041046572499905 0.7221996703396215
    vertex 2.303813469160483 -1.24676150162119 0.784967960074044
  endloop
endfacet
facet normal -0.253095 -0.187046 -0.949188
  outer loop
    vertex -1.426572445503396 -2.290692935046784 -0.7155230858386391
    vertex -1.201257257728229 -1.293628232959212 -0.9720821372676383
    vertex -0.5564133564262016 -2.104158615402561 -0.9843036448941553
  endloop
endfacet
facet normal 0.807193 -0.436831 0.397012
  outer loop
    vertex 2.837451725101904 -0.9740984076140512 -2.449293598294706e-16
    vertex 2.303813469160483 -1.24676150162119 0.784967960074044
    vertex 2.367421528189187 -1.842638138068996 -2.449293598294706e-16
  endloop
endfacet
facet normal 0.0879688 -0.202296 0.975366
  outer loop
    vertex 2.281120605611138 1.082157525214548 0.8512303145394491
    vertex 1.426274431886248 1.426973536201814 0.9998459685081765
    vertex 1.310752972907503 0.7231500925249063 0.8642884348259227
  endloop
endfacet
facet normal -0.459841 0.778909 -0.426434
  outer loop
    vertex 1.347049743040389 -0.8042821069321341 -0.9022989039773605
    vertex 0.5717372630802973 -1.150733477148062 -0.6990631761831778
    vertex 0.7475239254468597 -0.6642348838208647 0
  endloop
endfacet
facet normal 0.713192 -0.529287 0.459579
  outer loop
    vertex 2.303813469160483 -1.24676150162119 0.784967960074044
    vertex 1.754792030539233 -2.041046572499905 0.7221996703396215
    vertex 2.367421528189187 -1.842638138068996 -2.449293598294706e-16
  endloop
endfacet
facet normal 0.12104 0.303411 -0.945141
  outer loop
    vertex 0.563901832990595 1.778161093927351 -0.9909045654449596
    vertex -0.1132725977358821 2.020873953321929 -0.9997108531004435
    vertex 0.256800040838804 2.647814884992402 -0.751055831945501
  endloop
endfacet
facet normal -0.286222 0.0971467 -0.953226
  outer loop
    vertex -2.692488692002709 -0.08925036591882671 -0.7200063089332838
    vertex -1.732860814601278 0.2863942998214552 -0.9698677298415973
    vertex -1.979437648830414 -0.6901516390210258 -0.9953521469973162
  endloop
endfacet
facet normal 0.621618 0.675257 0.397012
  outer loop
    vertex 1.640844474367278 2.511499434787587 -2.449293598294706e-16
    vertex 1.774163702991522 1.927255535103415 0.7849679600756481
    vertex 2.367421528189179 1.842638138069006 -2.449293598294706e-16
  endloop
endfacet
facet normal -0.872592 0.232649 0.429486
  outer loop
    vertex -2.959083910208168 0.4937837708421968 -2.449293598294706e-16
    vertex -2.793603668460039 -0.00873332608726082 0.6084172501672828
    vertex -2.477602654771067 0.8505620657303524 0.7849679600773375
  endloop
endfacet
facet normal 0.0757924 0.914679 0.397012
  outer loop
    vertex -0.2477380364169995 2.989753479020009 -2.449293598294706e-16
    vertex 0.2163195980690994 2.610589315476363 0.7849679600773376
    vertex 0.7364564614223952 2.908200797817992 -2.449293598294706e-16
  endloop
endfacet
facet normal -0.266169 0.115527 0.956978
  outer loop
    vertex 0.5184674558595809 -1.209871645061909 0.7297461798695335
    vertex 1.292138015572996 -1.636163201225915 0.9963926914829634
    vertex 1.454988386767903 -0.8031728940035268 0.941128162367672
  endloop
endfacet
facet normal 0.0757924 -0.914679 0.397012
  outer loop
    vertex 0.7364564614224041 -2.908200797817989 -2.449293598294706e-16
    vertex 0.2163195980691061 -2.610589315476361 0.7849679600773389
    vertex -0.2477380364169929 -2.98975347902001 -2.449293598294706e-16
  endloop
endfacet
facet normal 0.370477 -0.844602 -0.386515
  outer loop
    vertex 0.7364564614224041 -2.908200797817989 -2.449293598294706e-16
    vertex 1.03349361161008 -2.424659112443954 -0.771910217265941
    vertex 1.640844474367289 -2.51149943478758 -2.449293598294706e-16
  endloop
endfacet
facet normal 0.373539 0.851583 -0.367798
  outer loop
    vertex 1.640844474367278 2.511499434787587 -2.449293598294706e-16
    vertex 1.133530263041039 2.411227869339125 -0.7473966359478532
    vertex 0.7364564614223952 2.908200797817992 -2.449293598294706e-16
  endloop
endfacet
facet normal 0.651209 0.707401 -0.274791
  outer loop
    vertex 2.367421528189179 1.842638138069006 -2.449293598294706e-16
    vertex 1.853746811233368 2.07282232460814 -0.6247538618606238
    vertex 1.640844474367278 2.511499434787587 -2.449293598294706e-16
  endloop
endfacet
facet normal -0.0948983 0.398408 0.912286
  outer loop
    vertex 0.5184674558595809 -1.209871645061909 0.7297461798695335
    vertex 0.2644581523777655 -1.876583136668331 0.9944855124975911
    vertex 1.292138015572996 -1.636163201225915 0.9963926914829634
  endloop
endfacet
facet normal -0.513801 -0.786431 -0.342834
  outer loop
    vertex -2.03184471487722 -2.207171732019397 -2.449293598294706e-16
    vertex -1.426572445503396 -2.290692935046784 -0.7155230858386391
    vertex -1.205086273958905 -2.747319979965174 -2.449293598294706e-16
  endloop
endfacet
facet normal -0.501996 0.768363 0.397012
  outer loop
    vertex -2.031844714877225 2.207171732019392 -2.449293598294706e-16
    vertex -1.43275058736472 2.192988029377746 0.7849679600773501
    vertex -1.205086273958911 2.747319979965171 -2.449293598294706e-16
  endloop
endfacet
facet normal -0.22531 0.889729 -0.397012
  outer loop
    vertex -0.2477380364169995 2.989753479020009 -2.449293598294706e-16
    vertex -0.6430581594750381 2.539379244248411 -0.7849679600774988
    vertex -1.205086273958911 2.747319979965171 -2.449293598294706e-16
  endloop
endfacet
facet normal -0.372743 -0.902348 -0.216402
  outer loop
    vertex 0.698016033341735 0.7553166961566485 0.2368750017255858
    vertex 0.08626917471685459 1.214025261673596 -0.6221306560183778
    vertex 0.8975123751125004 0.8925265859526833 -0.6788830685193397
  endloop
endfacet
facet normal -0.868084 0.298014 0.397012
  outer loop
    vertex -2.959083910208168 0.4937837708421968 -2.449293598294706e-16
    vertex -2.477602654771067 0.8505620657303524 0.7849679600773375
    vertex -2.638421253619469 1.427842179111217 -2.449293598294706e-16
  endloop
endfacet
facet normal -0.501996 -0.768363 0.397012
  outer loop
    vertex -1.205086273958905 -2.747319979965174 -2.449293598294706e-16
    vertex -1.432750587364722 -2.192988029377763 0.7849679600773377
    vertex -2.03184471487722 -2.207171732019397 -2.449293598294706e-16
  endloop
endfacet
facet normal -0.728377 0.566919 -0.384799
  outer loop
    vertex -2.031844714877225 2.207171732019392 -2.449293598294706e-16
    vertex -1.995200166043669 1.73503435531676 -0.7649567261292205
    vertex -2.638421253619469 1.427842179111217 -2.449293598294706e-16
  endloop
endfacet
facet normal 0.94233 -0.29079 0.165697
  outer loop
    vertex -0.9988475380151957 0.06467343095850041 0.04332774054024723
    vertex -0.6846924055807855 0.8349694996383085 -0.3914591160454551
    vertex -0.8532249737733398 0.8647597222558273 0.6192752251462572
  endloop
endfacet
facet normal -0.868084 -0.298014 0.397012
  outer loop
    vertex -2.638421253619466 -1.427842179111224 -2.449293598294706e-16
    vertex -2.477602654771065 -0.8505620657303598 0.7849679600773372
    vertex -2.959083910208167 -0.4937837708422054 -2.449293598294706e-16
  endloop
endfacet
facet normal 0.453942 -0.108362 0.884417
  outer loop
    vertex -1.499559387688207 1.256860122569935 0.9990587989571684
    vertex -1.510506641839822 0.32676374257806 0.8907194328365965
    vertex -0.8532249737733398 0.8647597222558273 0.6192752251462572
  endloop
endfacet
facet normal 0.652277 -0.517439 0.553887
  outer loop
    vertex -1.510506641839822 0.32676374257806 0.8907194328365965
    vertex -0.9988475380151957 0.06467343095850041 0.04332774054024723
    vertex -0.8532249737733398 0.8647597222558273 0.6192752251462572
  endloop
endfacet
facet normal -0.738829 -0.575053 -0.351348
  outer loop
    vertex -2.638421253619466 -1.427842179111224 -2.449293598294706e-16
    vertex -2.120251684539626 -1.649064153546105 -0.7275517293321065
    vertex -2.03184471487722 -2.207171732019397 -2.449293598294706e-16
  endloop
endfacet
facet normal -0.590558 0.661198 0.462666
  outer loop
    vertex -2.031844714877225 2.207171732019392 -2.449293598294706e-16
    vertex -2.168857538174129 1.570166000480422 0.7354611819680693
    vertex -1.43275058736472 2.192988029377746 0.7849679600773501
  endloop
endfacet
facet normal -0.283012 0.808625 0.515781
  outer loop
    vertex 0.7475239254468597 -0.6642348838208647 0
    vertex -0.09827890576205575 -0.996810084423371 0.05730346895306637
    vertex 0.5184674558595809 -1.209871645061909 0.7297461798695335
  endloop
endfacet
facet normal 0.255113 -0.422074 0.869926
  outer loop
    vertex -1.499559387688207 1.256860122569935 0.9990587989571684
    vertex -0.8532249737733398 0.8647597222558273 0.6192752251462572
    vertex -0.6455769618998295 1.758298920527493 0.9919114544410489
  endloop
endfacet
facet normal -0.872289 0.299457 -0.386571
  outer loop
    vertex -2.638421253619469 1.427842179111217 -2.449293598294706e-16
    vertex -2.477774368945189 0.8996698581439384 -0.771645957702265
    vertex -2.959083910208168 0.4937837708421968 -2.449293598294706e-16
  endloop
endfacet
facet normal 0.556691 0.691852 -0.459822
  outer loop
    vertex -0.379085827901239 -1.333923384878821 -0.7898838657070371
    vertex -0.7786480513930698 -0.7558212166706407 -0.4038021825058874
    vertex -0.09827890576205575 -0.996810084423371 0.05730346895306637
  endloop
endfacet
facet normal -0.0471645 0.0384484 -0.998147
  outer loop
    vertex 2.21481436928272 -0.7487443997479768 -0.9411632462077626
    vertex 1.841477973654625 -1.404463650846128 -0.9487805238234042
    vertex 1.347049743040389 -0.8042821069321341 -0.9022989039773605
  endloop
endfacet
facet normal 0.56037 0.542621 0.625738
  outer loop
    vertex -0.09827890576205575 -0.996810084423371 0.05730346895306637
    vertex -0.8586975311962869 -0.8531690235815967 0.6137232393390237
    vertex -0.4782121006106891 -1.642098977882177 0.9571219050573901
  endloop
endfacet
facet normal -0.0402631 -0.0684699 -0.99684
  outer loop
    vertex 2.21481436928272 -0.7487443997479768 -0.9411632462077626
    vertex 1.347049743040389 -0.8042821069321341 -0.9022989039773605
    vertex 1.777479066043685 -4.353568097563653e-16 -0.9749279121818236
  endloop
endfacet
facet normal 0.235383 -0.846786 0.477019
  outer loop
    vertex 0.7364564614224041 -2.908200797817989 -2.449293598294706e-16
    vertex 1.031539289659498 -2.368724704216427 0.8120494758787175
    vertex 0.2163195980691061 -2.610589315476361 0.7849679600773389
  endloop
endfacet
facet normal 0.263225 0.958167 0.112377
  outer loop
    vertex -0.09827890576205575 -0.996810084423371 0.05730346895306637
    vertex -0.7786480513930698 -0.7558212166706407 -0.4038021825058874
    vertex -0.8586975311962869 -0.8531690235815967 0.6137232393390237
  endloop
endfacet
facet normal -0.599962 -0.272116 0.752329
  outer loop
    vertex 1.777479066043686 -4.353568097563653e-16 0.9749279121818236
    vertex 1.310752972907503 0.7231500925249063 0.8642884348259227
    vertex 1.099031132097581 -2.691849916173189e-16 0.4338837391175582
  endloop
endfacet
facet normal -0.609253 0.212477 0.763979
  outer loop
    vertex 1.099031132097581 -2.691849916173189e-16 0.4338837391175582
    vertex 1.454988386767903 -0.8031728940035268 0.941128162367672
    vertex 1.777479066043686 -4.353568097563653e-16 0.9749279121818236
  endloop
endfacet
facet normal 0.221702 -0.0856918 -0.971342
  outer loop
    vertex 1.777479066043685 -4.353568097563653e-16 -0.9749279121818236
    vertex 2.214814369282713 0.7487443997488247 -0.9411632462076678
    vertex 2.623489801858733 -6.425696776884043e-16 -0.7818314824680299
  endloop
endfacet
facet normal 0.221702 0.0856918 -0.971342
  outer loop
    vertex 2.623489801858733 -6.425696776884043e-16 -0.7818314824680299
    vertex 2.21481436928272 -0.7487443997479768 -0.9411632462077626
    vertex 1.777479066043685 -4.353568097563653e-16 -0.9749279121818236
  endloop
endfacet
facet normal 0.246014 -0.421222 0.872954
  outer loop
    vertex -0.8532249737733398 0.8647597222558273 0.6192752251462572
    vertex -0.07157959982842083 1.155733054077225 0.5393956558218747
    vertex -0.6455769618998295 1.758298920527493 0.9919114544410489
  endloop
endfacet
facet normal -0.249171 0.833759 0.492707
  outer loop
    vertex -0.09827890576205575 -0.996810084423371 0.05730346895306637
    vertex -0.4782121006106891 -1.642098977882177 0.9571219050573901
    vertex 0.5184674558595809 -1.209871645061909 0.7297461798695335
  endloop
endfacet
facet normal -0.602974 0.254416 -0.756105
  outer loop
    vertex 1.777479066043685 -4.353568097563653e-16 -0.9749279121818236
    vertex 1.347049743040389 -0.8042821069321341 -0.9022989039773605
    vertex 1.099031132097581 -2.691849916173188e-16 -0.433883739117558
  endloop
endfacet
facet normal 0.0466217 -0.571074 0.819574
  outer loop
    vertex -0.07157959982842083 1.155733054077225 0.5393956558218747
    vertex 0.2088935441279715 1.819014532955713 0.9856108710917414
    vertex -0.6455769618998295 1.758298920527493 0.9919114544410489
  endloop
endfacet
facet normal -0.160305 -0.243597 -0.956537
  outer loop
    vertex -2.120251684539626 -1.649064153546105 -0.7275517293321065
    vertex -1.979437648830414 -0.6901516390210258 -0.9953521469973162
    vertex -1.201257257728229 -1.293628232959212 -0.9720821372676383
  endloop
endfacet
facet normal -0.126819 0.229734 0.964956
  outer loop
    vertex -1.43275058736472 2.192988029377746 0.7849679600773501
    vertex -1.499559387688207 1.256860122569935 0.9990587989571684
    vertex -0.6455769618998295 1.758298920527493 0.9919114544410489
  endloop
endfacet
facet normal -0.207135 -0.143819 0.967683
  outer loop
    vertex -2.477602654771065 -0.8505620657303598 0.7849679600773372
    vertex -1.721240896152485 -0.5996615200388348 0.9841582791033557
    vertex -2.265668630875898 0.04829448921415104 0.9639224327049348
  endloop
endfacet
facet normal 0.0354076 -0.289734 -0.956452
  outer loop
    vertex 0.2300969513915509 -1.817050686060516 -0.9857121775443676
    vertex 1.139986943530243 -1.658963935226553 -0.9999169031498127
    vertex 1.03349361161008 -2.424659112443954 -0.771910217265941
  endloop
endfacet
facet normal 0.257877 0.834343 0.487207
  outer loop
    vertex 0.2163195980690994 2.610589315476363 0.7849679600773376
    vertex 1.07020808505543 2.318876197357247 0.8325666671383443
    vertex 0.7364564614223952 2.908200797817992 -2.449293598294706e-16
  endloop
endfacet
facet normal 0.0455815 -0.277414 -0.959669
  outer loop
    vertex 1.03349361161008 -2.424659112443954 -0.771910217265941
    vertex 0.1371767111599524 -2.66282219716136 -0.7456362274612366
    vertex 0.2300969513915509 -1.817050686060516 -0.9857121775443676
  endloop
endfacet
facet normal -0.883869 0.467735 2.65752e-32
  outer loop
    vertex 1.099031132097581 -2.691849916173188e-16 -0.433883739117558
    vertex 0.7475239254468597 -0.6642348838208647 0
    vertex 1.099031132097581 -2.691849916173189e-16 0.4338837391175582
  endloop
endfacet
facet normal -0.010092 0.373801 -0.927454
  outer loop
    vertex 0.256800040838804 2.647814884992402 -0.751055831945501
    vertex -0.1132725977358821 2.020873953321929 -0.9997108531004435
    vertex -0.6430581594750381 2.539379244248411 -0.7849679600774988
  endloop
endfacet
facet normal -0.199495 0.277707 -0.939724
  outer loop
    vertex -0.6430581594750381 2.539379244248411 -0.7849679600774988
    vertex -0.8531722144165328 1.682637269515682 -0.9935467360591805
    vertex -1.428139211786669 2.330336612524248 -0.6800785196526066
  endloop
endfacet
facet normal -0.0386007 0.890657 0.453035
  outer loop
    vertex -0.2477380364169995 2.989753479020009 -2.449293598294706e-16
    vertex -0.7112361774557576 2.608075733207656 0.7108776163607444
    vertex 0.2163195980690994 2.610589315476363 0.7849679600773376
  endloop
endfacet
facet normal 0.444219 0.797369 -0.4085
  outer loop
    vertex 1.640844474367278 2.511499434787587 -2.449293598294706e-16
    vertex 1.853746811233368 2.07282232460814 -0.6247538618606238
    vertex 1.133530263041039 2.411227869339125 -0.7473966359478532
  endloop
endfacet
facet normal -0.462481 -0.148243 -0.874149
  outer loop
    vertex -1.979437648830414 -0.6901516390210258 -0.9953521469973162
    vertex -2.630101369124971 -0.9416343802633906 -0.6084614207506455
    vertex -2.692488692002709 -0.08925036591882671 -0.7200063089332838
  endloop
endfacet
facet normal -0.606554 -0.231489 -0.760595
  outer loop
    vertex 1.099031132097581 -2.691849916173188e-16 -0.433883739117558
    vertex 1.435469055793274 0.699927558792181 -0.9152083873082497
    vertex 1.777479066043685 -4.353568097563653e-16 -0.9749279121818236
  endloop
endfacet
facet normal -0.706348 -0.197734 0.679687
  outer loop
    vertex 1.310752972907503 0.7231500925249063 0.8642884348259227
    vertex 0.698016033341735 0.7553166961566485 0.2368750017255858
    vertex 1.099031132097581 -2.691849916173189e-16 0.4338837391175582
  endloop
endfacet
facet normal -0.93778 -1.2651e-15 -0.34723
  outer loop
    vertex -2.959083910208168 0.4937837708421968 -2.449293598294706e-16
    vertex -2.692488692002709 -0.08925036591882671 -0.7200063089332838
    vertex -2.959083910208167 -0.4937837708422054 -2.449293598294706e-16
  endloop
endfacet
facet normal 0.844572 0.45706 -0.278917
  outer loop
    vertex 2.837451725101904 0.9740984076140518 -2.449293598294706e-16
    vertex 2.399832421064017 1.399378856391591 -0.6282257525247836
    vertex 2.367421528189179 1.842638138069006 -2.449293598294706e-16
  endloop
endfacet
facet normal 0.0715952 0.301315 -0.950833
  outer loop
    vertex 1.133530263041039 2.411227869339125 -0.7473966359478532
    vertex 1.426122910665179 1.566910742486569 -0.9929260402092234
    vertex 0.563901832990595 1.778161093927351 -0.9909045654449596
  endloop
endfacet
facet normal -0.0466262 -0.888403 0.456691
  outer loop
    vertex 0.2163195980691061 -2.610589315476361 0.7849679600773389
    vertex -0.5357207238219918 -2.575814069702185 0.7758363378116595
    vertex -0.2477380364169929 -2.98975347902001 -2.449293598294706e-16
  endloop
endfacet
facet normal 0.37987 0.31252 -0.870649
  outer loop
    vertex 1.853746811233368 2.07282232460814 -0.6247538618606238
    vertex 2.399832421064017 1.399378856391591 -0.6282257525247836
    vertex 1.426122910665179 1.566910742486569 -0.9929260402092234
  endloop
endfacet
facet normal -0.608884 -0.555633 0.566155
  outer loop
    vertex 1.310752972907503 0.7231500925249063 0.8642884348259227
    vertex 0.7451939134385476 1.382408316362934 0.90305118112984
    vertex 0.698016033341735 0.7553166961566485 0.2368750017255858
  endloop
endfacet
facet normal -0.0889622 0.882617 -0.461598
  outer loop
    vertex -0.2477380364169995 2.989753479020009 -2.449293598294706e-16
    vertex 0.256800040838804 2.647814884992402 -0.751055831945501
    vertex -0.6430581594750381 2.539379244248411 -0.7849679600774988
  endloop
endfacet
facet normal -0.607025 -0.664441 -0.435934
  outer loop
    vertex -2.03184471487722 -2.207171732019397 -2.449293598294706e-16
    vertex -2.120251684539626 -1.649064153546105 -0.7275517293321065
    vertex -1.426572445503396 -2.290692935046784 -0.7155230858386391
  endloop
endfacet
facet normal 0.634699 -0.689467 0.348988
  outer loop
    vertex 2.367421528189187 -1.842638138068996 -2.449293598294706e-16
    vertex 1.754792030539233 -2.041046572499905 0.7221996703396215
    vertex 1.640844474367289 -2.51149943478758 -2.449293598294706e-16
  endloop
endfacet
facet normal -0.736452 0.573204 0.359272
  outer loop
    vertex -2.638421253619469 1.427842179111217 -2.449293598294706e-16
    vertex -2.168857538174129 1.570166000480422 0.7354611819680693
    vertex -2.031844714877225 2.207171732019392 -2.449293598294706e-16
  endloop
endfacet
facet normal -0.285507 0.855915 -0.431155
  outer loop
    vertex -0.6430581594750381 2.539379244248411 -0.7849679600774988
    vertex -1.428139211786669 2.330336612524248 -0.6800785196526066
    vertex -1.205086273958911 2.747319979965171 -2.449293598294706e-16
  endloop
endfacet
facet normal -0.219576 -0.396726 -0.891288
  outer loop
    vertex 0.08626917471685459 1.214025261673596 -0.6221306560183778
    vertex 0.563901832990595 1.778161093927351 -0.9909045654449596
    vertex 0.8975123751125004 0.8925265859526833 -0.6788830685193397
  endloop
endfacet
facet normal -0.907439 -0.119146 -0.402937
  outer loop
    vertex -2.692488692002709 -0.08925036591882671 -0.7200063089332838
    vertex -2.630101369124971 -0.9416343802633906 -0.6084614207506455
    vertex -2.959083910208167 -0.4937837708422054 -2.449293598294706e-16
  endloop
endfacet
facet normal -0.786145 -0.40993 0.46253
  outer loop
    vertex -2.638421253619466 -1.427842179111224 -2.449293598294706e-16
    vertex -2.097664882178578 -1.591408123060346 0.7741380097085374
    vertex -2.477602654771065 -0.8505620657303598 0.7849679600773372
  endloop
endfacet
facet normal 0.233084 0.264476 -0.935801
  outer loop
    vertex -1.979437648830414 -0.6901516390210258 -0.9953521469973162
    vertex -1.257007978978482 -0.333896447783167 -0.7147287877511537
    vertex -1.201257257728229 -1.293628232959212 -0.9720821372676383
  endloop
endfacet
facet normal -0.765232 0.445779 -0.464436
  outer loop
    vertex -1.995200166043669 1.73503435531676 -0.7649567261292205
    vertex -2.477774368945189 0.8996698581439384 -0.771645957702265
    vertex -2.638421253619469 1.427842179111217 -2.449293598294706e-16
  endloop
endfacet
facet normal 0.900865 0.0151902 -0.433834
  outer loop
    vertex 3 -7.347880794884119e-16 -2.449293598294706e-16
    vertex 2.737695471222713 -0.686785615922372 -0.5687280328507383
    vertex 2.623489801858733 -6.425696776884043e-16 -0.7818314824680299
  endloop
endfacet
facet normal -0.253641 0.00456049 -0.967288
  outer loop
    vertex -2.692488692002709 -0.08925036591882671 -0.7200063089332838
    vertex -2.477774368945189 0.8996698581439384 -0.771645957702265
    vertex -1.732860814601278 0.2863942998214552 -0.9698677298415973
  endloop
endfacet
facet normal -0.0084378 -0.0386619 0.999217
  outer loop
    vertex 1.454988386767903 -0.8031728940035268 0.941128162367672
    vertex 2.218258445084347 -0.5788587852608761 0.9562527282218337
    vertex 1.777479066043686 -4.353568097563653e-16 0.9749279121818236
  endloop
endfacet
facet normal -0.283313 0.186277 0.940763
  outer loop
    vertex -1.499559387688207 1.256860122569935 0.9990587989571684
    vertex -2.168857538174129 1.570166000480422 0.7354611819680693
    vertex -2.477602654771067 0.8505620657303524 0.7849679600773375
  endloop
endfacet
facet normal 0.361118 0.823266 0.43798
  outer loop
    vertex 0.7364564614223952 2.908200797817992 -2.449293598294706e-16
    vertex 1.07020808505543 2.318876197357247 0.8325666671383443
    vertex 1.640844474367278 2.511499434787587 -2.449293598294706e-16
  endloop
endfacet
facet normal -0.560882 0.0363257 0.827098
  outer loop
    vertex -2.477602654771067 0.8505620657303524 0.7849679600773375
    vertex -2.793603668460039 -0.00873332608726082 0.6084172501672828
    vertex -2.265668630875898 0.04829448921415104 0.9639224327049348
  endloop
endfacet
facet normal 0.221285 0.190472 -0.956427
  outer loop
    vertex -0.5564133564262016 -2.104158615402561 -0.9843036448941553
    vertex -1.201257257728229 -1.293628232959212 -0.9720821372676383
    vertex -0.379085827901239 -1.333923384878821 -0.7898838657070371
  endloop
endfacet
facet normal 0.862645 0.354047 -0.36124
  outer loop
    vertex 2.837451725101904 0.9740984076140518 -2.449293598294706e-16
    vertex 2.74071316727963 0.6076173444842398 -0.5901962715118063
    vertex 2.399832421064017 1.399378856391591 -0.6282257525247836
  endloop
endfacet
facet normal 0.0503627 -0.277185 0.959496
  outer loop
    vertex 1.031539289659498 -2.368724704216427 0.8120494758787175
    vertex 0.2644581523777655 -1.876583136668331 0.9944855124975911
    vertex 0.2163195980691061 -2.610589315476361 0.7849679600773389
  endloop
endfacet
facet normal 0.95551 -0.159446 -0.248149
  outer loop
    vertex 2.837451725101904 -0.9740984076140512 -2.449293598294706e-16
    vertex 2.737695471222713 -0.686785615922372 -0.5687280328507383
    vertex 3 -7.347880794884119e-16 -2.449293598294706e-16
  endloop
endfacet
facet normal -0.230943 0.911974 0.339071
  outer loop
    vertex -1.205086273958911 2.747319979965171 -2.449293598294706e-16
    vertex -0.7112361774557576 2.608075733207656 0.7108776163607444
    vertex -0.2477380364169995 2.989753479020009 -2.449293598294706e-16
  endloop
endfacet
facet normal 0.953716 0.159147 -0.255145
  outer loop
    vertex 3 -7.347880794884119e-16 -2.449293598294706e-16
    vertex 2.74071316727963 0.6076173444842398 -0.5901962715118063
    vertex 2.837451725101904 0.9740984076140518 -2.449293598294706e-16
  endloop
endfacet
facet normal -0.476368 -0.331139 -0.814506
  outer loop
    vertex 0.8975123751125004 0.8925265859526833 -0.6788830685193397
    vertex 1.435469055793274 0.699927558792181 -0.9152083873082497
    vertex 1.099031132097581 -2.691849916173188e-16 -0.433883739117558
  endloop
endfacet
facet normal 0.0767193 0.925864 -0.369987
  outer loop
    vertex 0.7364564614223952 2.908200797817992 -2.449293598294706e-16
    vertex 0.256800040838804 2.647814884992402 -0.751055831945501
    vertex -0.2477380364169995 2.989753479020009 -2.449293598294706e-16
  endloop
endfacet
facet normal 0.414323 -0.791113 0.449973
  outer loop
    vertex 1.754792030539233 -2.041046572499905 0.7221996703396215
    vertex 1.031539289659498 -2.368724704216427 0.8120494758787175
    vertex 1.640844474367289 -2.51149943478758 -2.449293598294706e-16
  endloop
endfacet
facet normal -0.225839 -0.891818 0.391991
  outer loop
    vertex -0.2477380364169929 -2.98975347902001 -2.449293598294706e-16
    vertex -0.5357207238219918 -2.575814069702185 0.7758363378116595
    vertex -1.205086273958905 -2.747319979965174 -2.449293598294706e-16
  endloop
endfacet
facet normal -0.873534 0.165763 -0.45767
  outer loop
    vertex -2.959083910208168 0.4937837708421968 -2.449293598294706e-16
    vertex -2.477774368945189 0.8996698581439384 -0.771645957702265
    vertex -2.692488692002709 -0.08925036591882671 -0.7200063089332838
  endloop
endfacet
facet normal -0.0906556 -0.361131 -0.928098
  outer loop
    vertex 0.563901832990595 1.778161093927351 -0.9909045654449596
    vertex 1.426122910665179 1.566910742486569 -0.9929260402092234
    vertex 0.8975123751125004 0.8925265859526833 -0.6788830685193397
  endloop
endfacet
facet normal -0.518791 0.794068 -0.316721
  outer loop
    vertex -1.205086273958911 2.747319979965171 -2.449293598294706e-16
    vertex -1.428139211786669 2.330336612524248 -0.6800785196526066
    vertex -2.031844714877225 2.207171732019392 -2.449293598294706e-16
  endloop
endfacet
facet normal -0.175627 -0.207913 -0.962251
  outer loop
    vertex -2.120251684539626 -1.649064153546105 -0.7275517293321065
    vertex -1.201257257728229 -1.293628232959212 -0.9720821372676383
    vertex -1.426572445503396 -2.290692935046784 -0.7155230858386391
  endloop
endfacet
facet normal -0.412015 -0.820566 -0.396125
  outer loop
    vertex -1.426572445503396 -2.290692935046784 -0.7155230858386391
    vertex -0.6774134435312454 -2.73304317549846 -0.5784131859173871
    vertex -1.205086273958905 -2.747319979965174 -2.449293598294706e-16
  endloop
endfacet
facet normal -0.727194 -0.565998 0.388376
  outer loop
    vertex -2.03184471487722 -2.207171732019397 -2.449293598294706e-16
    vertex -2.097664882178578 -1.591408123060346 0.7741380097085374
    vertex -2.638421253619466 -1.427842179111224 -2.449293598294706e-16
  endloop
endfacet
facet normal -0.150047 -0.515596 -0.843592
  outer loop
    vertex -0.5564133564262016 -2.104158615402561 -0.9843036448941553
    vertex -0.6774134435312454 -2.73304317549846 -0.5784131859173871
    vertex -1.426572445503396 -2.290692935046784 -0.7155230858386391
  endloop
endfacet
facet normal 0.064838 0.0855283 0.994224
  outer loop
    vertex -2.265668630875898 0.04829448921415104 0.9639224327049348
    vertex -1.721240896152485 -0.5996615200388348 0.9841582791033557
    vertex -1.510506641839822 0.32676374257806 0.8907194328365965
  endloop
endfacet
facet normal 0.973229 0.20859 0.0965207
  outer loop
    vertex -0.8586975311962869 -0.8531690235815967 0.6137232393390237
    vertex -0.7786480513930698 -0.7558212166706407 -0.4038021825058874
    vertex -0.9988475380151957 0.06467343095850041 0.04332774054024723
  endloop
endfacet
facet normal 0.450494 0.751133 0.482549
  outer loop
    vertex 1.640844474367278 2.511499434787587 -2.449293598294706e-16
    vertex 1.07020808505543 2.318876197357247 0.8325666671383443
    vertex 1.774163702991522 1.927255535103415 0.7849679600756481
  endloop
endfacet
facet normal 0.196686 0.634909 -0.747131
  outer loop
    vertex -1.201257257728229 -1.293628232959212 -0.9720821372676383
    vertex -0.7786480513930698 -0.7558212166706407 -0.4038021825058874
    vertex -0.379085827901239 -1.333923384878821 -0.7898838657070371
  endloop
endfacet
facet normal 0.429964 -0.795085 -0.42775
  outer loop
    vertex 1.03349361161008 -2.424659112443954 -0.771910217265941
    vertex 1.914939183940921 -2.037973377795622 -0.6046584732992241
    vertex 1.640844474367289 -2.51149943478758 -2.449293598294706e-16
  endloop
endfacet
facet normal -0.260057 0.232871 0.937092
  outer loop
    vertex -1.43275058736472 2.192988029377746 0.7849679600773501
    vertex -2.168857538174129 1.570166000480422 0.7354611819680693
    vertex -1.499559387688207 1.256860122569935 0.9990587989571684
  endloop
endfacet
facet normal -0.0795059 0.307453 0.948236
  outer loop
    vertex -1.43275058736472 2.192988029377746 0.7849679600773501
    vertex -0.6455769618998295 1.758298920527493 0.9919114544410489
    vertex -0.7112361774557576 2.608075733207656 0.7108776163607444
  endloop
endfacet
facet normal -0.149543 -0.449186 -0.880834
  outer loop
    vertex 0.08626917471685459 1.214025261673596 -0.6221306560183778
    vertex -0.1132725977358821 2.020873953321929 -0.9997108531004435
    vertex 0.563901832990595 1.778161093927351 -0.9909045654449596
  endloop
endfacet
facet normal 0.532944 -0.225741 -0.815482
  outer loop
    vertex -1.406662899200416 1.062063990503064 -0.971406552187873
    vertex -1.163832703647098 0.2846130431137324 -0.5974961016081476
    vertex -1.732860814601278 0.2863942998214552 -0.9698677298415973
  endloop
endfacet
facet normal 0.955039 -0.159368 0.250007
  outer loop
    vertex 3 -7.347880794884119e-16 -2.449293598294706e-16
    vertex 2.746978894284421 -0.6001913109735065 0.5839594548476096
    vertex 2.837451725101904 -0.9740984076140512 -2.449293598294706e-16
  endloop
endfacet
facet normal 0.850555 -0.460297 -0.254327
  outer loop
    vertex 2.367421528189187 -1.842638138068996 -2.449293598294706e-16
    vertex 2.438012326407943 -1.382801374824511 -0.5961629104107357
    vertex 2.837451725101904 -0.9740984076140512 -2.449293598294706e-16
  endloop
endfacet
facet normal 0.23457 0.862315 -0.448765
  outer loop
    vertex 1.133530263041039 2.411227869339125 -0.7473966359478532
    vertex 0.256800040838804 2.647814884992402 -0.751055831945501
    vertex 0.7364564614223952 2.908200797817992 -2.449293598294706e-16
  endloop
endfacet
facet normal -0.412591 0.796173 0.442581
  outer loop
    vertex -1.43275058736472 2.192988029377746 0.7849679600773501
    vertex -0.7112361774557576 2.608075733207656 0.7108776163607444
    vertex -1.205086273958911 2.747319979965171 -2.449293598294706e-16
  endloop
endfacet
facet normal 0.900163 0.0422926 0.433496
  outer loop
    vertex 2.623489801858733 -6.425696776884044e-16 0.7818314824680298
    vertex 2.746978894284421 -0.6001913109735065 0.5839594548476096
    vertex 3 -7.347880794884119e-16 -2.449293598294706e-16
  endloop
endfacet
facet normal -0.341524 -0.81156 0.474059
  outer loop
    vertex -1.205086273958905 -2.747319979965174 -2.449293598294706e-16
    vertex -0.5357207238219918 -2.575814069702185 0.7758363378116595
    vertex -1.432750587364722 -2.192988029377763 0.7849679600773377
  endloop
endfacet
facet normal 0.900354 -0.0369507 -0.433587
  outer loop
    vertex 2.623489801858733 -6.425696776884043e-16 -0.7818314824680299
    vertex 2.74071316727963 0.6076173444842398 -0.5901962715118063
    vertex 3 -7.347880794884119e-16 -2.449293598294706e-16
  endloop
endfacet
facet normal -0.621047 0.653319 -0.432984
  outer loop
    vertex -2.031844714877225 2.207171732019392 -2.449293598294706e-16
    vertex -1.428139211786669 2.330336612524248 -0.6800785196526066
    vertex -1.995200166043669 1.73503435531676 -0.7649567261292205
  endloop
endfacet
facet normal 0.180585 0.464466 0.866984
  outer loop
    vertex -0.8586975311962869 -0.8531690235815967 0.6137232393390237
    vertex -1.269316703831728 -1.403742733720438 0.9942080067045823
    vertex -0.4782121006106891 -1.642098977882177 0.9571219050573901
  endloop
endfacet
facet normal -0.597224 -0.651683 0.467582
  outer loop
    vertex -1.432750587364722 -2.192988029377763 0.7849679600773377
    vertex -2.097664882178578 -1.591408123060346 0.7741380097085374
    vertex -2.03184471487722 -2.207171732019397 -2.449293598294706e-16
  endloop
endfacet
facet normal 0.01291 0.389556 -0.920912
  outer loop
    vertex 0.5717372630802973 -1.150733477148062 -0.6990631761831778
    vertex 0.2300969513915509 -1.817050686060516 -0.9857121775443676
    vertex -0.379085827901239 -1.333923384878821 -0.7898838657070371
  endloop
endfacet
facet normal -0.105315 -0.720362 0.685556
  outer loop
    vertex 0.7451939134385476 1.382408316362934 0.90305118112984
    vertex -0.07157959982842083 1.155733054077225 0.5393956558218747
    vertex 0.698016033341735 0.7553166961566485 0.2368750017255858
  endloop
endfacet
facet normal -0.206148 -0.210649 0.955578
  outer loop
    vertex -1.432750587364722 -2.192988029377763 0.7849679600773377
    vertex -1.269316703831728 -1.403742733720438 0.9942080067045823
    vertex -2.097664882178578 -1.591408123060346 0.7741380097085374
  endloop
endfacet
facet normal -0.03739 0.0668019 -0.997065
  outer loop
    vertex 1.777479066043685 -4.353568097563653e-16 -0.9749279121818236
    vertex 1.435469055793274 0.699927558792181 -0.9152083873082497
    vertex 2.214814369282713 0.7487443997488247 -0.9411632462076678
  endloop
endfacet
facet normal 0.393124 -0.0753488 -0.916393
  outer loop
    vertex -1.732860814601278 0.2863942998214552 -0.9698677298415973
    vertex -1.257007978978482 -0.333896447783167 -0.7147287877511537
    vertex -1.979437648830414 -0.6901516390210258 -0.9953521469973162
  endloop
endfacet
facet normal -0.811557 0.378801 0.444843
  outer loop
    vertex -2.477602654771067 0.8505620657303524 0.7849679600773375
    vertex -2.168857538174129 1.570166000480422 0.7354611819680693
    vertex -2.638421253619469 1.427842179111217 -2.449293598294706e-16
  endloop
endfacet
facet normal 0.664532 0.229313 -0.711205
  outer loop
    vertex -1.201257257728229 -1.293628232959212 -0.9720821372676383
    vertex -1.257007978978482 -0.333896447783167 -0.7147287877511537
    vertex -0.7786480513930698 -0.7558212166706407 -0.4038021825058874
  endloop
endfacet
facet normal -0.492508 -0.863295 -0.110256
  outer loop
    vertex 0.698016033341735 0.7553166961566485 0.2368750017255858
    vertex -0.07157959982842083 1.155733054077225 0.5393956558218747
    vertex 0.08626917471685459 1.214025261673596 -0.6221306560183778
  endloop
endfacet
facet normal -0.426185 -0.0853257 -0.900603
  outer loop
    vertex 1.426122910665179 1.566910742486569 -0.9929260402092234
    vertex 1.435469055793274 0.699927558792181 -0.9152083873082497
    vertex 0.8975123751125004 0.8925265859526833 -0.6788830685193397
  endloop
endfacet
facet normal 0.718911 0.584891 -0.375594
  outer loop
    vertex 2.367421528189179 1.842638138069006 -2.449293598294706e-16
    vertex 2.399832421064017 1.399378856391591 -0.6282257525247836
    vertex 1.853746811233368 2.07282232460814 -0.6247538618606238
  endloop
endfacet
facet normal 0.809065 -0.429981 0.400663
  outer loop
    vertex 2.837451725101904 -0.9740984076140512 -2.449293598294706e-16
    vertex 2.746978894284421 -0.6001913109735065 0.5839594548476096
    vertex 2.303813469160483 -1.24676150162119 0.784967960074044
  endloop
endfacet
facet normal -0.4512 -0.177968 -0.874498
  outer loop
    vertex -2.120251684539626 -1.649064153546105 -0.7275517293321065
    vertex -2.630101369124971 -0.9416343802633906 -0.6084614207506455
    vertex -1.979437648830414 -0.6901516390210258 -0.9953521469973162
  endloop
endfacet
facet normal 0.0342792 0.105209 -0.993859
  outer loop
    vertex 1.841477973654625 -1.404463650846128 -0.9487805238234042
    vertex 1.139986943530243 -1.658963935226553 -0.9999169031498127
    vertex 1.347049743040389 -0.8042821069321341 -0.9022989039773605
  endloop
endfacet
facet normal -0.912568 -0.313285 -0.262817
  outer loop
    vertex -2.959083910208167 -0.4937837708422054 -2.449293598294706e-16
    vertex -2.630101369124971 -0.9416343802633906 -0.6084614207506455
    vertex -2.638421253619466 -1.427842179111224 -2.449293598294706e-16
  endloop
endfacet
facet normal 0.573793 -0.20245 -0.793584
  outer loop
    vertex -0.6846924055807855 0.8349694996383085 -0.3914591160454551
    vertex -1.163832703647098 0.2846130431137324 -0.5974961016081476
    vertex -1.406662899200416 1.062063990503064 -0.971406552187873
  endloop
endfacet
facet normal -0.964945 -1.30175e-15 0.26245
  outer loop
    vertex -2.959083910208167 -0.4937837708422054 -2.449293598294706e-16
    vertex -2.793603668460039 -0.00873332608726082 0.6084172501672828
    vertex -2.959083910208168 0.4937837708421968 -2.449293598294706e-16
  endloop
endfacet
facet normal 0.220432 0.136693 0.965777
  outer loop
    vertex 1.777479066043686 -4.353568097563653e-16 0.9749279121818236
    vertex 2.218258445084347 -0.5788587852608761 0.9562527282218337
    vertex 2.623489801858733 -6.425696776884044e-16 0.7818314824680298
  endloop
endfacet
facet normal 0.58124 0.212516 -0.785492
  outer loop
    vertex 2.399832421064017 1.399378856391591 -0.6282257525247836
    vertex 2.74071316727963 0.6076173444842398 -0.5901962715118063
    vertex 2.214814369282713 0.7487443997488247 -0.9411632462076678
  endloop
endfacet
facet normal -0.00389467 -0.915086 -0.403239
  outer loop
    vertex -0.2477380364169929 -2.98975347902001 -2.449293598294706e-16
    vertex -0.6774134435312454 -2.73304317549846 -0.5784131859173871
    vertex 0.1371767111599524 -2.66282219716136 -0.7456362274612366
  endloop
endfacet
facet normal -0.773585 -0.489853 -0.402008
  outer loop
    vertex -2.638421253619466 -1.427842179111224 -2.449293598294706e-16
    vertex -2.630101369124971 -0.9416343802633906 -0.6084614207506455
    vertex -2.120251684539626 -1.649064153546105 -0.7275517293321065
  endloop
endfacet
facet normal -0.128775 0.264279 -0.95581
  outer loop
    vertex -0.6430581594750381 2.539379244248411 -0.7849679600774988
    vertex -0.1132725977358821 2.020873953321929 -0.9997108531004435
    vertex -0.8531722144165328 1.682637269515682 -0.9935467360591805
  endloop
endfacet
facet normal 0.654007 -0.710441 -0.259903
  outer loop
    vertex 1.640844474367289 -2.51149943478758 -2.449293598294706e-16
    vertex 1.914939183940921 -2.037973377795622 -0.6046584732992241
    vertex 2.367421528189187 -1.842638138068996 -2.449293598294706e-16
  endloop
endfacet
facet normal -0.238274 -0.940924 -0.240597
  outer loop
    vertex -1.205086273958905 -2.747319979965174 -2.449293598294706e-16
    vertex -0.6774134435312454 -2.73304317549846 -0.5784131859173871
    vertex -0.2477380364169929 -2.98975347902001 -2.449293598294706e-16
  endloop
endfacet
facet normal -0.325644 0.184801 -0.927256
  outer loop
    vertex 1.347049743040389 -0.8042821069321341 -0.9022989039773605
    vertex 1.139986943530243 -1.658963935226553 -0.9999169031498127
    vertex 0.5717372630802973 -1.150733477148062 -0.6990631761831778
  endloop
endfacet
facet normal -0.872403 -0.237933 0.426968
  outer loop
    vertex -2.477602654771065 -0.8505620657303598 0.7849679600773372
    vertex -2.793603668460039 -0.00873332608726082 0.6084172501672828
    vertex -2.959083910208167 -0.4937837708422054 -2.449293598294706e-16
  endloop
endfacet
facet normal 0.496821 -0.273298 -0.823697
  outer loop
    vertex 2.21481436928272 -0.7487443997479768 -0.9411632462077626
    vertex 2.438012326407943 -1.382801374824511 -0.5961629104107357
    vertex 1.841477973654625 -1.404463650846128 -0.9487805238234042
  endloop
endfacet
facet normal 0.763902 -0.524086 -0.376546
  outer loop
    vertex -0.9988475380151957 0.06467343095850041 0.04332774054024723
    vertex -1.163832703647098 0.2846130431137324 -0.5974961016081476
    vertex -0.6846924055807855 0.8349694996383085 -0.3914591160454551
  endloop
endfacet
facet normal 0.0626831 0.347606 0.935543
  outer loop
    vertex -0.4782121006106891 -1.642098977882177 0.9571219050573901
    vertex 0.2644581523777655 -1.876583136668331 0.9944855124975911
    vertex 0.5184674558595809 -1.209871645061909 0.7297461798695335
  endloop
endfacet
facet normal 0.444633 0.260611 0.856961
  outer loop
    vertex -1.721240896152485 -0.5996615200388348 0.9841582791033557
    vertex -1.269316703831728 -1.403742733720438 0.9942080067045823
    vertex -0.8586975311962869 -0.8531690235815967 0.6137232393390237
  endloop
endfacet
facet normal -0.127986 -0.167274 0.977568
  outer loop
    vertex 1.310752972907503 0.7231500925249063 0.8642884348259227
    vertex 1.426274431886248 1.426973536201814 0.9998459685081765
    vertex 0.7451939134385476 1.382408316362934 0.90305118112984
  endloop
endfacet
facet normal 0.585321 -0.149914 -0.796822
  outer loop
    vertex 2.623489801858733 -6.425696776884043e-16 -0.7818314824680299
    vertex 2.737695471222713 -0.686785615922372 -0.5687280328507383
    vertex 2.21481436928272 -0.7487443997479768 -0.9411632462077626
  endloop
endfacet
facet normal 0.470594 -0.446868 -0.760822
  outer loop
    vertex -0.6846924055807855 0.8349694996383085 -0.3914591160454551
    vertex -1.406662899200416 1.062063990503064 -0.971406552187873
    vertex -0.8531722144165328 1.682637269515682 -0.9935467360591805
  endloop
endfacet
facet normal -0.248702 -0.466048 0.849086
  outer loop
    vertex 0.7451939134385476 1.382408316362934 0.90305118112984
    vertex 0.2088935441279715 1.819014532955713 0.9856108710917414
    vertex -0.07157959982842083 1.155733054077225 0.5393956558218747
  endloop
endfacet
facet normal -0.555667 -0.0343677 0.830694
  outer loop
    vertex -2.265668630875898 0.04829448921415104 0.9639224327049348
    vertex -2.793603668460039 -0.00873332608726082 0.6084172501672828
    vertex -2.477602654771065 -0.8505620657303598 0.7849679600773372
  endloop
endfacet
facet normal -0.0890317 0.431784 -0.897572
  outer loop
    vertex 0.5717372630802973 -1.150733477148062 -0.6990631761831778
    vertex 1.139986943530243 -1.658963935226553 -0.9999169031498127
    vertex 0.2300969513915509 -1.817050686060516 -0.9857121775443676
  endloop
endfacet
facet normal 0.575649 0.142869 -0.805119
  outer loop
    vertex 2.214814369282713 0.7487443997488247 -0.9411632462076678
    vertex 2.74071316727963 0.6076173444842398 -0.5901962715118063
    vertex 2.623489801858733 -6.425696776884043e-16 -0.7818314824680299
  endloop
endfacet
facet normal 0.870072 -0.361414 -0.335194
  outer loop
    vertex 2.438012326407943 -1.382801374824511 -0.5961629104107357
    vertex 2.737695471222713 -0.686785615922372 -0.5687280328507383
    vertex 2.837451725101904 -0.9740984076140512 -2.449293598294706e-16
  endloop
endfacet
facet normal 0.320439 0.365217 -0.874034
  outer loop
    vertex 1.133530263041039 2.411227869339125 -0.7473966359478532
    vertex 1.853746811233368 2.07282232460814 -0.6247538618606238
    vertex 1.426122910665179 1.566910742486569 -0.9929260402092234
  endloop
endfacet
facet normal 0.731316 -0.579194 -0.360154
  outer loop
    vertex 2.367421528189187 -1.842638138068996 -2.449293598294706e-16
    vertex 1.914939183940921 -2.037973377795622 -0.6046584732992241
    vertex 2.438012326407943 -1.382801374824511 -0.5961629104107357
  endloop
endfacet
facet normal 0.733121 0.46646 -0.494923
  outer loop
    vertex -0.7786480513930698 -0.7558212166706407 -0.4038021825058874
    vertex -1.257007978978482 -0.333896447783167 -0.7147287877511537
    vertex -0.9988475380151957 0.06467343095850041 0.04332774054024723
  endloop
endfacet
facet normal -0.0983752 0.264785 -0.959276
  outer loop
    vertex 0.2300969513915509 -1.817050686060516 -0.9857121775443676
    vertex -0.5564133564262016 -2.104158615402561 -0.9843036448941553
    vertex -0.379085827901239 -1.333923384878821 -0.7898838657070371
  endloop
endfacet
facet normal -0.128481 -0.520213 -0.844317
  outer loop
    vertex 0.1371767111599524 -2.66282219716136 -0.7456362274612366
    vertex -0.6774134435312454 -2.73304317549846 -0.5784131859173871
    vertex -0.5564133564262016 -2.104158615402561 -0.9843036448941553
  endloop
endfacet
facet normal 0.481877 -0.374446 -0.792203
  outer loop
    vertex 2.438012326407943 -1.382801374824511 -0.5961629104107357
    vertex 1.914939183940921 -2.037973377795622 -0.6046584732992241
    vertex 1.841477973654625 -1.404463650846128 -0.9487805238234042
  endloop
endfacet
facet normal 0.258725 -0.321273 0.910958
  outer loop
    vertex 1.292138015572996 -1.636163201225915 0.9963926914829634
    vertex 1.031539289659498 -2.368724704216427 0.8120494758787175
    vertex 1.754792030539233 -2.041046572499905 0.7221996703396215
  endloop
endfacet
facet normal 0.10121 -0.281939 -0.954079
  outer loop
    vertex 0.2300969513915509 -1.817050686060516 -0.9857121775443676
    vertex 0.1371767111599524 -2.66282219716136 -0.7456362274612366
    vertex -0.5564133564262016 -2.104158615402561 -0.9843036448941553
  endloop
endfacet
facet normal 0.566729 -0.135806 0.812634
  outer loop
    vertex 2.303813469160483 -1.24676150162119 0.784967960074044
    vertex 2.746978894284421 -0.6001913109735065 0.5839594548476096
    vertex 2.218258445084347 -0.5788587852608761 0.9562527282218337
  endloop
endfacet
facet normal 0.956334 -0.0914498 -0.277602
  outer loop
    vertex -1.257007978978482 -0.333896447783167 -0.7147287877511537
    vertex -1.163832703647098 0.2846130431137324 -0.5974961016081476
    vertex -0.9988475380151957 0.06467343095850041 0.04332774054024723
  endloop
endfacet
facet normal 0.565033 -0.151151 0.811105
  outer loop
    vertex 2.218258445084347 -0.5788587852608761 0.9562527282218337
    vertex 2.746978894284421 -0.6001913109735065 0.5839594548476096
    vertex 2.623489801858733 -6.425696776884044e-16 0.7818314824680298
  endloop
endfacet
facet normal 0.583087 -0.220236 -0.781988
  outer loop
    vertex 2.21481436928272 -0.7487443997479768 -0.9411632462077626
    vertex 2.737695471222713 -0.686785615922372 -0.5687280328507383
    vertex 2.438012326407943 -1.382801374824511 -0.5961629104107357
  endloop
endfacet
facet normal 0.546163 0.0758455 -0.834239
  outer loop
    vertex -1.732860814601278 0.2863942998214552 -0.9698677298415973
    vertex -1.163832703647098 0.2846130431137324 -0.5974961016081476
    vertex -1.257007978978482 -0.333896447783167 -0.7147287877511537
  endloop
endfacet
endsolid Created by Gmsh
